<?xml version="1.0"?>
<Project_Data Version="8.00">
<Project_Settings>
<ProfileName>MP4 only (up to 720p)</ProfileName>
<ProjectWidth>1280</ProjectWidth>
<ProjectHeight>720</ProjectHeight>
<IsCustomProject>1</IsCustomProject>
<SavedProjectSettings>1</SavedProjectSettings>
<LastFlashTemplate>-1</LastFlashTemplate>
</Project_Settings>


<AutoSaveFile>C:\Users\MARK\AppData\Local\TechSmith\Camtasia Studio\8.0\Auto-Saves\a002-deploy-firebases-v3106200ac.autosave.camproj</AutoSaveFile>

<ProjectID>D0C7CFF2-A502-4D80-9A6E-CF6C2A8DA6F5</ProjectID>

<PowerPointProject>0</PowerPointProject>

<PowerPointFilename></PowerPointFilename>


<Project_Notes>
</Project_Notes>

<Project_MetaData>
<Project_MetaData_Object>
<FieldArrayKey>8</FieldArrayKey>
<Value>a002-deploy-firebases-v3</Value>
</Project_MetaData_Object>
<Project_MetaData_Object>
<FieldArrayKey>13</FieldArrayKey>
<Value>2016-01-25 02:36:59 下午</Value>
</Project_MetaData_Object>
<Project_MetaData_Object>
<FieldArrayKey>16</FieldArrayKey>
<Value>ENU</Value>
</Project_MetaData_Object>
</Project_MetaData>

<CSMLData>
<GoProject id="1" version="3.0" >
 <Project id="2" editRate="30/1" version="3.0" >
  <Author></Author>
  <Comment></Comment>
  <System></System>
  <SourceBin id="3"  >
    <Source id="4" src="D:\nodejs-video\a002\a002-1.trec" lastMod="20160125T064109" rect="(0,0,1920,1080)" >
      <SourceTrack range="(0,4947)" type="0" editRate="30/1" trackRect="(0,0,1920,1080)" sampleRate="0/1" bitDepth="0" numChannels="0" filename="a002-1.trec!Strack0.tsc2" metaData="a002-1.trec;" />
      <SourceTrack range="(0,7256064)" type="2" editRate="44100/1" trackRect="(0,0,0,0)" sampleRate="44100/1" bitDepth="16" numChannels="2" filename="a002-1.trec!Maudio1.mp4" metaData="" />
      <SourceTrack range="(0,7233536)" type="2" editRate="44100/1" trackRect="(0,0,0,0)" sampleRate="44100/1" bitDepth="16" numChannels="2" filename="a002-1.trec!$audio2.mp4" metaData="" />
    </Source>
    <Source id="5" src="D:\nodejs-video\a002\a002-2.trec" lastMod="20160125T064753" rect="(0,0,1920,1080)" >
      <SourceTrack range="(0,4292)" type="0" editRate="30/1" trackRect="(0,0,1920,1080)" sampleRate="0/1" bitDepth="0" numChannels="0" filename="a002-2.trec!Strack0.tsc2" metaData="a002-2.trec;" />
      <SourceTrack range="(0,6307840)" type="2" editRate="44100/1" trackRect="(0,0,0,0)" sampleRate="44100/1" bitDepth="16" numChannels="2" filename="a002-2.trec!Maudio1.mp4" metaData="" />
      <SourceTrack range="(0,6263808)" type="2" editRate="44100/1" trackRect="(0,0,0,0)" sampleRate="44100/1" bitDepth="16" numChannels="2" filename="a002-2.trec!$audio2.mp4" metaData="" />
    </Source>
    <Source id="6" src="D:\nodejs-video\a002\a002-3.trec" lastMod="20160125T065037" rect="(0,0,1920,1080)" >
      <SourceTrack range="(0,3042)" type="0" editRate="30/1" trackRect="(0,0,1920,1080)" sampleRate="0/1" bitDepth="0" numChannels="0" filename="a002-3.trec!Strack0.tsc2" metaData="a002-3.trec;" />
      <SourceTrack range="(0,4477952)" type="2" editRate="44100/1" trackRect="(0,0,0,0)" sampleRate="44100/1" bitDepth="16" numChannels="2" filename="a002-3.trec!Maudio1.mp4" metaData="" />
      <SourceTrack range="(0,4455424)" type="2" editRate="44100/1" trackRect="(0,0,0,0)" sampleRate="44100/1" bitDepth="16" numChannels="2" filename="a002-3.trec!$audio2.mp4" metaData="" />
    </Source>
    <Source id="7" src="D:\nodejs-video\a002\lesson-a002.JPG" lastMod="20160125T074639" rect="(0,0,1920,1080)" >
      <SourceTrack range="(0,1)" type="1" editRate="10000000/1" trackRect="(0,0,1920,1080)" sampleRate="0/1" bitDepth="24" numChannels="0" filename="" metaData="" />
    </Source>
    <Source id="8" src="C:\ProgramData\TechSmith\Camtasia Studio\Library 2.0\Sledge Hammer - Intro\Sledge Hammer - Intro.mp3" lastMod="20120514T081958" rect="(0,0,0,0)" >
      <SourceTrack range="(0,145333333)" type="2" editRate="10000000/1" trackRect="(0,0,0,0)" sampleRate="44100/1" bitDepth="0" numChannels="2" filename="" metaData="" />
    </Source>
    <Source id="9" src="D:\nodejs-video\a002\project.JPG" lastMod="20160125T075114" rect="(0,0,1920,1080)" >
      <SourceTrack range="(0,1)" type="1" editRate="10000000/1" trackRect="(0,0,1920,1080)" sampleRate="0/1" bitDepth="24" numChannels="0" filename="" metaData="" />
    </Source>
    <Source id="10" src="C:\ProgramData\TechSmith\Camtasia Studio\Library 2.0\Sledge Hammer - Short\Sledge Hammer - Short.mp3" lastMod="20120514T082002" rect="(0,0,0,0)" >
      <SourceTrack range="(0,330333333)" type="2" editRate="10000000/1" trackRect="(0,0,0,0)" sampleRate="44100/1" bitDepth="0" numChannels="2" filename="" metaData="" />
    </Source>
    <Source id="11" src="D:\nodejs-video\a002\lesson-a002-v2.JPG" lastMod="20160125T081224" rect="(0,0,1920,1080)" >
      <SourceTrack range="(0,1)" type="1" editRate="10000000/1" trackRect="(0,0,1920,1080)" sampleRate="0/1" bitDepth="24" numChannels="0" filename="" metaData="" />
    </Source>
  </SourceBin>
  <Timeline id="12"  >
   <Attributes>
    <Attribute id="13" value="1280" name="width"/>
    <Attribute id="14" value="720" name="height"/>
    <Attribute id="15" value="(0,0,0,255)" name="backgroundColor"/>
   </Attributes>
    <GenericMixer id="16"  name="Unified Mixer">
     <MetaData>
      <entry key="MixerType" val="TimelineMixer"/>
     </MetaData>
     <Tracks>
      <GenericTrack id="17"  >
       <Attributes>
        <Attribute id="18" value="" name="ident"/>
        <Attribute id="19" value="0" name="audioMuted"/>
        <Attribute id="20" value="0" name="videoHidden"/>
       </Attributes>
       <MetaData>
        <entry key="IsLocked" val="False"/>
        <entry key="WinTrackHeight" val="70.439393939393938"/>
       </MetaData>
       <Medias>
        <StitchedMedia id="21" start="302" duration="1693" scalar="1/1" mediaStart="576/1" mediaDuration="1693/1" minMediaStart="0/1" >
         <Transformer>
          <VectorParam id="22"  name="translation">
           <InterpolatingParam id="23" interp="linr"  time="0/1" value="0" leadInLength="0/1"  />
           <InterpolatingParam id="24" interp="linr"  time="0/1" value="0" leadInLength="0/1"  />
           <InterpolatingParam id="25" interp="linr"  time="0/1" value="0" leadInLength="0/1"  />
          </VectorParam>
          <VectorParam id="26"  name="rotation">
           <InterpolatingParam id="27" interp="linr"  time="0/1" value="0" leadInLength="0/1"  />
           <InterpolatingParam id="28" interp="linr"  time="0/1" value="0" leadInLength="0/1"  />
           <InterpolatingParam id="29" interp="linr"  time="0/1" value="0" leadInLength="0/1"  />
          </VectorParam>
          <VectorParam id="30"  name="shear">
           <InterpolatingParam id="31" interp="linr"  time="0/1" value="0" leadInLength="0/1"  />
           <InterpolatingParam id="32" interp="linr"  time="0/1" value="0" leadInLength="0/1"  />
           <InterpolatingParam id="33" interp="linr"  time="0/1" value="0" leadInLength="0/1"  />
          </VectorParam>
          <VectorParam id="34"  name="scale">
           <InterpolatingParam id="35" interp="linr"  time="0/1" value="1" leadInLength="0/1"  />
           <InterpolatingParam id="36" interp="linr"  time="0/1" value="1" leadInLength="0/1"  />
           <InterpolatingParam id="37" interp="linr"  time="0/1" value="1" leadInLength="0/1"  />
          </VectorParam>
          <VectorParam id="38"  name="anchor">
           <InterpolatingParam id="39" interp="linr"  time="0/1" value="0" leadInLength="0/1"  />
           <InterpolatingParam id="40" interp="linr"  time="0/1" value="0" leadInLength="0/1"  />
           <InterpolatingParam id="41" interp="linr"  time="0/1" value="0" leadInLength="0/1"  />
          </VectorParam>
         </Transformer>
         <Parameters>
          <InterpolatingParam id="42" interp="linr"  time="0/1" value="1" leadInLength="0/1"  name="cursorOpacity"/>
          <InterpolatingParam id="43" interp="linr"  time="0/1" value="1" leadInLength="0/1"  name="cursorScale"/>
          <InterpolatingParam id="44" interp="linr"  name="volume">
           <Keyframes>
           <Keyframe id="45"  time="0/1" value="1" leadInLength="0/1"  />
           <Keyframe id="46"  time="996/1" value="1" leadInLength="0/1"  />
           <Keyframe id="47"  time="997/1" value="0" leadInLength="0/1"  />
           <Keyframe id="48"  time="1016/1" value="0" leadInLength="0/1"  />
           <Keyframe id="49"  time="1017/1" value="1" leadInLength="0/1"  />
           <Keyframe id="50"  time="1086/1" value="1" leadInLength="0/1"  />
           <Keyframe id="51"  time="1087/1" value="0" leadInLength="0/1"  />
           <Keyframe id="52"  time="1094/1" value="0" leadInLength="0/1"  />
           <Keyframe id="53"  time="1095/1" value="1" leadInLength="0/1"  />
           <Keyframe id="54"  time="1304/1" value="1" leadInLength="0/1"  />
           <Keyframe id="55"  time="1305/1" value="0" leadInLength="0/1"  />
           <Keyframe id="56"  time="1327/1" value="0" leadInLength="0/1"  />
           <Keyframe id="57"  time="1328/1" value="1" leadInLength="0/1"  />
           <Keyframe id="58"  time="1385/1" value="1" leadInLength="0/1"  />
           <Keyframe id="59"  time="1386/1" value="0" leadInLength="0/1"  />
           <Keyframe id="60"  time="1405/1" value="0" leadInLength="0/1"  />
           <Keyframe id="61"  time="1406/1" value="1" leadInLength="0/1"  />
           <Keyframe id="62"  time="1554/1" value="1" leadInLength="0/1"  />
           <Keyframe id="63"  time="1555/1" value="0" leadInLength="0/1"  />
           <Keyframe id="64"  time="1647/1" value="0" leadInLength="0/1"  />
           <Keyframe id="65"  time="1677/1" value="1" leadInLength="0/1"  />
           <Keyframe id="66"  time="2028/1" value="1" leadInLength="0/1"  />
           <Keyframe id="67"  time="2029/1" value="0" leadInLength="0/1"  />
           <Keyframe id="68"  time="2051/1" value="0" leadInLength="0/1"  />
           <Keyframe id="69"  time="2052/1" value="1" leadInLength="0/1"  />
           <Keyframe id="70"  time="2230/1" value="1" leadInLength="0/1"  />
           <Keyframe id="71"  time="2231/1" value="0" leadInLength="0/1"  />
           <Keyframe id="72"  time="2268/1" value="0" leadInLength="0/1"  />
           <Keyframe id="73"  time="2269/1" value="1" leadInLength="0/1"  />
           </Keyframes>
          </InterpolatingParam>
          <Parameter id="74"  name="captions"/>
         </Parameters>
         <Attributes>
          <Attribute id="75" value="" name="ident"/>
          <Attribute id="76" value="0" name="mixToMono"/>
         </Attributes>
         <MetaData>
          <entry key="WinSubProjectDisplayName" val=""/>
         </MetaData>
         <ExtraData>
          <Entry key="ZoomPanBin">
           <ZoomPanBin id="77"  >
            <ZoomPanKeyframes>
            </ZoomPanKeyframes>
           </ZoomPanBin>
          </Entry>
          <Entry key="CursorEffectBin">
           <CursorEffectBin id="78"  >
            <CursorEffectKeyframes>
            </CursorEffectKeyframes>
           </CursorEffectBin>
          </Entry>
         </ExtraData>
         <GenericTrack id="79"  >
          <Attributes>
           <Attribute id="80" value="" name="ident"/>
           <Attribute id="81" value="0" name="audioMuted"/>
           <Attribute id="82" value="0" name="videoHidden"/>
          </Attributes>
          <MetaData>
           <entry key="IsLocked" val="False"/>
           <entry key="WinTrackHeight" val="0"/>
          </MetaData>
          <Medias>
           <AMFile id="83" start="0" duration="331" scalar="1/1" mediaStart="0/1" mediaDuration="331/1" trackNumber="2" src="4" channelNumber="0,1" >
            <Parameters>
             <InterpolatingParam id="84" interp="linr"  time="0/1" value="1" leadInLength="0/1"  name="volume"/>
             <Parameter id="85"  name="captions"/>
            </Parameters>
            <Attributes>
             <Attribute id="86" value="" name="ident"/>
             <Attribute id="87" value="44100" name="sampleRate"/>
             <Attribute id="88" value="16" name="bitDepth"/>
             <Attribute id="89" value="1" name="gain"/>
             <Attribute id="90" value="0" name="mixToMono"/>
            </Attributes>
            <MetaData>
             <entry key="WinSubProjectDisplayName" val=""/>
            </MetaData>
           </AMFile>
           <AMFile id="91" start="331" duration="398" scalar="1/1" mediaStart="941/1" mediaDuration="398/1" trackNumber="2" src="4" channelNumber="0,1" >
            <Parameters>
             <InterpolatingParam id="92" interp="linr"  time="0/1" value="1" leadInLength="0/1"  name="volume"/>
             <Parameter id="93"  name="captions"/>
            </Parameters>
            <Attributes>
             <Attribute id="94" value="" name="ident"/>
             <Attribute id="95" value="44100" name="sampleRate"/>
             <Attribute id="96" value="16" name="bitDepth"/>
             <Attribute id="97" value="1" name="gain"/>
             <Attribute id="98" value="0" name="mixToMono"/>
            </Attributes>
            <MetaData>
             <entry key="WinSubProjectDisplayName" val=""/>
            </MetaData>
           </AMFile>
           <AMFile id="99" start="729" duration="548" scalar="1/1" mediaStart="1426/1" mediaDuration="548/1" trackNumber="2" src="4" channelNumber="0,1" >
            <Parameters>
             <InterpolatingParam id="100" interp="linr"  time="0/1" value="1" leadInLength="0/1"  name="volume"/>
             <Parameter id="101"  name="captions"/>
            </Parameters>
            <Attributes>
             <Attribute id="102" value="" name="ident"/>
             <Attribute id="103" value="44100" name="sampleRate"/>
             <Attribute id="104" value="16" name="bitDepth"/>
             <Attribute id="105" value="1" name="gain"/>
             <Attribute id="106" value="0" name="mixToMono"/>
            </Attributes>
            <MetaData>
             <entry key="WinSubProjectDisplayName" val=""/>
            </MetaData>
           </AMFile>
           <AMFile id="107" start="1277" duration="131" scalar="1/1" mediaStart="2118/1" mediaDuration="131/1" trackNumber="2" src="4" channelNumber="0,1" >
            <Parameters>
             <InterpolatingParam id="108" interp="linr"  time="0/1" value="1" leadInLength="0/1"  name="volume"/>
             <Parameter id="109"  name="captions"/>
            </Parameters>
            <Attributes>
             <Attribute id="110" value="" name="ident"/>
             <Attribute id="111" value="44100" name="sampleRate"/>
             <Attribute id="112" value="16" name="bitDepth"/>
             <Attribute id="113" value="1" name="gain"/>
             <Attribute id="114" value="0" name="mixToMono"/>
            </Attributes>
            <MetaData>
             <entry key="WinSubProjectDisplayName" val=""/>
            </MetaData>
           </AMFile>
           <AMFile id="115" start="1408" duration="161" scalar="1/1" mediaStart="2394/1" mediaDuration="161/1" trackNumber="2" src="4" channelNumber="0,1" >
            <Parameters>
             <InterpolatingParam id="116" interp="linr"  time="0/1" value="1" leadInLength="0/1"  name="volume"/>
             <Parameter id="117"  name="captions"/>
            </Parameters>
            <Attributes>
             <Attribute id="118" value="" name="ident"/>
             <Attribute id="119" value="44100" name="sampleRate"/>
             <Attribute id="120" value="16" name="bitDepth"/>
             <Attribute id="121" value="1" name="gain"/>
             <Attribute id="122" value="0" name="mixToMono"/>
            </Attributes>
            <MetaData>
             <entry key="WinSubProjectDisplayName" val=""/>
            </MetaData>
           </AMFile>
           <AMFile id="123" start="1569" duration="93" scalar="1/1" mediaStart="3128/1" mediaDuration="93/1" trackNumber="2" src="4" channelNumber="0,1" >
            <Parameters>
             <InterpolatingParam id="124" interp="linr"  time="0/1" value="1" leadInLength="0/1"  name="volume"/>
             <Parameter id="125"  name="captions"/>
            </Parameters>
            <Attributes>
             <Attribute id="126" value="" name="ident"/>
             <Attribute id="127" value="44100" name="sampleRate"/>
             <Attribute id="128" value="16" name="bitDepth"/>
             <Attribute id="129" value="1" name="gain"/>
             <Attribute id="130" value="0" name="mixToMono"/>
            </Attributes>
            <MetaData>
             <entry key="WinSubProjectDisplayName" val=""/>
            </MetaData>
           </AMFile>
           <AMFile id="131" start="1662" duration="315" scalar="1/1" mediaStart="3880/1" mediaDuration="315/1" trackNumber="2" src="4" channelNumber="0,1" >
            <Parameters>
             <InterpolatingParam id="132" interp="linr"  time="0/1" value="1" leadInLength="0/1"  name="volume"/>
             <Parameter id="133"  name="captions"/>
            </Parameters>
            <Attributes>
             <Attribute id="134" value="" name="ident"/>
             <Attribute id="135" value="44100" name="sampleRate"/>
             <Attribute id="136" value="16" name="bitDepth"/>
             <Attribute id="137" value="1" name="gain"/>
             <Attribute id="138" value="0" name="mixToMono"/>
            </Attributes>
            <MetaData>
             <entry key="WinSubProjectDisplayName" val=""/>
            </MetaData>
           </AMFile>
           <AMFile id="139" start="1977" duration="279" scalar="1/1" mediaStart="4325/1" mediaDuration="279/1" trackNumber="2" src="4" channelNumber="0,1" >
            <Parameters>
             <InterpolatingParam id="140" interp="linr"  time="0/1" value="1" leadInLength="0/1"  name="volume"/>
             <Parameter id="141"  name="captions"/>
            </Parameters>
            <Attributes>
             <Attribute id="142" value="" name="ident"/>
             <Attribute id="143" value="44100" name="sampleRate"/>
             <Attribute id="144" value="16" name="bitDepth"/>
             <Attribute id="145" value="1" name="gain"/>
             <Attribute id="146" value="0" name="mixToMono"/>
            </Attributes>
            <MetaData>
             <entry key="WinSubProjectDisplayName" val=""/>
            </MetaData>
           </AMFile>
           <AMFile id="147" start="2256" duration="12" scalar="1/1" mediaStart="4749/1" mediaDuration="12/1" trackNumber="2" src="4" channelNumber="0,1" >
            <Parameters>
             <InterpolatingParam id="148" interp="linr"  time="0/1" value="1" leadInLength="0/1"  name="volume"/>
             <Parameter id="149"  name="captions"/>
            </Parameters>
            <Attributes>
             <Attribute id="150" value="" name="ident"/>
             <Attribute id="151" value="44100" name="sampleRate"/>
             <Attribute id="152" value="16" name="bitDepth"/>
             <Attribute id="153" value="1" name="gain"/>
             <Attribute id="154" value="0" name="mixToMono"/>
            </Attributes>
            <MetaData>
             <entry key="WinSubProjectDisplayName" val=""/>
            </MetaData>
           </AMFile>
           <AMFile id="155" start="2268" duration="14" scalar="1/1" mediaStart="4906/1" mediaDuration="14/1" trackNumber="2" src="4" channelNumber="0,1" >
            <Parameters>
             <InterpolatingParam id="156" interp="linr"  time="0/1" value="1" leadInLength="0/1"  name="volume"/>
             <Parameter id="157"  name="captions"/>
            </Parameters>
            <Attributes>
             <Attribute id="158" value="" name="ident"/>
             <Attribute id="159" value="44100" name="sampleRate"/>
             <Attribute id="160" value="16" name="bitDepth"/>
             <Attribute id="161" value="1" name="gain"/>
             <Attribute id="162" value="0" name="mixToMono"/>
            </Attributes>
            <MetaData>
             <entry key="WinSubProjectDisplayName" val=""/>
            </MetaData>
           </AMFile>
          </Medias>
         </GenericTrack>
        </StitchedMedia>
        <StitchedMedia id="163" start="1995" duration="1637" scalar="1/1" mediaStart="0/1" mediaDuration="1637/1" minMediaStart="0/1" >
         <Transformer>
          <VectorParam id="164"  name="translation">
           <InterpolatingParam id="165" interp="linr"  time="0/1" value="0" leadInLength="0/1"  />
           <InterpolatingParam id="166" interp="linr"  time="0/1" value="0" leadInLength="0/1"  />
           <InterpolatingParam id="167" interp="linr"  time="0/1" value="0" leadInLength="0/1"  />
          </VectorParam>
          <VectorParam id="168"  name="rotation">
           <InterpolatingParam id="169" interp="linr"  time="0/1" value="0" leadInLength="0/1"  />
           <InterpolatingParam id="170" interp="linr"  time="0/1" value="0" leadInLength="0/1"  />
           <InterpolatingParam id="171" interp="linr"  time="0/1" value="0" leadInLength="0/1"  />
          </VectorParam>
          <VectorParam id="172"  name="shear">
           <InterpolatingParam id="173" interp="linr"  time="0/1" value="0" leadInLength="0/1"  />
           <InterpolatingParam id="174" interp="linr"  time="0/1" value="0" leadInLength="0/1"  />
           <InterpolatingParam id="175" interp="linr"  time="0/1" value="0" leadInLength="0/1"  />
          </VectorParam>
          <VectorParam id="176"  name="scale">
           <InterpolatingParam id="177" interp="linr"  time="0/1" value="1" leadInLength="0/1"  />
           <InterpolatingParam id="178" interp="linr"  time="0/1" value="1" leadInLength="0/1"  />
           <InterpolatingParam id="179" interp="linr"  time="0/1" value="1" leadInLength="0/1"  />
          </VectorParam>
          <VectorParam id="180"  name="anchor">
           <InterpolatingParam id="181" interp="linr"  time="0/1" value="0" leadInLength="0/1"  />
           <InterpolatingParam id="182" interp="linr"  time="0/1" value="0" leadInLength="0/1"  />
           <InterpolatingParam id="183" interp="linr"  time="0/1" value="0" leadInLength="0/1"  />
          </VectorParam>
         </Transformer>
         <Parameters>
          <InterpolatingParam id="184" interp="linr"  time="0/1" value="1" leadInLength="0/1"  name="cursorOpacity"/>
          <InterpolatingParam id="185" interp="linr"  time="0/1" value="1" leadInLength="0/1"  name="cursorScale"/>
          <InterpolatingParam id="186" interp="linr"  name="volume">
           <Keyframes>
           <Keyframe id="187"  time="0/1" value="1" leadInLength="0/1"  />
           <Keyframe id="188"  time="1400/1" value="1" leadInLength="0/1"  />
           <Keyframe id="189"  time="1401/1" value="0" leadInLength="0/1"  />
           <Keyframe id="190"  time="1429/1" value="0" leadInLength="0/1"  />
           <Keyframe id="191"  time="1430/1" value="1" leadInLength="0/1"  />
           </Keyframes>
          </InterpolatingParam>
          <Parameter id="192"  name="captions"/>
         </Parameters>
         <Attributes>
          <Attribute id="193" value="" name="ident"/>
          <Attribute id="194" value="0" name="mixToMono"/>
         </Attributes>
         <MetaData>
          <entry key="WinSubProjectDisplayName" val=""/>
         </MetaData>
         <ExtraData>
          <Entry key="ZoomPanBin">
           <ZoomPanBin id="195"  >
            <ZoomPanKeyframes>
            </ZoomPanKeyframes>
           </ZoomPanBin>
          </Entry>
          <Entry key="CursorEffectBin">
           <CursorEffectBin id="196"  >
            <CursorEffectKeyframes>
            </CursorEffectKeyframes>
           </CursorEffectBin>
          </Entry>
         </ExtraData>
         <GenericTrack id="197"  >
          <Attributes>
           <Attribute id="198" value="" name="ident"/>
           <Attribute id="199" value="0" name="audioMuted"/>
           <Attribute id="200" value="0" name="videoHidden"/>
          </Attributes>
          <MetaData>
           <entry key="IsLocked" val="False"/>
           <entry key="WinTrackHeight" val="0"/>
          </MetaData>
          <Medias>
           <AMFile id="201" start="0" duration="530" scalar="1/1" mediaStart="0/1" mediaDuration="530/1" trackNumber="2" src="5" channelNumber="0,1" >
            <Parameters>
             <InterpolatingParam id="202" interp="linr"  time="0/1" value="1" leadInLength="0/1"  name="volume"/>
             <Parameter id="203"  name="captions"/>
            </Parameters>
            <Attributes>
             <Attribute id="204" value="" name="ident"/>
             <Attribute id="205" value="44100" name="sampleRate"/>
             <Attribute id="206" value="16" name="bitDepth"/>
             <Attribute id="207" value="1" name="gain"/>
             <Attribute id="208" value="0" name="mixToMono"/>
            </Attributes>
            <MetaData>
             <entry key="WinSubProjectDisplayName" val=""/>
            </MetaData>
           </AMFile>
           <AMFile id="209" start="530" duration="5" scalar="1/1" mediaStart="730/1" mediaDuration="5/1" trackNumber="2" src="5" channelNumber="0,1" >
            <Parameters>
             <InterpolatingParam id="210" interp="linr"  time="0/1" value="1" leadInLength="0/1"  name="volume"/>
             <Parameter id="211"  name="captions"/>
            </Parameters>
            <Attributes>
             <Attribute id="212" value="" name="ident"/>
             <Attribute id="213" value="44100" name="sampleRate"/>
             <Attribute id="214" value="16" name="bitDepth"/>
             <Attribute id="215" value="1" name="gain"/>
             <Attribute id="216" value="0" name="mixToMono"/>
            </Attributes>
            <MetaData>
             <entry key="WinSubProjectDisplayName" val=""/>
            </MetaData>
           </AMFile>
           <AMFile id="217" start="535" duration="575" scalar="1/1" mediaStart="1787/1" mediaDuration="575/1" trackNumber="2" src="5" channelNumber="0,1" >
            <Parameters>
             <InterpolatingParam id="218" interp="linr"  time="0/1" value="1" leadInLength="0/1"  name="volume"/>
             <Parameter id="219"  name="captions"/>
            </Parameters>
            <Attributes>
             <Attribute id="220" value="" name="ident"/>
             <Attribute id="221" value="44100" name="sampleRate"/>
             <Attribute id="222" value="16" name="bitDepth"/>
             <Attribute id="223" value="1" name="gain"/>
             <Attribute id="224" value="0" name="mixToMono"/>
            </Attributes>
            <MetaData>
             <entry key="WinSubProjectDisplayName" val=""/>
            </MetaData>
           </AMFile>
           <AMFile id="225" start="1110" duration="10" scalar="1/1" mediaStart="3045/1" mediaDuration="10/1" trackNumber="2" src="5" channelNumber="0,1" >
            <Parameters>
             <InterpolatingParam id="226" interp="linr"  time="0/1" value="1" leadInLength="0/1"  name="volume"/>
             <Parameter id="227"  name="captions"/>
            </Parameters>
            <Attributes>
             <Attribute id="228" value="" name="ident"/>
             <Attribute id="229" value="44100" name="sampleRate"/>
             <Attribute id="230" value="16" name="bitDepth"/>
             <Attribute id="231" value="1" name="gain"/>
             <Attribute id="232" value="0" name="mixToMono"/>
            </Attributes>
            <MetaData>
             <entry key="WinSubProjectDisplayName" val=""/>
            </MetaData>
           </AMFile>
           <AMFile id="233" start="1120" duration="308" scalar="1/1" mediaStart="3204/1" mediaDuration="308/1" trackNumber="2" src="5" channelNumber="0,1" >
            <Parameters>
             <InterpolatingParam id="234" interp="linr"  time="0/1" value="1" leadInLength="0/1"  name="volume"/>
             <Parameter id="235"  name="captions"/>
            </Parameters>
            <Attributes>
             <Attribute id="236" value="" name="ident"/>
             <Attribute id="237" value="44100" name="sampleRate"/>
             <Attribute id="238" value="16" name="bitDepth"/>
             <Attribute id="239" value="1" name="gain"/>
             <Attribute id="240" value="0" name="mixToMono"/>
            </Attributes>
            <MetaData>
             <entry key="WinSubProjectDisplayName" val=""/>
            </MetaData>
           </AMFile>
           <AMFile id="241" start="1428" duration="91" scalar="1/1" mediaStart="3712/1" mediaDuration="91/1" trackNumber="2" src="5" channelNumber="0,1" >
            <Parameters>
             <InterpolatingParam id="242" interp="linr"  time="0/1" value="1" leadInLength="0/1"  name="volume"/>
             <Parameter id="243"  name="captions"/>
            </Parameters>
            <Attributes>
             <Attribute id="244" value="" name="ident"/>
             <Attribute id="245" value="44100" name="sampleRate"/>
             <Attribute id="246" value="16" name="bitDepth"/>
             <Attribute id="247" value="1" name="gain"/>
             <Attribute id="248" value="0" name="mixToMono"/>
            </Attributes>
            <MetaData>
             <entry key="WinSubProjectDisplayName" val=""/>
            </MetaData>
           </AMFile>
           <AMFile id="249" start="1519" duration="278" scalar="1/1" mediaStart="3983/1" mediaDuration="278/1" trackNumber="2" src="5" channelNumber="0,1" >
            <Parameters>
             <InterpolatingParam id="250" interp="linr"  time="0/1" value="1" leadInLength="0/1"  name="volume"/>
             <Parameter id="251"  name="captions"/>
            </Parameters>
            <Attributes>
             <Attribute id="252" value="" name="ident"/>
             <Attribute id="253" value="44100" name="sampleRate"/>
             <Attribute id="254" value="16" name="bitDepth"/>
             <Attribute id="255" value="1" name="gain"/>
             <Attribute id="256" value="0" name="mixToMono"/>
            </Attributes>
            <MetaData>
             <entry key="WinSubProjectDisplayName" val=""/>
            </MetaData>
           </AMFile>
          </Medias>
         </GenericTrack>
        </StitchedMedia>
        <StitchedMedia id="257" start="3632" duration="1155" scalar="1/1" mediaStart="0/1" mediaDuration="1155/1" minMediaStart="0/1" >
         <Transformer>
          <VectorParam id="258"  name="translation">
           <InterpolatingParam id="259" interp="linr"  time="0/1" value="0" leadInLength="0/1"  />
           <InterpolatingParam id="260" interp="linr"  time="0/1" value="0" leadInLength="0/1"  />
           <InterpolatingParam id="261" interp="linr"  time="0/1" value="0" leadInLength="0/1"  />
          </VectorParam>
          <VectorParam id="262"  name="rotation">
           <InterpolatingParam id="263" interp="linr"  time="0/1" value="0" leadInLength="0/1"  />
           <InterpolatingParam id="264" interp="linr"  time="0/1" value="0" leadInLength="0/1"  />
           <InterpolatingParam id="265" interp="linr"  time="0/1" value="0" leadInLength="0/1"  />
          </VectorParam>
          <VectorParam id="266"  name="shear">
           <InterpolatingParam id="267" interp="linr"  time="0/1" value="0" leadInLength="0/1"  />
           <InterpolatingParam id="268" interp="linr"  time="0/1" value="0" leadInLength="0/1"  />
           <InterpolatingParam id="269" interp="linr"  time="0/1" value="0" leadInLength="0/1"  />
          </VectorParam>
          <VectorParam id="270"  name="scale">
           <InterpolatingParam id="271" interp="linr"  time="0/1" value="1" leadInLength="0/1"  />
           <InterpolatingParam id="272" interp="linr"  time="0/1" value="1" leadInLength="0/1"  />
           <InterpolatingParam id="273" interp="linr"  time="0/1" value="1" leadInLength="0/1"  />
          </VectorParam>
          <VectorParam id="274"  name="anchor">
           <InterpolatingParam id="275" interp="linr"  time="0/1" value="0" leadInLength="0/1"  />
           <InterpolatingParam id="276" interp="linr"  time="0/1" value="0" leadInLength="0/1"  />
           <InterpolatingParam id="277" interp="linr"  time="0/1" value="0" leadInLength="0/1"  />
          </VectorParam>
         </Transformer>
         <Parameters>
          <InterpolatingParam id="278" interp="linr"  time="0/1" value="1" leadInLength="0/1"  name="cursorOpacity"/>
          <InterpolatingParam id="279" interp="linr"  time="0/1" value="1" leadInLength="0/1"  name="cursorScale"/>
          <InterpolatingParam id="280" interp="linr"  name="volume">
           <Keyframes>
           <Keyframe id="281"  time="0/1" value="1" leadInLength="0/1"  />
           <Keyframe id="282"  time="1048/1" value="1" leadInLength="0/1"  />
           <Keyframe id="283"  time="1049/1" value="0" leadInLength="0/1"  />
           <Keyframe id="284"  time="1155/1" value="0" leadInLength="0/1"  />
           <Keyframe id="285"  time="1156/1" value="1" leadInLength="0/1"  />
           </Keyframes>
          </InterpolatingParam>
          <Parameter id="286"  name="captions"/>
         </Parameters>
         <Attributes>
          <Attribute id="287" value="" name="ident"/>
          <Attribute id="288" value="0" name="mixToMono"/>
         </Attributes>
         <MetaData>
          <entry key="WinSubProjectDisplayName" val=""/>
         </MetaData>
         <ExtraData>
          <Entry key="ZoomPanBin">
           <ZoomPanBin id="289"  >
            <ZoomPanKeyframes>
            </ZoomPanKeyframes>
           </ZoomPanBin>
          </Entry>
          <Entry key="CursorEffectBin">
           <CursorEffectBin id="290"  >
            <CursorEffectKeyframes>
            </CursorEffectKeyframes>
           </CursorEffectBin>
          </Entry>
         </ExtraData>
         <GenericTrack id="291"  >
          <Attributes>
           <Attribute id="292" value="" name="ident"/>
           <Attribute id="293" value="0" name="audioMuted"/>
           <Attribute id="294" value="0" name="videoHidden"/>
          </Attributes>
          <MetaData>
           <entry key="IsLocked" val="False"/>
           <entry key="WinTrackHeight" val="0"/>
          </MetaData>
          <Medias>
           <AMFile id="295" start="0" duration="259" scalar="1/1" mediaStart="0/1" mediaDuration="259/1" trackNumber="2" src="6" channelNumber="0,1" >
            <Parameters>
             <InterpolatingParam id="296" interp="linr"  time="0/1" value="1" leadInLength="0/1"  name="volume"/>
             <Parameter id="297"  name="captions"/>
            </Parameters>
            <Attributes>
             <Attribute id="298" value="" name="ident"/>
             <Attribute id="299" value="44100" name="sampleRate"/>
             <Attribute id="300" value="16" name="bitDepth"/>
             <Attribute id="301" value="1" name="gain"/>
             <Attribute id="302" value="0" name="mixToMono"/>
            </Attributes>
            <MetaData>
             <entry key="WinSubProjectDisplayName" val=""/>
            </MetaData>
           </AMFile>
           <AMFile id="303" start="259" duration="209" scalar="1/1" mediaStart="1442/1" mediaDuration="209/1" trackNumber="2" src="6" channelNumber="0,1" >
            <Parameters>
             <InterpolatingParam id="304" interp="linr"  time="0/1" value="1" leadInLength="0/1"  name="volume"/>
             <Parameter id="305"  name="captions"/>
            </Parameters>
            <Attributes>
             <Attribute id="306" value="" name="ident"/>
             <Attribute id="307" value="44100" name="sampleRate"/>
             <Attribute id="308" value="16" name="bitDepth"/>
             <Attribute id="309" value="1" name="gain"/>
             <Attribute id="310" value="0" name="mixToMono"/>
            </Attributes>
            <MetaData>
             <entry key="WinSubProjectDisplayName" val=""/>
            </MetaData>
           </AMFile>
           <AMFile id="311" start="468" duration="687" scalar="1/1" mediaStart="2343/1" mediaDuration="687/1" trackNumber="2" src="6" channelNumber="0,1" >
            <Parameters>
             <InterpolatingParam id="312" interp="linr"  time="0/1" value="1" leadInLength="0/1"  name="volume"/>
             <Parameter id="313"  name="captions"/>
            </Parameters>
            <Attributes>
             <Attribute id="314" value="" name="ident"/>
             <Attribute id="315" value="44100" name="sampleRate"/>
             <Attribute id="316" value="16" name="bitDepth"/>
             <Attribute id="317" value="1" name="gain"/>
             <Attribute id="318" value="0" name="mixToMono"/>
            </Attributes>
            <MetaData>
             <entry key="WinSubProjectDisplayName" val=""/>
            </MetaData>
           </AMFile>
          </Medias>
         </GenericTrack>
        </StitchedMedia>
       </Medias>
      </GenericTrack>
      <GenericTrack id="319"  >
       <Attributes>
        <Attribute id="320" value="" name="ident"/>
        <Attribute id="321" value="0" name="audioMuted"/>
        <Attribute id="322" value="0" name="videoHidden"/>
       </Attributes>
       <MetaData>
        <entry key="IsLocked" val="False"/>
        <entry key="WinTrackHeight" val="70.439393939393938"/>
       </MetaData>
       <Medias>
        <UnifiedMedia id="323"  >
         <AudioTransition id="324" start="302" duration="30" >
          <Parameters>
           <InterpolatingParam id="325" interp="linr"  time="0/1" value="1" leadInLength="0/1"  name="volume"/>
           <Parameter id="326"  name="captions"/>
          </Parameters>
          <Effects>
           <GenericEffect id="327" name = "AudioTransition" >
            <Parameters>
            <Parameter id="328"   name="audioEdgeModType">
             <Keyframes>
             <Keyframe id="329"  time="0/1" value="0" leadInLength="0/1"  />
             </Keyframes>
            </Parameter>
            <Parameter id="330"   name="audioTransitionType">
             <Keyframes>
             <Keyframe id="331"  time="0/1" value="" leadInLength="0/1"  />
             </Keyframes>
            </Parameter>
            </Parameters>
            <MetaData>
            </MetaData>
           </GenericEffect>
          </Effects>
          <Attributes>
           <Attribute id="332" value="" name="ident"/>
           <Attribute id="333" value="0" name="sampleRate"/>
           <Attribute id="334" value="0" name="bitDepth"/>
           <Attribute id="335" value="1" name="gain"/>
           <Attribute id="336" value="0" name="mixToMono"/>
          </Attributes>
         </AudioTransition>
         <ImageTransition id="337" start="302" duration="30" >
          <Transformer>
           <VectorParam id="338"  name="translation">
            <InterpolatingParam id="339" interp="linr"  time="0/1" value="0" leadInLength="0/1"  />
            <InterpolatingParam id="340" interp="linr"  time="0/1" value="0" leadInLength="0/1"  />
            <InterpolatingParam id="341" interp="linr"  time="0/1" value="0" leadInLength="0/1"  />
           </VectorParam>
           <VectorParam id="342"  name="rotation">
            <InterpolatingParam id="343" interp="linr"  time="0/1" value="0" leadInLength="0/1"  />
            <InterpolatingParam id="344" interp="linr"  time="0/1" value="0" leadInLength="0/1"  />
            <InterpolatingParam id="345" interp="linr"  time="0/1" value="0" leadInLength="0/1"  />
           </VectorParam>
           <VectorParam id="346"  name="shear">
            <InterpolatingParam id="347" interp="linr"  time="0/1" value="0" leadInLength="0/1"  />
            <InterpolatingParam id="348" interp="linr"  time="0/1" value="0" leadInLength="0/1"  />
            <InterpolatingParam id="349" interp="linr"  time="0/1" value="0" leadInLength="0/1"  />
           </VectorParam>
           <VectorParam id="350"  name="scale">
            <InterpolatingParam id="351" interp="linr"  time="0/1" value="1" leadInLength="0/1"  />
            <InterpolatingParam id="352" interp="linr"  time="0/1" value="1" leadInLength="0/1"  />
            <InterpolatingParam id="353" interp="linr"  time="0/1" value="1" leadInLength="0/1"  />
           </VectorParam>
           <VectorParam id="354"  name="anchor">
            <InterpolatingParam id="355" interp="linr"  time="0/1" value="0" leadInLength="0/1"  />
            <InterpolatingParam id="356" interp="linr"  time="0/1" value="0" leadInLength="0/1"  />
            <InterpolatingParam id="357" interp="linr"  time="0/1" value="0" leadInLength="0/1"  />
           </VectorParam>
          </Transformer>
          <Parameters>
           <VectorParam id="358"  name="sourceCrop">
            <InterpolatingParam id="359" interp="linr"  time="0/1" value="0" leadInLength="0/1"  />
            <InterpolatingParam id="360" interp="linr"  time="0/1" value="0" leadInLength="0/1"  />
            <InterpolatingParam id="361" interp="linr"  time="0/1" value="0" leadInLength="0/1"  />
            <InterpolatingParam id="362" interp="linr"  time="0/1" value="0" leadInLength="0/1"  />
           </VectorParam>
           <VectorParam id="363"  name="geometryCrop">
            <InterpolatingParam id="364" interp="linr"  time="0/1" value="0" leadInLength="0/1"  />
            <InterpolatingParam id="365" interp="linr"  time="0/1" value="0" leadInLength="0/1"  />
            <InterpolatingParam id="366" interp="linr"  time="0/1" value="0" leadInLength="0/1"  />
            <InterpolatingParam id="367" interp="linr"  time="0/1" value="0" leadInLength="0/1"  />
           </VectorParam>
           <InterpolatingParam id="368" interp="linr"  time="0/1" value="1" leadInLength="0/1"  name="opacity"/>
          </Parameters>
          <Effects>
           <GenericEffect id="369" name = "VisualTransition" >
            <Parameters>
            <InterpolatingParam id="370" interp="linr"  time="0/1" value="0.5" leadInLength="0/1"   name="leftFramePercentage"/>
            <InterpolatingParam id="371" interp="linr"  time="0/1" value="0.5" leadInLength="0/1"   name="rightFramePercentage"/>
            <Parameter id="372"   name="visualEdgeModType">
             <Keyframes>
             <Keyframe id="373"  time="0/1" value="1" leadInLength="0/1"  />
             </Keyframes>
            </Parameter>
            <Parameter id="374"   name="visualTransitionType">
             <Keyframes>
             <Keyframe id="375"  time="0/1" value="CubeRotate" leadInLength="0/1"  />
             </Keyframes>
            </Parameter>
            </Parameters>
            <MetaData>
            </MetaData>
           </GenericEffect>
          </Effects>
          <Attributes>
           <Attribute id="376" value="" name="ident"/>
          </Attributes>
          <ExtraData>
           <Entry key="ZoomPanBin">
            <ZoomPanBin id="377"  >
             <ZoomPanKeyframes>
             </ZoomPanKeyframes>
            </ZoomPanBin>
           </Entry>
          </ExtraData>
         </ImageTransition>
         <MetaData>
          <entry key="WinSubProjectDisplayName" val=""/>
         </MetaData>
        </UnifiedMedia>
        <StitchedMedia id="378" start="332" duration="656" scalar="1/1" mediaStart="606/1" mediaDuration="656/1" minMediaStart="0/1" >
         <Transformer>
          <VectorParam id="379"  name="translation">
           <InterpolatingParam id="380" interp="linr"  >
            <Keyframes>
            <Keyframe id="381"  time="-9999999/1" value="0" leadInLength="0/1"  interpolater="leadin-linr"  />
            <Keyframe id="382"  time="340/1" value="179.61290322580652" leadInLength="14/1"  interpolater="leadin-linr"  />
            <Keyframe id="383"  time="342/1" value="185.80645161290329" leadInLength="1/1"  interpolater="leadin-linr"  />
            <Keyframe id="384"  time="401/1" value="221.5913978494624" leadInLength="1/1"  interpolater="leadin-linr"  />
            <Keyframe id="385"  time="423/1" value="320" leadInLength="22/1"  interpolater="leadin-linr"  />
            <Keyframe id="386"  time="655/1" value="147.69230769230762" leadInLength="30/1"  interpolater="leadin-linr"  />
            <Keyframe id="387"  time="762/1" value="320" leadInLength="30/1"  interpolater="leadin-linr"  />
            <Keyframe id="388"  time="997/1" value="190.83164300202839" leadInLength="30/1"  interpolater="leadin-linr"  />
            <Keyframe id="389"  time="1271/1" value="320" leadInLength="30/1"  interpolater="leadin-linr"  />
            </Keyframes>
           </InterpolatingParam>
           <InterpolatingParam id="390" interp="linr"  >
            <Keyframes>
            <Keyframe id="391"  time="-9999999/1" value="0" leadInLength="0/1"  interpolater="leadin-linr"  />
            <Keyframe id="392"  time="340/1" value="61.949820788530445" leadInLength="14/1"  interpolater="leadin-linr"  />
            <Keyframe id="393"  time="342/1" value="64.086021505376323" leadInLength="1/1"  interpolater="leadin-linr"  />
            <Keyframe id="394"  time="401/1" value="94.996415770609303" leadInLength="1/1"  interpolater="leadin-linr"  />
            <Keyframe id="395"  time="423/1" value="180" leadInLength="22/1"  interpolater="leadin-linr"  />
            <Keyframe id="396"  time="655/1" value="4.1002277904328253" leadInLength="30/1"  interpolater="leadin-linr"  />
            <Keyframe id="397"  time="762/1" value="-180" leadInLength="30/1"  interpolater="leadin-linr"  />
            <Keyframe id="398"  time="997/1" value="66.634615384615358" leadInLength="30/1"  interpolater="leadin-linr"  />
            <Keyframe id="399"  time="1271/1" value="-180" leadInLength="30/1"  interpolater="leadin-linr"  />
            </Keyframes>
           </InterpolatingParam>
           <InterpolatingParam id="400" interp="linr"  >
            <Keyframes>
            <Keyframe id="401"  time="-9999999/1" value="0" leadInLength="0/1"  interpolater="leadin-linr"  />
            <Keyframe id="402"  time="340/1" value="0" leadInLength="14/1"  interpolater="leadin-linr"  />
            <Keyframe id="403"  time="342/1" value="0" leadInLength="1/1"  interpolater="leadin-linr"  />
            <Keyframe id="404"  time="401/1" value="0" leadInLength="1/1"  interpolater="leadin-linr"  />
            <Keyframe id="405"  time="423/1" value="0" leadInLength="22/1"  interpolater="leadin-linr"  />
            <Keyframe id="406"  time="655/1" value="0" leadInLength="30/1"  interpolater="leadin-linr"  />
            <Keyframe id="407"  time="762/1" value="0" leadInLength="30/1"  interpolater="leadin-linr"  />
            <Keyframe id="408"  time="997/1" value="0" leadInLength="30/1"  interpolater="leadin-linr"  />
            <Keyframe id="409"  time="1271/1" value="0" leadInLength="30/1"  interpolater="leadin-linr"  />
            </Keyframes>
           </InterpolatingParam>
          </VectorParam>
          <VectorParam id="410"  name="rotation">
           <InterpolatingParam id="411" interp="linr"  >
            <Keyframes>
            <Keyframe id="412"  time="-9999999/1" value="0" leadInLength="0/1"  interpolater="leadin-linr"  />
            <Keyframe id="413"  time="340/1" value="0" leadInLength="14/1"  interpolater="leadin-linr"  />
            <Keyframe id="414"  time="342/1" value="0" leadInLength="1/1"  interpolater="leadin-linr"  />
            <Keyframe id="415"  time="401/1" value="0" leadInLength="1/1"  interpolater="leadin-linr"  />
            <Keyframe id="416"  time="423/1" value="0" leadInLength="22/1"  interpolater="leadin-linr"  />
            <Keyframe id="417"  time="655/1" value="0" leadInLength="30/1"  interpolater="leadin-linr"  />
            <Keyframe id="418"  time="762/1" value="0" leadInLength="30/1"  interpolater="leadin-linr"  />
            <Keyframe id="419"  time="997/1" value="0" leadInLength="30/1"  interpolater="leadin-linr"  />
            <Keyframe id="420"  time="1271/1" value="0" leadInLength="30/1"  interpolater="leadin-linr"  />
            </Keyframes>
           </InterpolatingParam>
           <InterpolatingParam id="421" interp="linr"  >
            <Keyframes>
            <Keyframe id="422"  time="-9999999/1" value="0" leadInLength="0/1"  interpolater="leadin-linr"  />
            <Keyframe id="423"  time="340/1" value="0" leadInLength="14/1"  interpolater="leadin-linr"  />
            <Keyframe id="424"  time="342/1" value="0" leadInLength="1/1"  interpolater="leadin-linr"  />
            <Keyframe id="425"  time="401/1" value="0" leadInLength="1/1"  interpolater="leadin-linr"  />
            <Keyframe id="426"  time="423/1" value="0" leadInLength="22/1"  interpolater="leadin-linr"  />
            <Keyframe id="427"  time="655/1" value="0" leadInLength="30/1"  interpolater="leadin-linr"  />
            <Keyframe id="428"  time="762/1" value="0" leadInLength="30/1"  interpolater="leadin-linr"  />
            <Keyframe id="429"  time="997/1" value="0" leadInLength="30/1"  interpolater="leadin-linr"  />
            <Keyframe id="430"  time="1271/1" value="0" leadInLength="30/1"  interpolater="leadin-linr"  />
            </Keyframes>
           </InterpolatingParam>
           <InterpolatingParam id="431" interp="linr"  >
            <Keyframes>
            <Keyframe id="432"  time="-9999999/1" value="0" leadInLength="0/1"  interpolater="leadin-linr"  />
            <Keyframe id="433"  time="340/1" value="0" leadInLength="14/1"  interpolater="leadin-linr"  />
            <Keyframe id="434"  time="342/1" value="0" leadInLength="1/1"  interpolater="leadin-linr"  />
            <Keyframe id="435"  time="401/1" value="0" leadInLength="1/1"  interpolater="leadin-linr"  />
            <Keyframe id="436"  time="423/1" value="0" leadInLength="22/1"  interpolater="leadin-linr"  />
            <Keyframe id="437"  time="655/1" value="0" leadInLength="30/1"  interpolater="leadin-linr"  />
            <Keyframe id="438"  time="762/1" value="0" leadInLength="30/1"  interpolater="leadin-linr"  />
            <Keyframe id="439"  time="997/1" value="0" leadInLength="30/1"  interpolater="leadin-linr"  />
            <Keyframe id="440"  time="1271/1" value="0" leadInLength="30/1"  interpolater="leadin-linr"  />
            </Keyframes>
           </InterpolatingParam>
          </VectorParam>
          <VectorParam id="441"  name="shear">
           <InterpolatingParam id="442" interp="linr"  >
            <Keyframes>
            <Keyframe id="443"  time="-9999999/1" value="0" leadInLength="0/1"  interpolater="leadin-linr"  />
            <Keyframe id="444"  time="340/1" value="0" leadInLength="14/1"  interpolater="leadin-linr"  />
            <Keyframe id="445"  time="342/1" value="0" leadInLength="1/1"  interpolater="leadin-linr"  />
            <Keyframe id="446"  time="401/1" value="0" leadInLength="1/1"  interpolater="leadin-linr"  />
            <Keyframe id="447"  time="423/1" value="0" leadInLength="22/1"  interpolater="leadin-linr"  />
            <Keyframe id="448"  time="655/1" value="0" leadInLength="30/1"  interpolater="leadin-linr"  />
            <Keyframe id="449"  time="762/1" value="0" leadInLength="30/1"  interpolater="leadin-linr"  />
            <Keyframe id="450"  time="997/1" value="0" leadInLength="30/1"  interpolater="leadin-linr"  />
            <Keyframe id="451"  time="1271/1" value="0" leadInLength="30/1"  interpolater="leadin-linr"  />
            </Keyframes>
           </InterpolatingParam>
           <InterpolatingParam id="452" interp="linr"  >
            <Keyframes>
            <Keyframe id="453"  time="-9999999/1" value="0" leadInLength="0/1"  interpolater="leadin-linr"  />
            <Keyframe id="454"  time="340/1" value="0" leadInLength="14/1"  interpolater="leadin-linr"  />
            <Keyframe id="455"  time="342/1" value="0" leadInLength="1/1"  interpolater="leadin-linr"  />
            <Keyframe id="456"  time="401/1" value="0" leadInLength="1/1"  interpolater="leadin-linr"  />
            <Keyframe id="457"  time="423/1" value="0" leadInLength="22/1"  interpolater="leadin-linr"  />
            <Keyframe id="458"  time="655/1" value="0" leadInLength="30/1"  interpolater="leadin-linr"  />
            <Keyframe id="459"  time="762/1" value="0" leadInLength="30/1"  interpolater="leadin-linr"  />
            <Keyframe id="460"  time="997/1" value="0" leadInLength="30/1"  interpolater="leadin-linr"  />
            <Keyframe id="461"  time="1271/1" value="0" leadInLength="30/1"  interpolater="leadin-linr"  />
            </Keyframes>
           </InterpolatingParam>
           <InterpolatingParam id="462" interp="linr"  >
            <Keyframes>
            <Keyframe id="463"  time="-9999999/1" value="0" leadInLength="0/1"  interpolater="leadin-linr"  />
            <Keyframe id="464"  time="340/1" value="0" leadInLength="14/1"  interpolater="leadin-linr"  />
            <Keyframe id="465"  time="342/1" value="0" leadInLength="1/1"  interpolater="leadin-linr"  />
            <Keyframe id="466"  time="401/1" value="0" leadInLength="1/1"  interpolater="leadin-linr"  />
            <Keyframe id="467"  time="423/1" value="0" leadInLength="22/1"  interpolater="leadin-linr"  />
            <Keyframe id="468"  time="655/1" value="0" leadInLength="30/1"  interpolater="leadin-linr"  />
            <Keyframe id="469"  time="762/1" value="0" leadInLength="30/1"  interpolater="leadin-linr"  />
            <Keyframe id="470"  time="997/1" value="0" leadInLength="30/1"  interpolater="leadin-linr"  />
            <Keyframe id="471"  time="1271/1" value="0" leadInLength="30/1"  interpolater="leadin-linr"  />
            </Keyframes>
           </InterpolatingParam>
          </VectorParam>
          <VectorParam id="472"  name="scale">
           <InterpolatingParam id="473" interp="linr"  >
            <Keyframes>
            <Keyframe id="474"  time="-9999999/1" value="0.66666666666666663" leadInLength="0/1"  interpolater="leadin-linr"  />
            <Keyframe id="475"  time="340/1" value="0.85376344086021505" leadInLength="14/1"  interpolater="leadin-linr"  />
            <Keyframe id="476"  time="342/1" value="0.86021505376344087" leadInLength="1/1"  interpolater="leadin-linr"  />
            <Keyframe id="477"  time="401/1" value="0.89749103942652342" leadInLength="1/1"  interpolater="leadin-linr"  />
            <Keyframe id="478"  time="423/1" value="1" leadInLength="22/1"  interpolater="leadin-linr"  />
            <Keyframe id="479"  time="655/1" value="0.82051282051282048" leadInLength="30/1"  interpolater="leadin-linr"  />
            <Keyframe id="480"  time="762/1" value="1" leadInLength="30/1"  interpolater="leadin-linr"  />
            <Keyframe id="481"  time="997/1" value="0.8654496281271129" leadInLength="30/1"  interpolater="leadin-linr"  />
            <Keyframe id="482"  time="1271/1" value="1" leadInLength="30/1"  interpolater="leadin-linr"  />
            </Keyframes>
           </InterpolatingParam>
           <InterpolatingParam id="483" interp="linr"  >
            <Keyframes>
            <Keyframe id="484"  time="-9999999/1" value="0.66666666666666663" leadInLength="0/1"  interpolater="leadin-linr"  />
            <Keyframe id="485"  time="340/1" value="0.85376344086021505" leadInLength="14/1"  interpolater="leadin-linr"  />
            <Keyframe id="486"  time="342/1" value="0.86021505376344087" leadInLength="1/1"  interpolater="leadin-linr"  />
            <Keyframe id="487"  time="401/1" value="0.89749103942652342" leadInLength="1/1"  interpolater="leadin-linr"  />
            <Keyframe id="488"  time="423/1" value="1" leadInLength="22/1"  interpolater="leadin-linr"  />
            <Keyframe id="489"  time="655/1" value="0.82004555808656032" leadInLength="30/1"  interpolater="leadin-linr"  />
            <Keyframe id="490"  time="762/1" value="1" leadInLength="30/1"  interpolater="leadin-linr"  />
            <Keyframe id="491"  time="997/1" value="0.86538461538461542" leadInLength="30/1"  interpolater="leadin-linr"  />
            <Keyframe id="492"  time="1271/1" value="1" leadInLength="30/1"  interpolater="leadin-linr"  />
            </Keyframes>
           </InterpolatingParam>
           <InterpolatingParam id="493" interp="linr"  >
            <Keyframes>
            <Keyframe id="494"  time="-9999999/1" value="1" leadInLength="0/1"  interpolater="leadin-linr"  />
            <Keyframe id="495"  time="340/1" value="1" leadInLength="14/1"  interpolater="leadin-linr"  />
            <Keyframe id="496"  time="342/1" value="1" leadInLength="1/1"  interpolater="leadin-linr"  />
            <Keyframe id="497"  time="401/1" value="1" leadInLength="1/1"  interpolater="leadin-linr"  />
            <Keyframe id="498"  time="423/1" value="1" leadInLength="22/1"  interpolater="leadin-linr"  />
            <Keyframe id="499"  time="655/1" value="1" leadInLength="30/1"  interpolater="leadin-linr"  />
            <Keyframe id="500"  time="762/1" value="1" leadInLength="30/1"  interpolater="leadin-linr"  />
            <Keyframe id="501"  time="997/1" value="1" leadInLength="30/1"  interpolater="leadin-linr"  />
            <Keyframe id="502"  time="1271/1" value="1" leadInLength="30/1"  interpolater="leadin-linr"  />
            </Keyframes>
           </InterpolatingParam>
          </VectorParam>
          <VectorParam id="503"  name="anchor">
           <InterpolatingParam id="504" interp="linr"  time="0/1" value="0" leadInLength="0/1"  />
           <InterpolatingParam id="505" interp="linr"  time="0/1" value="0" leadInLength="0/1"  />
           <InterpolatingParam id="506" interp="linr"  time="0/1" value="0" leadInLength="0/1"  />
          </VectorParam>
         </Transformer>
         <Parameters>
          <VectorParam id="507"  name="sourceCrop">
           <InterpolatingParam id="508" interp="linr"  time="0/1" value="0" leadInLength="0/1"  />
           <InterpolatingParam id="509" interp="linr"  time="0/1" value="0" leadInLength="0/1"  />
           <InterpolatingParam id="510" interp="linr"  time="0/1" value="0" leadInLength="0/1"  />
           <InterpolatingParam id="511" interp="linr"  time="0/1" value="0" leadInLength="0/1"  />
          </VectorParam>
          <VectorParam id="512"  name="geometryCrop">
           <InterpolatingParam id="513" interp="linr"  >
            <Keyframes>
            <Keyframe id="514"  time="-9999999/1" value="0" leadInLength="0/1"  interpolater="leadin-linr"  />
            <Keyframe id="515"  time="340/1" value="0" leadInLength="14/1"  interpolater="leadin-linr"  />
            <Keyframe id="516"  time="342/1" value="0" leadInLength="1/1"  interpolater="leadin-linr"  />
            <Keyframe id="517"  time="401/1" value="0" leadInLength="1/1"  interpolater="leadin-linr"  />
            <Keyframe id="518"  time="423/1" value="0" leadInLength="22/1"  interpolater="leadin-linr"  />
            <Keyframe id="519"  time="655/1" value="0" leadInLength="30/1"  interpolater="leadin-linr"  />
            <Keyframe id="520"  time="762/1" value="0" leadInLength="30/1"  interpolater="leadin-linr"  />
            <Keyframe id="521"  time="997/1" value="0" leadInLength="30/1"  interpolater="leadin-linr"  />
            <Keyframe id="522"  time="1271/1" value="0" leadInLength="30/1"  interpolater="leadin-linr"  />
            </Keyframes>
           </InterpolatingParam>
           <InterpolatingParam id="523" interp="linr"  >
            <Keyframes>
            <Keyframe id="524"  time="-9999999/1" value="0" leadInLength="0/1"  interpolater="leadin-linr"  />
            <Keyframe id="525"  time="340/1" value="0" leadInLength="14/1"  interpolater="leadin-linr"  />
            <Keyframe id="526"  time="342/1" value="0" leadInLength="1/1"  interpolater="leadin-linr"  />
            <Keyframe id="527"  time="401/1" value="0" leadInLength="1/1"  interpolater="leadin-linr"  />
            <Keyframe id="528"  time="423/1" value="0" leadInLength="22/1"  interpolater="leadin-linr"  />
            <Keyframe id="529"  time="655/1" value="0" leadInLength="30/1"  interpolater="leadin-linr"  />
            <Keyframe id="530"  time="762/1" value="0" leadInLength="30/1"  interpolater="leadin-linr"  />
            <Keyframe id="531"  time="997/1" value="0" leadInLength="30/1"  interpolater="leadin-linr"  />
            <Keyframe id="532"  time="1271/1" value="0" leadInLength="30/1"  interpolater="leadin-linr"  />
            </Keyframes>
           </InterpolatingParam>
           <InterpolatingParam id="533" interp="linr"  >
            <Keyframes>
            <Keyframe id="534"  time="-9999999/1" value="0" leadInLength="0/1"  interpolater="leadin-linr"  />
            <Keyframe id="535"  time="340/1" value="0" leadInLength="14/1"  interpolater="leadin-linr"  />
            <Keyframe id="536"  time="342/1" value="0" leadInLength="1/1"  interpolater="leadin-linr"  />
            <Keyframe id="537"  time="401/1" value="0" leadInLength="1/1"  interpolater="leadin-linr"  />
            <Keyframe id="538"  time="423/1" value="0" leadInLength="22/1"  interpolater="leadin-linr"  />
            <Keyframe id="539"  time="655/1" value="0" leadInLength="30/1"  interpolater="leadin-linr"  />
            <Keyframe id="540"  time="762/1" value="0" leadInLength="30/1"  interpolater="leadin-linr"  />
            <Keyframe id="541"  time="997/1" value="0" leadInLength="30/1"  interpolater="leadin-linr"  />
            <Keyframe id="542"  time="1271/1" value="0" leadInLength="30/1"  interpolater="leadin-linr"  />
            </Keyframes>
           </InterpolatingParam>
           <InterpolatingParam id="543" interp="linr"  >
            <Keyframes>
            <Keyframe id="544"  time="-9999999/1" value="0" leadInLength="0/1"  interpolater="leadin-linr"  />
            <Keyframe id="545"  time="340/1" value="0" leadInLength="14/1"  interpolater="leadin-linr"  />
            <Keyframe id="546"  time="342/1" value="0" leadInLength="1/1"  interpolater="leadin-linr"  />
            <Keyframe id="547"  time="401/1" value="0" leadInLength="1/1"  interpolater="leadin-linr"  />
            <Keyframe id="548"  time="423/1" value="0" leadInLength="22/1"  interpolater="leadin-linr"  />
            <Keyframe id="549"  time="655/1" value="0" leadInLength="30/1"  interpolater="leadin-linr"  />
            <Keyframe id="550"  time="762/1" value="0" leadInLength="30/1"  interpolater="leadin-linr"  />
            <Keyframe id="551"  time="997/1" value="0" leadInLength="30/1"  interpolater="leadin-linr"  />
            <Keyframe id="552"  time="1271/1" value="0" leadInLength="30/1"  interpolater="leadin-linr"  />
            </Keyframes>
           </InterpolatingParam>
          </VectorParam>
          <InterpolatingParam id="553" interp="linr"  name="opacity">
           <Keyframes>
           <Keyframe id="554"  time="-9999999/1" value="1" leadInLength="0/1"  interpolater="leadin-linr"  />
           <Keyframe id="555"  time="340/1" value="1" leadInLength="14/1"  interpolater="leadin-linr"  />
           <Keyframe id="556"  time="342/1" value="1" leadInLength="1/1"  interpolater="leadin-linr"  />
           <Keyframe id="557"  time="401/1" value="1" leadInLength="1/1"  interpolater="leadin-linr"  />
           <Keyframe id="558"  time="423/1" value="1" leadInLength="22/1"  interpolater="leadin-linr"  />
           <Keyframe id="559"  time="655/1" value="1" leadInLength="30/1"  interpolater="leadin-linr"  />
           <Keyframe id="560"  time="762/1" value="1" leadInLength="30/1"  interpolater="leadin-linr"  />
           <Keyframe id="561"  time="997/1" value="1" leadInLength="30/1"  interpolater="leadin-linr"  />
           <Keyframe id="562"  time="1271/1" value="1" leadInLength="30/1"  interpolater="leadin-linr"  />
           </Keyframes>
          </InterpolatingParam>
          <InterpolatingParam id="563" interp="linr"  time="0/1" value="1" leadInLength="0/1"  name="cursorOpacity"/>
          <InterpolatingParam id="564" interp="linr"  time="0/1" value="1" leadInLength="0/1"  name="cursorScale"/>
          <InterpolatingParam id="565" interp="linr"  name="volume">
           <Keyframes>
           <Keyframe id="566"  time="0/1" value="1" leadInLength="0/1"  />
           <Keyframe id="567"  time="996/1" value="1" leadInLength="0/1"  />
           <Keyframe id="568"  time="997/1" value="0" leadInLength="0/1"  />
           <Keyframe id="569"  time="1016/1" value="0" leadInLength="0/1"  />
           <Keyframe id="570"  time="1017/1" value="1" leadInLength="0/1"  />
           <Keyframe id="571"  time="1086/1" value="1" leadInLength="0/1"  />
           <Keyframe id="572"  time="1087/1" value="0" leadInLength="0/1"  />
           <Keyframe id="573"  time="1094/1" value="0" leadInLength="0/1"  />
           <Keyframe id="574"  time="1095/1" value="1" leadInLength="0/1"  />
           </Keyframes>
          </InterpolatingParam>
          <Parameter id="575"  name="captions"/>
         </Parameters>
         <Effects>
          <GenericEffect id="576" name = "CursorBaseEffectName" >
           <Parameters>
           <InterpolatingParam id="577" interp="linr"  time="-9999999/1" value="1" leadInLength="0/1"   name="cursorSize"/>
           <InterpolatingParam id="578" interp="linr"  time="-9999999/1" value="0" leadInLength="0/1"   name="highlightBlurRadius"/>
           <InterpolatingParam id="579" interp="linr"  time="-9999999/1" value="0" leadInLength="0/1"   name="highlightColorBlue"/>
           <InterpolatingParam id="580" interp="linr"  time="-9999999/1" value="255" leadInLength="0/1"   name="highlightColorGreen"/>
           <InterpolatingParam id="581" interp="linr"  time="-9999999/1" value="255" leadInLength="0/1"   name="highlightColorRed"/>
           <InterpolatingParam id="582" interp="linr"  time="-9999999/1" value="5" leadInLength="0/1"   name="highlightFeatherSize"/>
           <InterpolatingParam id="583" interp="linr"  time="-9999999/1" value="2" leadInLength="0/1"   name="highlightMagnification"/>
           <InterpolatingParam id="584" interp="linr"  time="-9999999/1" value="1" leadInLength="0/1"   name="highlightOpacity"/>
           <InterpolatingParam id="585" interp="linr"  time="-9999999/1" value="45" leadInLength="0/1"   name="highlightSize"/>
           <Parameter id="586"   name="highlightType">
            <Keyframes>
            <Keyframe id="587"  time="-9999999/1" value="0" leadInLength="0/1"  />
            </Keyframes>
           </Parameter>
           <InterpolatingParam id="588" interp="linr"  time="-9999999/1" value="0" leadInLength="0/1"   name="leftClickColorBlue"/>
           <InterpolatingParam id="589" interp="linr"  time="-9999999/1" value="0" leadInLength="0/1"   name="leftClickColorGreen"/>
           <InterpolatingParam id="590" interp="linr"  time="-9999999/1" value="255" leadInLength="0/1"   name="leftClickColorRed"/>
           <InterpolatingParam id="591" interp="linr"  time="-9999999/1" value="0.80000000000000004" leadInLength="0/1"   name="leftClickDuration"/>
           <InterpolatingParam id="592" interp="linr"  time="-9999999/1" value="20" leadInLength="0/1"   name="leftClickSize"/>
           <Parameter id="593"   name="leftClickSoundFilename">
            <Keyframes>
            <Keyframe id="594"  time="-9999999/1" value="" leadInLength="0/1"  />
            </Keyframes>
           </Parameter>
           <InterpolatingParam id="595" interp="linr"  time="-9999999/1" value="1" leadInLength="0/1"   name="leftClickSoundVolume"/>
           <Parameter id="596"   name="leftClickType">
            <Keyframes>
            <Keyframe id="597"  time="-9999999/1" value="0" leadInLength="0/1"  />
            </Keyframes>
           </Parameter>
           <InterpolatingParam id="598" interp="linr"  time="-9999999/1" value="1" leadInLength="0/1"   name="opacity"/>
           <InterpolatingParam id="599" interp="linr"  time="-9999999/1" value="255" leadInLength="0/1"   name="rightClickColorBlue"/>
           <InterpolatingParam id="600" interp="linr"  time="-9999999/1" value="0" leadInLength="0/1"   name="rightClickColorGreen"/>
           <InterpolatingParam id="601" interp="linr"  time="-9999999/1" value="0" leadInLength="0/1"   name="rightClickColorRed"/>
           <InterpolatingParam id="602" interp="linr"  time="-9999999/1" value="0.80000000000000004" leadInLength="0/1"   name="rightClickDuration"/>
           <InterpolatingParam id="603" interp="linr"  time="-9999999/1" value="20" leadInLength="0/1"   name="rightClickSize"/>
           <Parameter id="604"   name="rightClickSoundFilename">
            <Keyframes>
            <Keyframe id="605"  time="-9999999/1" value="" leadInLength="0/1"  />
            </Keyframes>
           </Parameter>
           <InterpolatingParam id="606" interp="linr"  time="-9999999/1" value="1" leadInLength="0/1"   name="rightClickSoundVolume"/>
           <Parameter id="607"   name="rightClickType">
            <Keyframes>
            <Keyframe id="608"  time="-9999999/1" value="0" leadInLength="0/1"  />
            </Keyframes>
           </Parameter>
           </Parameters>
           <MetaData>
            <entry key="effectIndex" val="0"/>
           </MetaData>
          </GenericEffect>
         </Effects>
         <Attributes>
          <Attribute id="609" value="" name="ident"/>
          <Attribute id="610" value="0" name="mixToMono"/>
         </Attributes>
         <MetaData>
          <entry key="AutoAppliedSmartFocus" val="False"/>
          <entry key="WinSubProjectDisplayName" val=""/>
         </MetaData>
         <ExtraData>
          <Entry key="ZoomPanBin">
           <ZoomPanBin id="611"  >
            <ZoomPanKeyframes>
             <ZoomPanKeyframe id="612" timeRangeEnd="-9999999/1" timeRangeDuration="0/1" interpolaterName="linr"  />
             <ZoomPanKeyframe id="613" timeRangeEnd="340/1" timeRangeDuration="14/1" interpolaterName="linr"  />
             <ZoomPanKeyframe id="614" timeRangeEnd="342/1" timeRangeDuration="1/1" interpolaterName="linr"  />
             <ZoomPanKeyframe id="615" timeRangeEnd="401/1" timeRangeDuration="1/1" interpolaterName="linr"  />
             <ZoomPanKeyframe id="616" timeRangeEnd="423/1" timeRangeDuration="22/1" interpolaterName="linr"  />
             <ZoomPanKeyframe id="617" timeRangeEnd="655/1" timeRangeDuration="30/1" interpolaterName="linr"  />
             <ZoomPanKeyframe id="618" timeRangeEnd="762/1" timeRangeDuration="30/1" interpolaterName="linr"  />
             <ZoomPanKeyframe id="619" timeRangeEnd="997/1" timeRangeDuration="30/1" interpolaterName="linr"  />
             <ZoomPanKeyframe id="620" timeRangeEnd="1271/1" timeRangeDuration="30/1" interpolaterName="linr"  />
            </ZoomPanKeyframes>
           </ZoomPanBin>
          </Entry>
          <Entry key="CursorEffectBin">
           <CursorEffectBin id="621"  >
            <CursorEffectKeyframes>
             <CursorEffectKeyframe id="622" timeRangeEnd="-9999999/1" timeRangeDuration="0/1" interpolaterName=""  />
            </CursorEffectKeyframes>
           </CursorEffectBin>
          </Entry>
         </ExtraData>
         <GenericTrack id="623"  >
          <Attributes>
           <Attribute id="624" value="" name="ident"/>
           <Attribute id="625" value="0" name="audioMuted"/>
           <Attribute id="626" value="0" name="videoHidden"/>
          </Attributes>
          <MetaData>
           <entry key="IsLocked" val="False"/>
           <entry key="WinTrackHeight" val="0"/>
          </MetaData>
          <Medias>
           <UnifiedMedia id="627"  >
            <AMFile id="628" start="0" duration="331" scalar="1/1" mediaStart="0/1" mediaDuration="331/1" trackNumber="1" src="4" channelNumber="0,1" >
             <Parameters>
              <InterpolatingParam id="629" interp="linr"  time="0/1" value="1" leadInLength="0/1"  name="volume"/>
              <Parameter id="630"  name="captions"/>
             </Parameters>
             <Attributes>
              <Attribute id="631" value="" name="ident"/>
              <Attribute id="632" value="44100" name="sampleRate"/>
              <Attribute id="633" value="16" name="bitDepth"/>
              <Attribute id="634" value="1" name="gain"/>
              <Attribute id="635" value="0" name="mixToMono"/>
             </Attributes>
            </AMFile>
            <ScreenVMFile id="636" start="0" duration="331" scalar="1/1" mediaStart="0/1" mediaDuration="331/1" trackNumber="0" src="4" >
             <Transformer>
              <VectorParam id="637"  name="translation">
               <InterpolatingParam id="638" interp="linr"  time="-9999999/1" value="0" leadInLength="0/1"  />
               <InterpolatingParam id="639" interp="linr"  time="-9999999/1" value="0" leadInLength="0/1"  />
               <InterpolatingParam id="640" interp="linr"  time="-9999999/1" value="0" leadInLength="0/1"  />
              </VectorParam>
              <VectorParam id="641"  name="rotation">
               <InterpolatingParam id="642" interp="linr"  time="-9999999/1" value="0" leadInLength="0/1"  />
               <InterpolatingParam id="643" interp="linr"  time="-9999999/1" value="0" leadInLength="0/1"  />
               <InterpolatingParam id="644" interp="linr"  time="-9999999/1" value="0" leadInLength="0/1"  />
              </VectorParam>
              <VectorParam id="645"  name="shear">
               <InterpolatingParam id="646" interp="linr"  time="-9999999/1" value="0" leadInLength="0/1"  />
               <InterpolatingParam id="647" interp="linr"  time="-9999999/1" value="0" leadInLength="0/1"  />
               <InterpolatingParam id="648" interp="linr"  time="-9999999/1" value="0" leadInLength="0/1"  />
              </VectorParam>
              <VectorParam id="649"  name="scale">
               <InterpolatingParam id="650" interp="linr"  time="-9999999/1" value="1" leadInLength="0/1"  />
               <InterpolatingParam id="651" interp="linr"  time="-9999999/1" value="1" leadInLength="0/1"  />
               <InterpolatingParam id="652" interp="linr"  time="-9999999/1" value="1" leadInLength="0/1"  />
              </VectorParam>
              <VectorParam id="653"  name="anchor">
               <InterpolatingParam id="654" interp="linr"  time="0/1" value="0" leadInLength="0/1"  />
               <InterpolatingParam id="655" interp="linr"  time="0/1" value="0" leadInLength="0/1"  />
               <InterpolatingParam id="656" interp="linr"  time="0/1" value="0" leadInLength="0/1"  />
              </VectorParam>
             </Transformer>
             <Parameters>
              <VectorParam id="657"  name="sourceCrop">
               <InterpolatingParam id="658" interp="linr"  time="0/1" value="0" leadInLength="0/1"  />
               <InterpolatingParam id="659" interp="linr"  time="0/1" value="0" leadInLength="0/1"  />
               <InterpolatingParam id="660" interp="linr"  time="0/1" value="0" leadInLength="0/1"  />
               <InterpolatingParam id="661" interp="linr"  time="0/1" value="0" leadInLength="0/1"  />
              </VectorParam>
              <VectorParam id="662"  name="geometryCrop">
               <InterpolatingParam id="663" interp="linr"  time="-9999999/1" value="0" leadInLength="0/1"  />
               <InterpolatingParam id="664" interp="linr"  time="-9999999/1" value="0" leadInLength="0/1"  />
               <InterpolatingParam id="665" interp="linr"  time="-9999999/1" value="0" leadInLength="0/1"  />
               <InterpolatingParam id="666" interp="linr"  time="-9999999/1" value="0" leadInLength="0/1"  />
              </VectorParam>
              <InterpolatingParam id="667" interp="linr"  time="-9999999/1" value="1" leadInLength="0/1"  name="opacity"/>
              <InterpolatingParam id="668" interp="linr"  time="0/1" value="0" leadInLength="0/1"  name="cursorOpacity"/>
              <InterpolatingParam id="669" interp="linr"  time="0/1" value="0" leadInLength="0/1"  name="cursorScale"/>
             </Parameters>
             <Attributes>
              <Attribute id="670" value="" name="ident"/>
             </Attributes>
             <ExtraData>
              <Entry key="ZoomPanBin">
               <ZoomPanBin id="671"  >
                <ZoomPanKeyframes>
                 <ZoomPanKeyframe id="672" timeRangeEnd="-9999999/1" timeRangeDuration="0/1" interpolaterName=""  />
                </ZoomPanKeyframes>
               </ZoomPanBin>
              </Entry>
              <Entry key="CursorEffectBin">
               <CursorEffectBin id="673"  >
                <CursorEffectKeyframes>
                </CursorEffectKeyframes>
               </CursorEffectBin>
              </Entry>
             </ExtraData>
            </ScreenVMFile>
            <MetaData>
             <entry key="AutoAppliedSmartFocus" val="True"/>
             <entry key="WinSubProjectDisplayName" val=""/>
            </MetaData>
           </UnifiedMedia>
           <UnifiedMedia id="674"  >
            <AMFile id="675" start="331" duration="398" scalar="1/1" mediaStart="941/1" mediaDuration="398/1" trackNumber="1" src="4" channelNumber="0,1" >
             <Parameters>
              <InterpolatingParam id="676" interp="linr"  time="0/1" value="1" leadInLength="0/1"  name="volume"/>
              <Parameter id="677"  name="captions"/>
             </Parameters>
             <Attributes>
              <Attribute id="678" value="" name="ident"/>
              <Attribute id="679" value="44100" name="sampleRate"/>
              <Attribute id="680" value="16" name="bitDepth"/>
              <Attribute id="681" value="1" name="gain"/>
              <Attribute id="682" value="0" name="mixToMono"/>
             </Attributes>
            </AMFile>
            <ScreenVMFile id="683" start="331" duration="398" scalar="1/1" mediaStart="941/1" mediaDuration="398/1" trackNumber="0" src="4" >
             <Transformer>
              <VectorParam id="684"  name="translation">
               <InterpolatingParam id="685" interp="linr"  time="-9999999/1" value="0" leadInLength="0/1"  />
               <InterpolatingParam id="686" interp="linr"  time="-9999999/1" value="0" leadInLength="0/1"  />
               <InterpolatingParam id="687" interp="linr"  time="-9999999/1" value="0" leadInLength="0/1"  />
              </VectorParam>
              <VectorParam id="688"  name="rotation">
               <InterpolatingParam id="689" interp="linr"  time="-9999999/1" value="0" leadInLength="0/1"  />
               <InterpolatingParam id="690" interp="linr"  time="-9999999/1" value="0" leadInLength="0/1"  />
               <InterpolatingParam id="691" interp="linr"  time="-9999999/1" value="0" leadInLength="0/1"  />
              </VectorParam>
              <VectorParam id="692"  name="shear">
               <InterpolatingParam id="693" interp="linr"  time="-9999999/1" value="0" leadInLength="0/1"  />
               <InterpolatingParam id="694" interp="linr"  time="-9999999/1" value="0" leadInLength="0/1"  />
               <InterpolatingParam id="695" interp="linr"  time="-9999999/1" value="0" leadInLength="0/1"  />
              </VectorParam>
              <VectorParam id="696"  name="scale">
               <InterpolatingParam id="697" interp="linr"  time="-9999999/1" value="1" leadInLength="0/1"  />
               <InterpolatingParam id="698" interp="linr"  time="-9999999/1" value="1" leadInLength="0/1"  />
               <InterpolatingParam id="699" interp="linr"  time="-9999999/1" value="1" leadInLength="0/1"  />
              </VectorParam>
              <VectorParam id="700"  name="anchor">
               <InterpolatingParam id="701" interp="linr"  time="0/1" value="0" leadInLength="0/1"  />
               <InterpolatingParam id="702" interp="linr"  time="0/1" value="0" leadInLength="0/1"  />
               <InterpolatingParam id="703" interp="linr"  time="0/1" value="0" leadInLength="0/1"  />
              </VectorParam>
             </Transformer>
             <Parameters>
              <VectorParam id="704"  name="sourceCrop">
               <InterpolatingParam id="705" interp="linr"  time="0/1" value="0" leadInLength="0/1"  />
               <InterpolatingParam id="706" interp="linr"  time="0/1" value="0" leadInLength="0/1"  />
               <InterpolatingParam id="707" interp="linr"  time="0/1" value="0" leadInLength="0/1"  />
               <InterpolatingParam id="708" interp="linr"  time="0/1" value="0" leadInLength="0/1"  />
              </VectorParam>
              <VectorParam id="709"  name="geometryCrop">
               <InterpolatingParam id="710" interp="linr"  time="-9999999/1" value="0" leadInLength="0/1"  />
               <InterpolatingParam id="711" interp="linr"  time="-9999999/1" value="0" leadInLength="0/1"  />
               <InterpolatingParam id="712" interp="linr"  time="-9999999/1" value="0" leadInLength="0/1"  />
               <InterpolatingParam id="713" interp="linr"  time="-9999999/1" value="0" leadInLength="0/1"  />
              </VectorParam>
              <InterpolatingParam id="714" interp="linr"  time="-9999999/1" value="1" leadInLength="0/1"  name="opacity"/>
              <InterpolatingParam id="715" interp="linr"  time="0/1" value="0" leadInLength="0/1"  name="cursorOpacity"/>
              <InterpolatingParam id="716" interp="linr"  time="0/1" value="0" leadInLength="0/1"  name="cursorScale"/>
             </Parameters>
             <Attributes>
              <Attribute id="717" value="" name="ident"/>
             </Attributes>
             <ExtraData>
              <Entry key="ZoomPanBin">
               <ZoomPanBin id="718"  >
                <ZoomPanKeyframes>
                 <ZoomPanKeyframe id="719" timeRangeEnd="-9999999/1" timeRangeDuration="0/1" interpolaterName=""  />
                </ZoomPanKeyframes>
               </ZoomPanBin>
              </Entry>
              <Entry key="CursorEffectBin">
               <CursorEffectBin id="720"  >
                <CursorEffectKeyframes>
                </CursorEffectKeyframes>
               </CursorEffectBin>
              </Entry>
             </ExtraData>
            </ScreenVMFile>
            <MetaData>
             <entry key="AutoAppliedSmartFocus" val="True"/>
             <entry key="WinSubProjectDisplayName" val=""/>
            </MetaData>
           </UnifiedMedia>
           <UnifiedMedia id="721"  >
            <AMFile id="722" start="729" duration="3510" scalar="1/1" mediaStart="1426/1" mediaDuration="3510/1" trackNumber="1" src="4" channelNumber="0,1" >
             <Parameters>
              <InterpolatingParam id="723" interp="linr"  time="0/1" value="1" leadInLength="0/1"  name="volume"/>
              <Parameter id="724"  name="captions"/>
             </Parameters>
             <Attributes>
              <Attribute id="725" value="" name="ident"/>
              <Attribute id="726" value="44100" name="sampleRate"/>
              <Attribute id="727" value="16" name="bitDepth"/>
              <Attribute id="728" value="1" name="gain"/>
              <Attribute id="729" value="0" name="mixToMono"/>
             </Attributes>
            </AMFile>
            <ScreenVMFile id="730" start="729" duration="3510" scalar="1/1" mediaStart="1426/1" mediaDuration="3510/1" trackNumber="0" src="4" >
             <Transformer>
              <VectorParam id="731"  name="translation">
               <InterpolatingParam id="732" interp="linr"  time="-9999999/1" value="0" leadInLength="0/1"  />
               <InterpolatingParam id="733" interp="linr"  time="-9999999/1" value="0" leadInLength="0/1"  />
               <InterpolatingParam id="734" interp="linr"  time="-9999999/1" value="0" leadInLength="0/1"  />
              </VectorParam>
              <VectorParam id="735"  name="rotation">
               <InterpolatingParam id="736" interp="linr"  time="-9999999/1" value="0" leadInLength="0/1"  />
               <InterpolatingParam id="737" interp="linr"  time="-9999999/1" value="0" leadInLength="0/1"  />
               <InterpolatingParam id="738" interp="linr"  time="-9999999/1" value="0" leadInLength="0/1"  />
              </VectorParam>
              <VectorParam id="739"  name="shear">
               <InterpolatingParam id="740" interp="linr"  time="-9999999/1" value="0" leadInLength="0/1"  />
               <InterpolatingParam id="741" interp="linr"  time="-9999999/1" value="0" leadInLength="0/1"  />
               <InterpolatingParam id="742" interp="linr"  time="-9999999/1" value="0" leadInLength="0/1"  />
              </VectorParam>
              <VectorParam id="743"  name="scale">
               <InterpolatingParam id="744" interp="linr"  time="-9999999/1" value="1" leadInLength="0/1"  />
               <InterpolatingParam id="745" interp="linr"  time="-9999999/1" value="1" leadInLength="0/1"  />
               <InterpolatingParam id="746" interp="linr"  time="-9999999/1" value="1" leadInLength="0/1"  />
              </VectorParam>
              <VectorParam id="747"  name="anchor">
               <InterpolatingParam id="748" interp="linr"  time="0/1" value="0" leadInLength="0/1"  />
               <InterpolatingParam id="749" interp="linr"  time="0/1" value="0" leadInLength="0/1"  />
               <InterpolatingParam id="750" interp="linr"  time="0/1" value="0" leadInLength="0/1"  />
              </VectorParam>
             </Transformer>
             <Parameters>
              <VectorParam id="751"  name="sourceCrop">
               <InterpolatingParam id="752" interp="linr"  time="0/1" value="0" leadInLength="0/1"  />
               <InterpolatingParam id="753" interp="linr"  time="0/1" value="0" leadInLength="0/1"  />
               <InterpolatingParam id="754" interp="linr"  time="0/1" value="0" leadInLength="0/1"  />
               <InterpolatingParam id="755" interp="linr"  time="0/1" value="0" leadInLength="0/1"  />
              </VectorParam>
              <VectorParam id="756"  name="geometryCrop">
               <InterpolatingParam id="757" interp="linr"  time="-9999999/1" value="0" leadInLength="0/1"  />
               <InterpolatingParam id="758" interp="linr"  time="-9999999/1" value="0" leadInLength="0/1"  />
               <InterpolatingParam id="759" interp="linr"  time="-9999999/1" value="0" leadInLength="0/1"  />
               <InterpolatingParam id="760" interp="linr"  time="-9999999/1" value="0" leadInLength="0/1"  />
              </VectorParam>
              <InterpolatingParam id="761" interp="linr"  time="-9999999/1" value="1" leadInLength="0/1"  name="opacity"/>
              <InterpolatingParam id="762" interp="linr"  time="0/1" value="0" leadInLength="0/1"  name="cursorOpacity"/>
              <InterpolatingParam id="763" interp="linr"  time="0/1" value="0" leadInLength="0/1"  name="cursorScale"/>
             </Parameters>
             <Attributes>
              <Attribute id="764" value="" name="ident"/>
             </Attributes>
             <ExtraData>
              <Entry key="ZoomPanBin">
               <ZoomPanBin id="765"  >
                <ZoomPanKeyframes>
                 <ZoomPanKeyframe id="766" timeRangeEnd="-9999999/1" timeRangeDuration="0/1" interpolaterName=""  />
                </ZoomPanKeyframes>
               </ZoomPanBin>
              </Entry>
              <Entry key="CursorEffectBin">
               <CursorEffectBin id="767"  >
                <CursorEffectKeyframes>
                </CursorEffectKeyframes>
               </CursorEffectBin>
              </Entry>
             </ExtraData>
            </ScreenVMFile>
            <MetaData>
             <entry key="AutoAppliedSmartFocus" val="True"/>
             <entry key="WinSubProjectDisplayName" val=""/>
            </MetaData>
           </UnifiedMedia>
          </Medias>
         </GenericTrack>
        </StitchedMedia>
        <UnifiedMedia id="768"  >
         <AudioTransition id="769" start="988" duration="15" >
          <Parameters>
           <InterpolatingParam id="770" interp="linr"  time="0/1" value="1" leadInLength="0/1"  name="volume"/>
           <Parameter id="771"  name="captions"/>
          </Parameters>
          <Effects>
           <GenericEffect id="772" name = "AudioTransition" >
            <Parameters>
            <Parameter id="773"   name="audioEdgeModType">
             <Keyframes>
             <Keyframe id="774"  time="0/1" value="0" leadInLength="0/1"  />
             </Keyframes>
            </Parameter>
            <Parameter id="775"   name="audioTransitionType">
             <Keyframes>
             <Keyframe id="776"  time="0/1" value="" leadInLength="0/1"  />
             </Keyframes>
            </Parameter>
            </Parameters>
            <MetaData>
            </MetaData>
           </GenericEffect>
          </Effects>
          <Attributes>
           <Attribute id="777" value="" name="ident"/>
           <Attribute id="778" value="0" name="sampleRate"/>
           <Attribute id="779" value="0" name="bitDepth"/>
           <Attribute id="780" value="1" name="gain"/>
           <Attribute id="781" value="0" name="mixToMono"/>
          </Attributes>
         </AudioTransition>
         <ImageTransition id="782" start="988" duration="15" >
          <Transformer>
           <VectorParam id="783"  name="translation">
            <InterpolatingParam id="784" interp="linr"  time="0/1" value="0" leadInLength="0/1"  />
            <InterpolatingParam id="785" interp="linr"  time="0/1" value="0" leadInLength="0/1"  />
            <InterpolatingParam id="786" interp="linr"  time="0/1" value="0" leadInLength="0/1"  />
           </VectorParam>
           <VectorParam id="787"  name="rotation">
            <InterpolatingParam id="788" interp="linr"  time="0/1" value="0" leadInLength="0/1"  />
            <InterpolatingParam id="789" interp="linr"  time="0/1" value="0" leadInLength="0/1"  />
            <InterpolatingParam id="790" interp="linr"  time="0/1" value="0" leadInLength="0/1"  />
           </VectorParam>
           <VectorParam id="791"  name="shear">
            <InterpolatingParam id="792" interp="linr"  time="0/1" value="0" leadInLength="0/1"  />
            <InterpolatingParam id="793" interp="linr"  time="0/1" value="0" leadInLength="0/1"  />
            <InterpolatingParam id="794" interp="linr"  time="0/1" value="0" leadInLength="0/1"  />
           </VectorParam>
           <VectorParam id="795"  name="scale">
            <InterpolatingParam id="796" interp="linr"  time="0/1" value="1" leadInLength="0/1"  />
            <InterpolatingParam id="797" interp="linr"  time="0/1" value="1" leadInLength="0/1"  />
            <InterpolatingParam id="798" interp="linr"  time="0/1" value="1" leadInLength="0/1"  />
           </VectorParam>
           <VectorParam id="799"  name="anchor">
            <InterpolatingParam id="800" interp="linr"  time="0/1" value="0" leadInLength="0/1"  />
            <InterpolatingParam id="801" interp="linr"  time="0/1" value="0" leadInLength="0/1"  />
            <InterpolatingParam id="802" interp="linr"  time="0/1" value="0" leadInLength="0/1"  />
           </VectorParam>
          </Transformer>
          <Parameters>
           <VectorParam id="803"  name="sourceCrop">
            <InterpolatingParam id="804" interp="linr"  time="0/1" value="0" leadInLength="0/1"  />
            <InterpolatingParam id="805" interp="linr"  time="0/1" value="0" leadInLength="0/1"  />
            <InterpolatingParam id="806" interp="linr"  time="0/1" value="0" leadInLength="0/1"  />
            <InterpolatingParam id="807" interp="linr"  time="0/1" value="0" leadInLength="0/1"  />
           </VectorParam>
           <VectorParam id="808"  name="geometryCrop">
            <InterpolatingParam id="809" interp="linr"  time="0/1" value="0" leadInLength="0/1"  />
            <InterpolatingParam id="810" interp="linr"  time="0/1" value="0" leadInLength="0/1"  />
            <InterpolatingParam id="811" interp="linr"  time="0/1" value="0" leadInLength="0/1"  />
            <InterpolatingParam id="812" interp="linr"  time="0/1" value="0" leadInLength="0/1"  />
           </VectorParam>
           <InterpolatingParam id="813" interp="linr"  time="0/1" value="1" leadInLength="0/1"  name="opacity"/>
          </Parameters>
          <Effects>
           <GenericEffect id="814" name = "VisualTransition" >
            <Parameters>
            <InterpolatingParam id="815" interp="linr"  time="0/1" value="0.5" leadInLength="0/1"   name="leftFramePercentage"/>
            <InterpolatingParam id="816" interp="linr"  time="0/1" value="0.5" leadInLength="0/1"   name="rightFramePercentage"/>
            <Parameter id="817"   name="visualEdgeModType">
             <Keyframes>
             <Keyframe id="818"  time="0/1" value="2" leadInLength="0/1"  />
             </Keyframes>
            </Parameter>
            <Parameter id="819"   name="visualTransitionType">
             <Keyframes>
             <Keyframe id="820"  time="0/1" value="CubeRotate" leadInLength="0/1"  />
             </Keyframes>
            </Parameter>
            </Parameters>
            <MetaData>
            </MetaData>
           </GenericEffect>
          </Effects>
          <Attributes>
           <Attribute id="821" value="" name="ident"/>
          </Attributes>
          <ExtraData>
           <Entry key="ZoomPanBin">
            <ZoomPanBin id="822"  >
             <ZoomPanKeyframes>
             </ZoomPanKeyframes>
            </ZoomPanBin>
           </Entry>
          </ExtraData>
         </ImageTransition>
         <MetaData>
          <entry key="WinSubProjectDisplayName" val=""/>
         </MetaData>
        </UnifiedMedia>
        <UnifiedMedia id="823"  >
         <AudioTransition id="824" start="1003" duration="15" >
          <Parameters>
           <InterpolatingParam id="825" interp="linr"  time="0/1" value="1" leadInLength="0/1"  name="volume"/>
           <Parameter id="826"  name="captions"/>
          </Parameters>
          <Effects>
           <GenericEffect id="827" name = "AudioTransition" >
            <Parameters>
            <Parameter id="828"   name="audioEdgeModType">
             <Keyframes>
             <Keyframe id="829"  time="0/1" value="0" leadInLength="0/1"  />
             </Keyframes>
            </Parameter>
            <Parameter id="830"   name="audioTransitionType">
             <Keyframes>
             <Keyframe id="831"  time="0/1" value="" leadInLength="0/1"  />
             </Keyframes>
            </Parameter>
            </Parameters>
            <MetaData>
            </MetaData>
           </GenericEffect>
          </Effects>
          <Attributes>
           <Attribute id="832" value="" name="ident"/>
           <Attribute id="833" value="0" name="sampleRate"/>
           <Attribute id="834" value="0" name="bitDepth"/>
           <Attribute id="835" value="1" name="gain"/>
           <Attribute id="836" value="0" name="mixToMono"/>
          </Attributes>
         </AudioTransition>
         <ImageTransition id="837" start="1003" duration="15" >
          <Transformer>
           <VectorParam id="838"  name="translation">
            <InterpolatingParam id="839" interp="linr"  time="0/1" value="0" leadInLength="0/1"  />
            <InterpolatingParam id="840" interp="linr"  time="0/1" value="0" leadInLength="0/1"  />
            <InterpolatingParam id="841" interp="linr"  time="0/1" value="0" leadInLength="0/1"  />
           </VectorParam>
           <VectorParam id="842"  name="rotation">
            <InterpolatingParam id="843" interp="linr"  time="0/1" value="0" leadInLength="0/1"  />
            <InterpolatingParam id="844" interp="linr"  time="0/1" value="0" leadInLength="0/1"  />
            <InterpolatingParam id="845" interp="linr"  time="0/1" value="0" leadInLength="0/1"  />
           </VectorParam>
           <VectorParam id="846"  name="shear">
            <InterpolatingParam id="847" interp="linr"  time="0/1" value="0" leadInLength="0/1"  />
            <InterpolatingParam id="848" interp="linr"  time="0/1" value="0" leadInLength="0/1"  />
            <InterpolatingParam id="849" interp="linr"  time="0/1" value="0" leadInLength="0/1"  />
           </VectorParam>
           <VectorParam id="850"  name="scale">
            <InterpolatingParam id="851" interp="linr"  time="0/1" value="1" leadInLength="0/1"  />
            <InterpolatingParam id="852" interp="linr"  time="0/1" value="1" leadInLength="0/1"  />
            <InterpolatingParam id="853" interp="linr"  time="0/1" value="1" leadInLength="0/1"  />
           </VectorParam>
           <VectorParam id="854"  name="anchor">
            <InterpolatingParam id="855" interp="linr"  time="0/1" value="0" leadInLength="0/1"  />
            <InterpolatingParam id="856" interp="linr"  time="0/1" value="0" leadInLength="0/1"  />
            <InterpolatingParam id="857" interp="linr"  time="0/1" value="0" leadInLength="0/1"  />
           </VectorParam>
          </Transformer>
          <Parameters>
           <VectorParam id="858"  name="sourceCrop">
            <InterpolatingParam id="859" interp="linr"  time="0/1" value="0" leadInLength="0/1"  />
            <InterpolatingParam id="860" interp="linr"  time="0/1" value="0" leadInLength="0/1"  />
            <InterpolatingParam id="861" interp="linr"  time="0/1" value="0" leadInLength="0/1"  />
            <InterpolatingParam id="862" interp="linr"  time="0/1" value="0" leadInLength="0/1"  />
           </VectorParam>
           <VectorParam id="863"  name="geometryCrop">
            <InterpolatingParam id="864" interp="linr"  time="0/1" value="0" leadInLength="0/1"  />
            <InterpolatingParam id="865" interp="linr"  time="0/1" value="0" leadInLength="0/1"  />
            <InterpolatingParam id="866" interp="linr"  time="0/1" value="0" leadInLength="0/1"  />
            <InterpolatingParam id="867" interp="linr"  time="0/1" value="0" leadInLength="0/1"  />
           </VectorParam>
           <InterpolatingParam id="868" interp="linr"  time="0/1" value="1" leadInLength="0/1"  name="opacity"/>
          </Parameters>
          <Effects>
           <GenericEffect id="869" name = "VisualTransition" >
            <Parameters>
            <InterpolatingParam id="870" interp="linr"  time="0/1" value="0.5" leadInLength="0/1"   name="leftFramePercentage"/>
            <InterpolatingParam id="871" interp="linr"  time="0/1" value="0.5" leadInLength="0/1"   name="rightFramePercentage"/>
            <Parameter id="872"   name="visualEdgeModType">
             <Keyframes>
             <Keyframe id="873"  time="0/1" value="1" leadInLength="0/1"  />
             </Keyframes>
            </Parameter>
            <Parameter id="874"   name="visualTransitionType">
             <Keyframes>
             <Keyframe id="875"  time="0/1" value="CubeRotate" leadInLength="0/1"  />
             </Keyframes>
            </Parameter>
            </Parameters>
            <MetaData>
            </MetaData>
           </GenericEffect>
          </Effects>
          <Attributes>
           <Attribute id="876" value="" name="ident"/>
          </Attributes>
          <ExtraData>
           <Entry key="ZoomPanBin">
            <ZoomPanBin id="877"  >
             <ZoomPanKeyframes>
             </ZoomPanKeyframes>
            </ZoomPanBin>
           </Entry>
          </ExtraData>
         </ImageTransition>
         <MetaData>
          <entry key="WinSubProjectDisplayName" val=""/>
         </MetaData>
        </UnifiedMedia>
        <StitchedMedia id="878" start="1018" duration="947" scalar="1/1" mediaStart="2133/1" mediaDuration="947/1" minMediaStart="0/1" >
         <Transformer>
          <VectorParam id="879"  name="translation">
           <InterpolatingParam id="880" interp="linr"  >
            <Keyframes>
            <Keyframe id="881"  time="-9999999/1" value="320" leadInLength="0/1"  interpolater="leadin-linr"  />
            <Keyframe id="882"  time="2310/1" value="320" leadInLength="30/1"  interpolater="leadin-linr"  />
            <Keyframe id="883"  time="2788/1" value="704.00000000009629" leadInLength="23/1"  interpolater="leadin-linr"  />
            <Keyframe id="884"  time="3086/1" value="320" leadInLength="30/1"  interpolater="leadin-linr"  />
            </Keyframes>
           </InterpolatingParam>
           <InterpolatingParam id="885" interp="linr"  >
            <Keyframes>
            <Keyframe id="886"  time="-9999999/1" value="-180" leadInLength="0/1"  interpolater="leadin-linr"  />
            <Keyframe id="887"  time="2310/1" value="180" leadInLength="30/1"  interpolater="leadin-linr"  />
            <Keyframe id="888"  time="2788/1" value="-389.81132075475568" leadInLength="23/1"  interpolater="leadin-linr"  />
            <Keyframe id="889"  time="3086/1" value="-180" leadInLength="30/1"  interpolater="leadin-linr"  />
            </Keyframes>
           </InterpolatingParam>
           <InterpolatingParam id="890" interp="linr"  >
            <Keyframes>
            <Keyframe id="891"  time="-9999999/1" value="0" leadInLength="0/1"  interpolater="leadin-linr"  />
            <Keyframe id="892"  time="2310/1" value="0" leadInLength="30/1"  interpolater="leadin-linr"  />
            <Keyframe id="893"  time="2788/1" value="0" leadInLength="23/1"  interpolater="leadin-linr"  />
            <Keyframe id="894"  time="3086/1" value="0" leadInLength="30/1"  interpolater="leadin-linr"  />
            </Keyframes>
           </InterpolatingParam>
          </VectorParam>
          <VectorParam id="895"  name="rotation">
           <InterpolatingParam id="896" interp="linr"  >
            <Keyframes>
            <Keyframe id="897"  time="-9999999/1" value="0" leadInLength="0/1"  interpolater="leadin-linr"  />
            <Keyframe id="898"  time="2310/1" value="0" leadInLength="30/1"  interpolater="leadin-linr"  />
            <Keyframe id="899"  time="2788/1" value="0" leadInLength="23/1"  interpolater="leadin-linr"  />
            <Keyframe id="900"  time="3086/1" value="0" leadInLength="30/1"  interpolater="leadin-linr"  />
            </Keyframes>
           </InterpolatingParam>
           <InterpolatingParam id="901" interp="linr"  >
            <Keyframes>
            <Keyframe id="902"  time="-9999999/1" value="0" leadInLength="0/1"  interpolater="leadin-linr"  />
            <Keyframe id="903"  time="2310/1" value="0" leadInLength="30/1"  interpolater="leadin-linr"  />
            <Keyframe id="904"  time="2788/1" value="0" leadInLength="23/1"  interpolater="leadin-linr"  />
            <Keyframe id="905"  time="3086/1" value="0" leadInLength="30/1"  interpolater="leadin-linr"  />
            </Keyframes>
           </InterpolatingParam>
           <InterpolatingParam id="906" interp="linr"  >
            <Keyframes>
            <Keyframe id="907"  time="-9999999/1" value="0" leadInLength="0/1"  interpolater="leadin-linr"  />
            <Keyframe id="908"  time="2310/1" value="0" leadInLength="30/1"  interpolater="leadin-linr"  />
            <Keyframe id="909"  time="2788/1" value="0.034906585039886591" leadInLength="23/1"  interpolater="leadin-linr"  />
            <Keyframe id="910"  time="3086/1" value="0" leadInLength="30/1"  interpolater="leadin-linr"  />
            </Keyframes>
           </InterpolatingParam>
          </VectorParam>
          <VectorParam id="911"  name="shear">
           <InterpolatingParam id="912" interp="linr"  >
            <Keyframes>
            <Keyframe id="913"  time="-9999999/1" value="0" leadInLength="0/1"  interpolater="leadin-linr"  />
            <Keyframe id="914"  time="2310/1" value="0" leadInLength="30/1"  interpolater="leadin-linr"  />
            <Keyframe id="915"  time="2788/1" value="0" leadInLength="23/1"  interpolater="leadin-linr"  />
            <Keyframe id="916"  time="3086/1" value="0" leadInLength="30/1"  interpolater="leadin-linr"  />
            </Keyframes>
           </InterpolatingParam>
           <InterpolatingParam id="917" interp="linr"  >
            <Keyframes>
            <Keyframe id="918"  time="-9999999/1" value="0" leadInLength="0/1"  interpolater="leadin-linr"  />
            <Keyframe id="919"  time="2310/1" value="0" leadInLength="30/1"  interpolater="leadin-linr"  />
            <Keyframe id="920"  time="2788/1" value="0" leadInLength="23/1"  interpolater="leadin-linr"  />
            <Keyframe id="921"  time="3086/1" value="0" leadInLength="30/1"  interpolater="leadin-linr"  />
            </Keyframes>
           </InterpolatingParam>
           <InterpolatingParam id="922" interp="linr"  >
            <Keyframes>
            <Keyframe id="923"  time="-9999999/1" value="0" leadInLength="0/1"  interpolater="leadin-linr"  />
            <Keyframe id="924"  time="2310/1" value="0" leadInLength="30/1"  interpolater="leadin-linr"  />
            <Keyframe id="925"  time="2788/1" value="0" leadInLength="23/1"  interpolater="leadin-linr"  />
            <Keyframe id="926"  time="3086/1" value="0" leadInLength="30/1"  interpolater="leadin-linr"  />
            </Keyframes>
           </InterpolatingParam>
          </VectorParam>
          <VectorParam id="927"  name="scale">
           <InterpolatingParam id="928" interp="linr"  >
            <Keyframes>
            <Keyframe id="929"  time="-9999999/1" value="1" leadInLength="0/1"  interpolater="leadin-linr"  />
            <Keyframe id="930"  time="2310/1" value="1" leadInLength="30/1"  interpolater="leadin-linr"  />
            <Keyframe id="931"  time="2788/1" value="1.3999999999999999" leadInLength="23/1"  interpolater="leadin-linr"  />
            <Keyframe id="932"  time="3086/1" value="1" leadInLength="30/1"  interpolater="leadin-linr"  />
            </Keyframes>
           </InterpolatingParam>
           <InterpolatingParam id="933" interp="linr"  >
            <Keyframes>
            <Keyframe id="934"  time="-9999999/1" value="1" leadInLength="0/1"  interpolater="leadin-linr"  />
            <Keyframe id="935"  time="2310/1" value="1" leadInLength="30/1"  interpolater="leadin-linr"  />
            <Keyframe id="936"  time="2788/1" value="1.3999999999999999" leadInLength="23/1"  interpolater="leadin-linr"  />
            <Keyframe id="937"  time="3086/1" value="1" leadInLength="30/1"  interpolater="leadin-linr"  />
            </Keyframes>
           </InterpolatingParam>
           <InterpolatingParam id="938" interp="linr"  >
            <Keyframes>
            <Keyframe id="939"  time="-9999999/1" value="1" leadInLength="0/1"  interpolater="leadin-linr"  />
            <Keyframe id="940"  time="2310/1" value="1" leadInLength="30/1"  interpolater="leadin-linr"  />
            <Keyframe id="941"  time="2788/1" value="1" leadInLength="23/1"  interpolater="leadin-linr"  />
            <Keyframe id="942"  time="3086/1" value="1" leadInLength="30/1"  interpolater="leadin-linr"  />
            </Keyframes>
           </InterpolatingParam>
          </VectorParam>
          <VectorParam id="943"  name="anchor">
           <InterpolatingParam id="944" interp="linr"  time="0/1" value="0" leadInLength="0/1"  />
           <InterpolatingParam id="945" interp="linr"  time="0/1" value="0" leadInLength="0/1"  />
           <InterpolatingParam id="946" interp="linr"  time="0/1" value="0" leadInLength="0/1"  />
          </VectorParam>
         </Transformer>
         <Parameters>
          <VectorParam id="947"  name="sourceCrop">
           <InterpolatingParam id="948" interp="linr"  time="0/1" value="0" leadInLength="0/1"  />
           <InterpolatingParam id="949" interp="linr"  time="0/1" value="0" leadInLength="0/1"  />
           <InterpolatingParam id="950" interp="linr"  time="0/1" value="0" leadInLength="0/1"  />
           <InterpolatingParam id="951" interp="linr"  time="0/1" value="0" leadInLength="0/1"  />
          </VectorParam>
          <VectorParam id="952"  name="geometryCrop">
           <InterpolatingParam id="953" interp="linr"  >
            <Keyframes>
            <Keyframe id="954"  time="-9999999/1" value="0" leadInLength="0/1"  interpolater="leadin-linr"  />
            <Keyframe id="955"  time="2310/1" value="0" leadInLength="30/1"  interpolater="leadin-linr"  />
            <Keyframe id="956"  time="2788/1" value="0" leadInLength="23/1"  interpolater="leadin-linr"  />
            <Keyframe id="957"  time="3086/1" value="0" leadInLength="30/1"  interpolater="leadin-linr"  />
            </Keyframes>
           </InterpolatingParam>
           <InterpolatingParam id="958" interp="linr"  >
            <Keyframes>
            <Keyframe id="959"  time="-9999999/1" value="0" leadInLength="0/1"  interpolater="leadin-linr"  />
            <Keyframe id="960"  time="2310/1" value="0" leadInLength="30/1"  interpolater="leadin-linr"  />
            <Keyframe id="961"  time="2788/1" value="0" leadInLength="23/1"  interpolater="leadin-linr"  />
            <Keyframe id="962"  time="3086/1" value="0" leadInLength="30/1"  interpolater="leadin-linr"  />
            </Keyframes>
           </InterpolatingParam>
           <InterpolatingParam id="963" interp="linr"  >
            <Keyframes>
            <Keyframe id="964"  time="-9999999/1" value="0" leadInLength="0/1"  interpolater="leadin-linr"  />
            <Keyframe id="965"  time="2310/1" value="0" leadInLength="30/1"  interpolater="leadin-linr"  />
            <Keyframe id="966"  time="2788/1" value="0" leadInLength="23/1"  interpolater="leadin-linr"  />
            <Keyframe id="967"  time="3086/1" value="0" leadInLength="30/1"  interpolater="leadin-linr"  />
            </Keyframes>
           </InterpolatingParam>
           <InterpolatingParam id="968" interp="linr"  >
            <Keyframes>
            <Keyframe id="969"  time="-9999999/1" value="0" leadInLength="0/1"  interpolater="leadin-linr"  />
            <Keyframe id="970"  time="2310/1" value="0" leadInLength="30/1"  interpolater="leadin-linr"  />
            <Keyframe id="971"  time="2788/1" value="0" leadInLength="23/1"  interpolater="leadin-linr"  />
            <Keyframe id="972"  time="3086/1" value="0" leadInLength="30/1"  interpolater="leadin-linr"  />
            </Keyframes>
           </InterpolatingParam>
          </VectorParam>
          <InterpolatingParam id="973" interp="linr"  name="opacity">
           <Keyframes>
           <Keyframe id="974"  time="-9999999/1" value="1" leadInLength="0/1"  interpolater="leadin-linr"  />
           <Keyframe id="975"  time="2310/1" value="1" leadInLength="30/1"  interpolater="leadin-linr"  />
           <Keyframe id="976"  time="2788/1" value="1" leadInLength="23/1"  interpolater="leadin-linr"  />
           <Keyframe id="977"  time="3086/1" value="1" leadInLength="30/1"  interpolater="leadin-linr"  />
           </Keyframes>
          </InterpolatingParam>
          <InterpolatingParam id="978" interp="linr"  time="0/1" value="1" leadInLength="0/1"  name="cursorOpacity"/>
          <InterpolatingParam id="979" interp="linr"  time="0/1" value="1" leadInLength="0/1"  name="cursorScale"/>
          <InterpolatingParam id="980" interp="linr"  name="volume">
           <Keyframes>
           <Keyframe id="981"  time="0/1" value="1" leadInLength="0/1"  />
           <Keyframe id="982"  time="2118/1" value="1" leadInLength="0/1"  />
           <Keyframe id="983"  time="2145/1" value="1" leadInLength="0/1"  />
           <Keyframe id="984"  time="2146/1" value="0" leadInLength="0/1"  />
           <Keyframe id="985"  time="2168/1" value="0" leadInLength="0/1"  />
           <Keyframe id="986"  time="2169/1" value="1" leadInLength="0/1"  />
           <Keyframe id="987"  time="2226/1" value="1" leadInLength="0/1"  />
           <Keyframe id="988"  time="2227/1" value="0" leadInLength="0/1"  />
           <Keyframe id="989"  time="2246/1" value="0" leadInLength="0/1"  />
           <Keyframe id="990"  time="2247/1" value="1" leadInLength="0/1"  />
           <Keyframe id="991"  time="2395/1" value="1" leadInLength="0/1"  />
           <Keyframe id="992"  time="2396/1" value="0" leadInLength="0/1"  />
           <Keyframe id="993"  time="2488/1" value="0" leadInLength="0/1"  />
           <Keyframe id="994"  time="2518/1" value="1" leadInLength="0/1"  />
           <Keyframe id="995"  time="2869/1" value="1" leadInLength="0/1"  />
           <Keyframe id="996"  time="2870/1" value="0" leadInLength="0/1"  />
           <Keyframe id="997"  time="2892/1" value="0" leadInLength="0/1"  />
           <Keyframe id="998"  time="2893/1" value="1" leadInLength="0/1"  />
           <Keyframe id="999"  time="3071/1" value="1" leadInLength="0/1"  />
           <Keyframe id="1000"  time="3072/1" value="0" leadInLength="0/1"  />
           <Keyframe id="1001"  time="3109/1" value="0" leadInLength="0/1"  />
           <Keyframe id="1002"  time="3110/1" value="1" leadInLength="0/1"  />
           </Keyframes>
          </InterpolatingParam>
          <Parameter id="1003"  name="captions"/>
         </Parameters>
         <Effects>
          <GenericEffect id="1004" name = "CursorBaseEffectName" >
           <Parameters>
           <InterpolatingParam id="1005" interp="linr"  time="-9999999/1" value="1" leadInLength="0/1"   name="cursorSize"/>
           <InterpolatingParam id="1006" interp="linr"  time="-9999999/1" value="0" leadInLength="0/1"   name="highlightBlurRadius"/>
           <InterpolatingParam id="1007" interp="linr"  time="-9999999/1" value="0" leadInLength="0/1"   name="highlightColorBlue"/>
           <InterpolatingParam id="1008" interp="linr"  time="-9999999/1" value="255" leadInLength="0/1"   name="highlightColorGreen"/>
           <InterpolatingParam id="1009" interp="linr"  time="-9999999/1" value="255" leadInLength="0/1"   name="highlightColorRed"/>
           <InterpolatingParam id="1010" interp="linr"  time="-9999999/1" value="5" leadInLength="0/1"   name="highlightFeatherSize"/>
           <InterpolatingParam id="1011" interp="linr"  time="-9999999/1" value="2" leadInLength="0/1"   name="highlightMagnification"/>
           <InterpolatingParam id="1012" interp="linr"  time="-9999999/1" value="1" leadInLength="0/1"   name="highlightOpacity"/>
           <InterpolatingParam id="1013" interp="linr"  time="-9999999/1" value="45" leadInLength="0/1"   name="highlightSize"/>
           <Parameter id="1014"   name="highlightType">
            <Keyframes>
            <Keyframe id="1015"  time="-9999999/1" value="0" leadInLength="0/1"  />
            </Keyframes>
           </Parameter>
           <InterpolatingParam id="1016" interp="linr"  time="-9999999/1" value="0" leadInLength="0/1"   name="leftClickColorBlue"/>
           <InterpolatingParam id="1017" interp="linr"  time="-9999999/1" value="0" leadInLength="0/1"   name="leftClickColorGreen"/>
           <InterpolatingParam id="1018" interp="linr"  time="-9999999/1" value="255" leadInLength="0/1"   name="leftClickColorRed"/>
           <InterpolatingParam id="1019" interp="linr"  time="-9999999/1" value="0.80000000000000004" leadInLength="0/1"   name="leftClickDuration"/>
           <InterpolatingParam id="1020" interp="linr"  time="-9999999/1" value="20" leadInLength="0/1"   name="leftClickSize"/>
           <Parameter id="1021"   name="leftClickSoundFilename">
            <Keyframes>
            <Keyframe id="1022"  time="-9999999/1" value="" leadInLength="0/1"  />
            </Keyframes>
           </Parameter>
           <InterpolatingParam id="1023" interp="linr"  time="-9999999/1" value="1" leadInLength="0/1"   name="leftClickSoundVolume"/>
           <Parameter id="1024"   name="leftClickType">
            <Keyframes>
            <Keyframe id="1025"  time="-9999999/1" value="0" leadInLength="0/1"  />
            </Keyframes>
           </Parameter>
           <InterpolatingParam id="1026" interp="linr"  time="-9999999/1" value="1" leadInLength="0/1"   name="opacity"/>
           <InterpolatingParam id="1027" interp="linr"  time="-9999999/1" value="255" leadInLength="0/1"   name="rightClickColorBlue"/>
           <InterpolatingParam id="1028" interp="linr"  time="-9999999/1" value="0" leadInLength="0/1"   name="rightClickColorGreen"/>
           <InterpolatingParam id="1029" interp="linr"  time="-9999999/1" value="0" leadInLength="0/1"   name="rightClickColorRed"/>
           <InterpolatingParam id="1030" interp="linr"  time="-9999999/1" value="0.80000000000000004" leadInLength="0/1"   name="rightClickDuration"/>
           <InterpolatingParam id="1031" interp="linr"  time="-9999999/1" value="20" leadInLength="0/1"   name="rightClickSize"/>
           <Parameter id="1032"   name="rightClickSoundFilename">
            <Keyframes>
            <Keyframe id="1033"  time="-9999999/1" value="" leadInLength="0/1"  />
            </Keyframes>
           </Parameter>
           <InterpolatingParam id="1034" interp="linr"  time="-9999999/1" value="1" leadInLength="0/1"   name="rightClickSoundVolume"/>
           <Parameter id="1035"   name="rightClickType">
            <Keyframes>
            <Keyframe id="1036"  time="-9999999/1" value="0" leadInLength="0/1"  />
            </Keyframes>
           </Parameter>
           </Parameters>
           <MetaData>
            <entry key="effectIndex" val="0"/>
           </MetaData>
          </GenericEffect>
         </Effects>
         <Attributes>
          <Attribute id="1037" value="" name="ident"/>
          <Attribute id="1038" value="0" name="mixToMono"/>
         </Attributes>
         <MetaData>
          <entry key="AutoAppliedSmartFocus" val="False"/>
          <entry key="WinSubProjectDisplayName" val=""/>
         </MetaData>
         <ExtraData>
          <Entry key="ZoomPanBin">
           <ZoomPanBin id="1039"  >
            <ZoomPanKeyframes>
             <ZoomPanKeyframe id="1040" timeRangeEnd="-9999999/1" timeRangeDuration="0/1" interpolaterName="linr"  />
             <ZoomPanKeyframe id="1041" timeRangeEnd="2310/1" timeRangeDuration="30/1" interpolaterName="linr"  />
             <ZoomPanKeyframe id="1042" timeRangeEnd="3086/1" timeRangeDuration="30/1" interpolaterName="linr"  />
             <ZoomPanKeyframe id="1043" timeRangeEnd="2788/1" timeRangeDuration="23/1" interpolaterName="linr"  />
            </ZoomPanKeyframes>
           </ZoomPanBin>
          </Entry>
          <Entry key="CursorEffectBin">
           <CursorEffectBin id="1044"  >
            <CursorEffectKeyframes>
             <CursorEffectKeyframe id="1045" timeRangeEnd="-9999999/1" timeRangeDuration="0/1" interpolaterName=""  />
            </CursorEffectKeyframes>
           </CursorEffectBin>
          </Entry>
         </ExtraData>
         <GenericTrack id="1046"  >
          <Attributes>
           <Attribute id="1047" value="" name="ident"/>
           <Attribute id="1048" value="0" name="audioMuted"/>
           <Attribute id="1049" value="0" name="videoHidden"/>
          </Attributes>
          <MetaData>
           <entry key="IsLocked" val="False"/>
           <entry key="WinTrackHeight" val="0"/>
          </MetaData>
          <Medias>
           <UnifiedMedia id="1050"  >
            <AMFile id="1051" start="0" duration="2249" scalar="1/1" mediaStart="0/1" mediaDuration="2249/1" trackNumber="1" src="4" channelNumber="0,1" >
             <Parameters>
              <InterpolatingParam id="1052" interp="linr"  time="0/1" value="1" leadInLength="0/1"  name="volume"/>
              <Parameter id="1053"  name="captions"/>
             </Parameters>
             <Attributes>
              <Attribute id="1054" value="" name="ident"/>
              <Attribute id="1055" value="44100" name="sampleRate"/>
              <Attribute id="1056" value="16" name="bitDepth"/>
              <Attribute id="1057" value="1" name="gain"/>
              <Attribute id="1058" value="0" name="mixToMono"/>
             </Attributes>
            </AMFile>
            <ScreenVMFile id="1059" start="0" duration="2249" scalar="1/1" mediaStart="0/1" mediaDuration="2249/1" trackNumber="0" src="4" >
             <Transformer>
              <VectorParam id="1060"  name="translation">
               <InterpolatingParam id="1061" interp="linr"  time="-9999999/1" value="0" leadInLength="0/1"  />
               <InterpolatingParam id="1062" interp="linr"  time="-9999999/1" value="0" leadInLength="0/1"  />
               <InterpolatingParam id="1063" interp="linr"  time="-9999999/1" value="0" leadInLength="0/1"  />
              </VectorParam>
              <VectorParam id="1064"  name="rotation">
               <InterpolatingParam id="1065" interp="linr"  time="-9999999/1" value="0" leadInLength="0/1"  />
               <InterpolatingParam id="1066" interp="linr"  time="-9999999/1" value="0" leadInLength="0/1"  />
               <InterpolatingParam id="1067" interp="linr"  time="-9999999/1" value="0" leadInLength="0/1"  />
              </VectorParam>
              <VectorParam id="1068"  name="shear">
               <InterpolatingParam id="1069" interp="linr"  time="-9999999/1" value="0" leadInLength="0/1"  />
               <InterpolatingParam id="1070" interp="linr"  time="-9999999/1" value="0" leadInLength="0/1"  />
               <InterpolatingParam id="1071" interp="linr"  time="-9999999/1" value="0" leadInLength="0/1"  />
              </VectorParam>
              <VectorParam id="1072"  name="scale">
               <InterpolatingParam id="1073" interp="linr"  time="-9999999/1" value="1" leadInLength="0/1"  />
               <InterpolatingParam id="1074" interp="linr"  time="-9999999/1" value="1" leadInLength="0/1"  />
               <InterpolatingParam id="1075" interp="linr"  time="-9999999/1" value="1" leadInLength="0/1"  />
              </VectorParam>
              <VectorParam id="1076"  name="anchor">
               <InterpolatingParam id="1077" interp="linr"  time="0/1" value="0" leadInLength="0/1"  />
               <InterpolatingParam id="1078" interp="linr"  time="0/1" value="0" leadInLength="0/1"  />
               <InterpolatingParam id="1079" interp="linr"  time="0/1" value="0" leadInLength="0/1"  />
              </VectorParam>
             </Transformer>
             <Parameters>
              <VectorParam id="1080"  name="sourceCrop">
               <InterpolatingParam id="1081" interp="linr"  time="0/1" value="0" leadInLength="0/1"  />
               <InterpolatingParam id="1082" interp="linr"  time="0/1" value="0" leadInLength="0/1"  />
               <InterpolatingParam id="1083" interp="linr"  time="0/1" value="0" leadInLength="0/1"  />
               <InterpolatingParam id="1084" interp="linr"  time="0/1" value="0" leadInLength="0/1"  />
              </VectorParam>
              <VectorParam id="1085"  name="geometryCrop">
               <InterpolatingParam id="1086" interp="linr"  time="-9999999/1" value="0" leadInLength="0/1"  />
               <InterpolatingParam id="1087" interp="linr"  time="-9999999/1" value="0" leadInLength="0/1"  />
               <InterpolatingParam id="1088" interp="linr"  time="-9999999/1" value="0" leadInLength="0/1"  />
               <InterpolatingParam id="1089" interp="linr"  time="-9999999/1" value="0" leadInLength="0/1"  />
              </VectorParam>
              <InterpolatingParam id="1090" interp="linr"  time="-9999999/1" value="1" leadInLength="0/1"  name="opacity"/>
              <InterpolatingParam id="1091" interp="linr"  time="0/1" value="0" leadInLength="0/1"  name="cursorOpacity"/>
              <InterpolatingParam id="1092" interp="linr"  time="0/1" value="0" leadInLength="0/1"  name="cursorScale"/>
             </Parameters>
             <Attributes>
              <Attribute id="1093" value="" name="ident"/>
             </Attributes>
             <ExtraData>
              <Entry key="ZoomPanBin">
               <ZoomPanBin id="1094"  >
                <ZoomPanKeyframes>
                 <ZoomPanKeyframe id="1095" timeRangeEnd="-9999999/1" timeRangeDuration="0/1" interpolaterName=""  />
                </ZoomPanKeyframes>
               </ZoomPanBin>
              </Entry>
              <Entry key="CursorEffectBin">
               <CursorEffectBin id="1096"  >
                <CursorEffectKeyframes>
                </CursorEffectKeyframes>
               </CursorEffectBin>
              </Entry>
             </ExtraData>
            </ScreenVMFile>
            <MetaData>
             <entry key="AutoAppliedSmartFocus" val="True"/>
             <entry key="WinSubProjectDisplayName" val=""/>
            </MetaData>
           </UnifiedMedia>
           <UnifiedMedia id="1097"  >
            <AMFile id="1098" start="2249" duration="161" scalar="1/1" mediaStart="2394/1" mediaDuration="161/1" trackNumber="1" src="4" channelNumber="0,1" >
             <Parameters>
              <InterpolatingParam id="1099" interp="linr"  time="0/1" value="1" leadInLength="0/1"  name="volume"/>
              <Parameter id="1100"  name="captions"/>
             </Parameters>
             <Attributes>
              <Attribute id="1101" value="" name="ident"/>
              <Attribute id="1102" value="44100" name="sampleRate"/>
              <Attribute id="1103" value="16" name="bitDepth"/>
              <Attribute id="1104" value="1" name="gain"/>
              <Attribute id="1105" value="0" name="mixToMono"/>
             </Attributes>
            </AMFile>
            <ScreenVMFile id="1106" start="2249" duration="161" scalar="1/1" mediaStart="2394/1" mediaDuration="161/1" trackNumber="0" src="4" >
             <Transformer>
              <VectorParam id="1107"  name="translation">
               <InterpolatingParam id="1108" interp="linr"  time="-9999999/1" value="0" leadInLength="0/1"  />
               <InterpolatingParam id="1109" interp="linr"  time="-9999999/1" value="0" leadInLength="0/1"  />
               <InterpolatingParam id="1110" interp="linr"  time="-9999999/1" value="0" leadInLength="0/1"  />
              </VectorParam>
              <VectorParam id="1111"  name="rotation">
               <InterpolatingParam id="1112" interp="linr"  time="-9999999/1" value="0" leadInLength="0/1"  />
               <InterpolatingParam id="1113" interp="linr"  time="-9999999/1" value="0" leadInLength="0/1"  />
               <InterpolatingParam id="1114" interp="linr"  time="-9999999/1" value="0" leadInLength="0/1"  />
              </VectorParam>
              <VectorParam id="1115"  name="shear">
               <InterpolatingParam id="1116" interp="linr"  time="-9999999/1" value="0" leadInLength="0/1"  />
               <InterpolatingParam id="1117" interp="linr"  time="-9999999/1" value="0" leadInLength="0/1"  />
               <InterpolatingParam id="1118" interp="linr"  time="-9999999/1" value="0" leadInLength="0/1"  />
              </VectorParam>
              <VectorParam id="1119"  name="scale">
               <InterpolatingParam id="1120" interp="linr"  time="-9999999/1" value="1" leadInLength="0/1"  />
               <InterpolatingParam id="1121" interp="linr"  time="-9999999/1" value="1" leadInLength="0/1"  />
               <InterpolatingParam id="1122" interp="linr"  time="-9999999/1" value="1" leadInLength="0/1"  />
              </VectorParam>
              <VectorParam id="1123"  name="anchor">
               <InterpolatingParam id="1124" interp="linr"  time="0/1" value="0" leadInLength="0/1"  />
               <InterpolatingParam id="1125" interp="linr"  time="0/1" value="0" leadInLength="0/1"  />
               <InterpolatingParam id="1126" interp="linr"  time="0/1" value="0" leadInLength="0/1"  />
              </VectorParam>
             </Transformer>
             <Parameters>
              <VectorParam id="1127"  name="sourceCrop">
               <InterpolatingParam id="1128" interp="linr"  time="0/1" value="0" leadInLength="0/1"  />
               <InterpolatingParam id="1129" interp="linr"  time="0/1" value="0" leadInLength="0/1"  />
               <InterpolatingParam id="1130" interp="linr"  time="0/1" value="0" leadInLength="0/1"  />
               <InterpolatingParam id="1131" interp="linr"  time="0/1" value="0" leadInLength="0/1"  />
              </VectorParam>
              <VectorParam id="1132"  name="geometryCrop">
               <InterpolatingParam id="1133" interp="linr"  time="-9999999/1" value="0" leadInLength="0/1"  />
               <InterpolatingParam id="1134" interp="linr"  time="-9999999/1" value="0" leadInLength="0/1"  />
               <InterpolatingParam id="1135" interp="linr"  time="-9999999/1" value="0" leadInLength="0/1"  />
               <InterpolatingParam id="1136" interp="linr"  time="-9999999/1" value="0" leadInLength="0/1"  />
              </VectorParam>
              <InterpolatingParam id="1137" interp="linr"  time="-9999999/1" value="1" leadInLength="0/1"  name="opacity"/>
              <InterpolatingParam id="1138" interp="linr"  time="0/1" value="0" leadInLength="0/1"  name="cursorOpacity"/>
              <InterpolatingParam id="1139" interp="linr"  time="0/1" value="0" leadInLength="0/1"  name="cursorScale"/>
             </Parameters>
             <Attributes>
              <Attribute id="1140" value="" name="ident"/>
             </Attributes>
             <ExtraData>
              <Entry key="ZoomPanBin">
               <ZoomPanBin id="1141"  >
                <ZoomPanKeyframes>
                 <ZoomPanKeyframe id="1142" timeRangeEnd="-9999999/1" timeRangeDuration="0/1" interpolaterName=""  />
                </ZoomPanKeyframes>
               </ZoomPanBin>
              </Entry>
              <Entry key="CursorEffectBin">
               <CursorEffectBin id="1143"  >
                <CursorEffectKeyframes>
                </CursorEffectKeyframes>
               </CursorEffectBin>
              </Entry>
             </ExtraData>
            </ScreenVMFile>
            <MetaData>
             <entry key="AutoAppliedSmartFocus" val="True"/>
             <entry key="WinSubProjectDisplayName" val=""/>
            </MetaData>
           </UnifiedMedia>
           <UnifiedMedia id="1144"  >
            <AMFile id="1145" start="2410" duration="93" scalar="1/1" mediaStart="3128/1" mediaDuration="93/1" trackNumber="1" src="4" channelNumber="0,1" >
             <Parameters>
              <InterpolatingParam id="1146" interp="linr"  time="0/1" value="1" leadInLength="0/1"  name="volume"/>
              <Parameter id="1147"  name="captions"/>
             </Parameters>
             <Attributes>
              <Attribute id="1148" value="" name="ident"/>
              <Attribute id="1149" value="44100" name="sampleRate"/>
              <Attribute id="1150" value="16" name="bitDepth"/>
              <Attribute id="1151" value="1" name="gain"/>
              <Attribute id="1152" value="0" name="mixToMono"/>
             </Attributes>
            </AMFile>
            <ScreenVMFile id="1153" start="2410" duration="93" scalar="1/1" mediaStart="3128/1" mediaDuration="93/1" trackNumber="0" src="4" >
             <Transformer>
              <VectorParam id="1154"  name="translation">
               <InterpolatingParam id="1155" interp="linr"  time="-9999999/1" value="0" leadInLength="0/1"  />
               <InterpolatingParam id="1156" interp="linr"  time="-9999999/1" value="0" leadInLength="0/1"  />
               <InterpolatingParam id="1157" interp="linr"  time="-9999999/1" value="0" leadInLength="0/1"  />
              </VectorParam>
              <VectorParam id="1158"  name="rotation">
               <InterpolatingParam id="1159" interp="linr"  time="-9999999/1" value="0" leadInLength="0/1"  />
               <InterpolatingParam id="1160" interp="linr"  time="-9999999/1" value="0" leadInLength="0/1"  />
               <InterpolatingParam id="1161" interp="linr"  time="-9999999/1" value="0" leadInLength="0/1"  />
              </VectorParam>
              <VectorParam id="1162"  name="shear">
               <InterpolatingParam id="1163" interp="linr"  time="-9999999/1" value="0" leadInLength="0/1"  />
               <InterpolatingParam id="1164" interp="linr"  time="-9999999/1" value="0" leadInLength="0/1"  />
               <InterpolatingParam id="1165" interp="linr"  time="-9999999/1" value="0" leadInLength="0/1"  />
              </VectorParam>
              <VectorParam id="1166"  name="scale">
               <InterpolatingParam id="1167" interp="linr"  time="-9999999/1" value="1" leadInLength="0/1"  />
               <InterpolatingParam id="1168" interp="linr"  time="-9999999/1" value="1" leadInLength="0/1"  />
               <InterpolatingParam id="1169" interp="linr"  time="-9999999/1" value="1" leadInLength="0/1"  />
              </VectorParam>
              <VectorParam id="1170"  name="anchor">
               <InterpolatingParam id="1171" interp="linr"  time="0/1" value="0" leadInLength="0/1"  />
               <InterpolatingParam id="1172" interp="linr"  time="0/1" value="0" leadInLength="0/1"  />
               <InterpolatingParam id="1173" interp="linr"  time="0/1" value="0" leadInLength="0/1"  />
              </VectorParam>
             </Transformer>
             <Parameters>
              <VectorParam id="1174"  name="sourceCrop">
               <InterpolatingParam id="1175" interp="linr"  time="0/1" value="0" leadInLength="0/1"  />
               <InterpolatingParam id="1176" interp="linr"  time="0/1" value="0" leadInLength="0/1"  />
               <InterpolatingParam id="1177" interp="linr"  time="0/1" value="0" leadInLength="0/1"  />
               <InterpolatingParam id="1178" interp="linr"  time="0/1" value="0" leadInLength="0/1"  />
              </VectorParam>
              <VectorParam id="1179"  name="geometryCrop">
               <InterpolatingParam id="1180" interp="linr"  time="-9999999/1" value="0" leadInLength="0/1"  />
               <InterpolatingParam id="1181" interp="linr"  time="-9999999/1" value="0" leadInLength="0/1"  />
               <InterpolatingParam id="1182" interp="linr"  time="-9999999/1" value="0" leadInLength="0/1"  />
               <InterpolatingParam id="1183" interp="linr"  time="-9999999/1" value="0" leadInLength="0/1"  />
              </VectorParam>
              <InterpolatingParam id="1184" interp="linr"  time="-9999999/1" value="1" leadInLength="0/1"  name="opacity"/>
              <InterpolatingParam id="1185" interp="linr"  time="0/1" value="0" leadInLength="0/1"  name="cursorOpacity"/>
              <InterpolatingParam id="1186" interp="linr"  time="0/1" value="0" leadInLength="0/1"  name="cursorScale"/>
             </Parameters>
             <Attributes>
              <Attribute id="1187" value="" name="ident"/>
             </Attributes>
             <ExtraData>
              <Entry key="ZoomPanBin">
               <ZoomPanBin id="1188"  >
                <ZoomPanKeyframes>
                 <ZoomPanKeyframe id="1189" timeRangeEnd="-9999999/1" timeRangeDuration="0/1" interpolaterName=""  />
                </ZoomPanKeyframes>
               </ZoomPanBin>
              </Entry>
              <Entry key="CursorEffectBin">
               <CursorEffectBin id="1190"  >
                <CursorEffectKeyframes>
                </CursorEffectKeyframes>
               </CursorEffectBin>
              </Entry>
             </ExtraData>
            </ScreenVMFile>
            <MetaData>
             <entry key="AutoAppliedSmartFocus" val="True"/>
             <entry key="WinSubProjectDisplayName" val=""/>
            </MetaData>
           </UnifiedMedia>
           <UnifiedMedia id="1191"  >
            <AMFile id="1192" start="2503" duration="315" scalar="1/1" mediaStart="3880/1" mediaDuration="315/1" trackNumber="1" src="4" channelNumber="0,1" >
             <Parameters>
              <InterpolatingParam id="1193" interp="linr"  time="0/1" value="1" leadInLength="0/1"  name="volume"/>
              <Parameter id="1194"  name="captions"/>
             </Parameters>
             <Attributes>
              <Attribute id="1195" value="" name="ident"/>
              <Attribute id="1196" value="44100" name="sampleRate"/>
              <Attribute id="1197" value="16" name="bitDepth"/>
              <Attribute id="1198" value="1" name="gain"/>
              <Attribute id="1199" value="0" name="mixToMono"/>
             </Attributes>
            </AMFile>
            <ScreenVMFile id="1200" start="2503" duration="315" scalar="1/1" mediaStart="3880/1" mediaDuration="315/1" trackNumber="0" src="4" >
             <Transformer>
              <VectorParam id="1201"  name="translation">
               <InterpolatingParam id="1202" interp="linr"  time="-9999999/1" value="0" leadInLength="0/1"  />
               <InterpolatingParam id="1203" interp="linr"  time="-9999999/1" value="0" leadInLength="0/1"  />
               <InterpolatingParam id="1204" interp="linr"  time="-9999999/1" value="0" leadInLength="0/1"  />
              </VectorParam>
              <VectorParam id="1205"  name="rotation">
               <InterpolatingParam id="1206" interp="linr"  time="-9999999/1" value="0" leadInLength="0/1"  />
               <InterpolatingParam id="1207" interp="linr"  time="-9999999/1" value="0" leadInLength="0/1"  />
               <InterpolatingParam id="1208" interp="linr"  time="-9999999/1" value="0" leadInLength="0/1"  />
              </VectorParam>
              <VectorParam id="1209"  name="shear">
               <InterpolatingParam id="1210" interp="linr"  time="-9999999/1" value="0" leadInLength="0/1"  />
               <InterpolatingParam id="1211" interp="linr"  time="-9999999/1" value="0" leadInLength="0/1"  />
               <InterpolatingParam id="1212" interp="linr"  time="-9999999/1" value="0" leadInLength="0/1"  />
              </VectorParam>
              <VectorParam id="1213"  name="scale">
               <InterpolatingParam id="1214" interp="linr"  time="-9999999/1" value="1" leadInLength="0/1"  />
               <InterpolatingParam id="1215" interp="linr"  time="-9999999/1" value="1" leadInLength="0/1"  />
               <InterpolatingParam id="1216" interp="linr"  time="-9999999/1" value="1" leadInLength="0/1"  />
              </VectorParam>
              <VectorParam id="1217"  name="anchor">
               <InterpolatingParam id="1218" interp="linr"  time="0/1" value="0" leadInLength="0/1"  />
               <InterpolatingParam id="1219" interp="linr"  time="0/1" value="0" leadInLength="0/1"  />
               <InterpolatingParam id="1220" interp="linr"  time="0/1" value="0" leadInLength="0/1"  />
              </VectorParam>
             </Transformer>
             <Parameters>
              <VectorParam id="1221"  name="sourceCrop">
               <InterpolatingParam id="1222" interp="linr"  time="0/1" value="0" leadInLength="0/1"  />
               <InterpolatingParam id="1223" interp="linr"  time="0/1" value="0" leadInLength="0/1"  />
               <InterpolatingParam id="1224" interp="linr"  time="0/1" value="0" leadInLength="0/1"  />
               <InterpolatingParam id="1225" interp="linr"  time="0/1" value="0" leadInLength="0/1"  />
              </VectorParam>
              <VectorParam id="1226"  name="geometryCrop">
               <InterpolatingParam id="1227" interp="linr"  time="-9999999/1" value="0" leadInLength="0/1"  />
               <InterpolatingParam id="1228" interp="linr"  time="-9999999/1" value="0" leadInLength="0/1"  />
               <InterpolatingParam id="1229" interp="linr"  time="-9999999/1" value="0" leadInLength="0/1"  />
               <InterpolatingParam id="1230" interp="linr"  time="-9999999/1" value="0" leadInLength="0/1"  />
              </VectorParam>
              <InterpolatingParam id="1231" interp="linr"  time="-9999999/1" value="1" leadInLength="0/1"  name="opacity"/>
              <InterpolatingParam id="1232" interp="linr"  time="0/1" value="0" leadInLength="0/1"  name="cursorOpacity"/>
              <InterpolatingParam id="1233" interp="linr"  time="0/1" value="0" leadInLength="0/1"  name="cursorScale"/>
             </Parameters>
             <Attributes>
              <Attribute id="1234" value="" name="ident"/>
             </Attributes>
             <ExtraData>
              <Entry key="ZoomPanBin">
               <ZoomPanBin id="1235"  >
                <ZoomPanKeyframes>
                 <ZoomPanKeyframe id="1236" timeRangeEnd="-9999999/1" timeRangeDuration="0/1" interpolaterName=""  />
                </ZoomPanKeyframes>
               </ZoomPanBin>
              </Entry>
              <Entry key="CursorEffectBin">
               <CursorEffectBin id="1237"  >
                <CursorEffectKeyframes>
                </CursorEffectKeyframes>
               </CursorEffectBin>
              </Entry>
             </ExtraData>
            </ScreenVMFile>
            <MetaData>
             <entry key="AutoAppliedSmartFocus" val="True"/>
             <entry key="WinSubProjectDisplayName" val=""/>
            </MetaData>
           </UnifiedMedia>
           <UnifiedMedia id="1238"  >
            <AMFile id="1239" start="2818" duration="279" scalar="1/1" mediaStart="4325/1" mediaDuration="279/1" trackNumber="1" src="4" channelNumber="0,1" >
             <Parameters>
              <InterpolatingParam id="1240" interp="linr"  time="0/1" value="1" leadInLength="0/1"  name="volume"/>
              <Parameter id="1241"  name="captions"/>
             </Parameters>
             <Attributes>
              <Attribute id="1242" value="" name="ident"/>
              <Attribute id="1243" value="44100" name="sampleRate"/>
              <Attribute id="1244" value="16" name="bitDepth"/>
              <Attribute id="1245" value="1" name="gain"/>
              <Attribute id="1246" value="0" name="mixToMono"/>
             </Attributes>
            </AMFile>
            <ScreenVMFile id="1247" start="2818" duration="279" scalar="1/1" mediaStart="4325/1" mediaDuration="279/1" trackNumber="0" src="4" >
             <Transformer>
              <VectorParam id="1248"  name="translation">
               <InterpolatingParam id="1249" interp="linr"  time="-9999999/1" value="0" leadInLength="0/1"  />
               <InterpolatingParam id="1250" interp="linr"  time="-9999999/1" value="0" leadInLength="0/1"  />
               <InterpolatingParam id="1251" interp="linr"  time="-9999999/1" value="0" leadInLength="0/1"  />
              </VectorParam>
              <VectorParam id="1252"  name="rotation">
               <InterpolatingParam id="1253" interp="linr"  time="-9999999/1" value="0" leadInLength="0/1"  />
               <InterpolatingParam id="1254" interp="linr"  time="-9999999/1" value="0" leadInLength="0/1"  />
               <InterpolatingParam id="1255" interp="linr"  time="-9999999/1" value="0" leadInLength="0/1"  />
              </VectorParam>
              <VectorParam id="1256"  name="shear">
               <InterpolatingParam id="1257" interp="linr"  time="-9999999/1" value="0" leadInLength="0/1"  />
               <InterpolatingParam id="1258" interp="linr"  time="-9999999/1" value="0" leadInLength="0/1"  />
               <InterpolatingParam id="1259" interp="linr"  time="-9999999/1" value="0" leadInLength="0/1"  />
              </VectorParam>
              <VectorParam id="1260"  name="scale">
               <InterpolatingParam id="1261" interp="linr"  time="-9999999/1" value="1" leadInLength="0/1"  />
               <InterpolatingParam id="1262" interp="linr"  time="-9999999/1" value="1" leadInLength="0/1"  />
               <InterpolatingParam id="1263" interp="linr"  time="-9999999/1" value="1" leadInLength="0/1"  />
              </VectorParam>
              <VectorParam id="1264"  name="anchor">
               <InterpolatingParam id="1265" interp="linr"  time="0/1" value="0" leadInLength="0/1"  />
               <InterpolatingParam id="1266" interp="linr"  time="0/1" value="0" leadInLength="0/1"  />
               <InterpolatingParam id="1267" interp="linr"  time="0/1" value="0" leadInLength="0/1"  />
              </VectorParam>
             </Transformer>
             <Parameters>
              <VectorParam id="1268"  name="sourceCrop">
               <InterpolatingParam id="1269" interp="linr"  time="0/1" value="0" leadInLength="0/1"  />
               <InterpolatingParam id="1270" interp="linr"  time="0/1" value="0" leadInLength="0/1"  />
               <InterpolatingParam id="1271" interp="linr"  time="0/1" value="0" leadInLength="0/1"  />
               <InterpolatingParam id="1272" interp="linr"  time="0/1" value="0" leadInLength="0/1"  />
              </VectorParam>
              <VectorParam id="1273"  name="geometryCrop">
               <InterpolatingParam id="1274" interp="linr"  time="-9999999/1" value="0" leadInLength="0/1"  />
               <InterpolatingParam id="1275" interp="linr"  time="-9999999/1" value="0" leadInLength="0/1"  />
               <InterpolatingParam id="1276" interp="linr"  time="-9999999/1" value="0" leadInLength="0/1"  />
               <InterpolatingParam id="1277" interp="linr"  time="-9999999/1" value="0" leadInLength="0/1"  />
              </VectorParam>
              <InterpolatingParam id="1278" interp="linr"  time="-9999999/1" value="1" leadInLength="0/1"  name="opacity"/>
              <InterpolatingParam id="1279" interp="linr"  time="0/1" value="0" leadInLength="0/1"  name="cursorOpacity"/>
              <InterpolatingParam id="1280" interp="linr"  time="0/1" value="0" leadInLength="0/1"  name="cursorScale"/>
             </Parameters>
             <Attributes>
              <Attribute id="1281" value="" name="ident"/>
             </Attributes>
             <ExtraData>
              <Entry key="ZoomPanBin">
               <ZoomPanBin id="1282"  >
                <ZoomPanKeyframes>
                 <ZoomPanKeyframe id="1283" timeRangeEnd="-9999999/1" timeRangeDuration="0/1" interpolaterName=""  />
                </ZoomPanKeyframes>
               </ZoomPanBin>
              </Entry>
              <Entry key="CursorEffectBin">
               <CursorEffectBin id="1284"  >
                <CursorEffectKeyframes>
                </CursorEffectKeyframes>
               </CursorEffectBin>
              </Entry>
             </ExtraData>
            </ScreenVMFile>
            <MetaData>
             <entry key="AutoAppliedSmartFocus" val="True"/>
             <entry key="WinSubProjectDisplayName" val=""/>
            </MetaData>
           </UnifiedMedia>
           <UnifiedMedia id="1285"  >
            <AMFile id="1286" start="3097" duration="12" scalar="1/1" mediaStart="4749/1" mediaDuration="12/1" trackNumber="1" src="4" channelNumber="0,1" >
             <Parameters>
              <InterpolatingParam id="1287" interp="linr"  time="0/1" value="1" leadInLength="0/1"  name="volume"/>
              <Parameter id="1288"  name="captions"/>
             </Parameters>
             <Attributes>
              <Attribute id="1289" value="" name="ident"/>
              <Attribute id="1290" value="44100" name="sampleRate"/>
              <Attribute id="1291" value="16" name="bitDepth"/>
              <Attribute id="1292" value="1" name="gain"/>
              <Attribute id="1293" value="0" name="mixToMono"/>
             </Attributes>
            </AMFile>
            <ScreenVMFile id="1294" start="3097" duration="12" scalar="1/1" mediaStart="4749/1" mediaDuration="12/1" trackNumber="0" src="4" >
             <Transformer>
              <VectorParam id="1295"  name="translation">
               <InterpolatingParam id="1296" interp="linr"  time="-9999999/1" value="0" leadInLength="0/1"  />
               <InterpolatingParam id="1297" interp="linr"  time="-9999999/1" value="0" leadInLength="0/1"  />
               <InterpolatingParam id="1298" interp="linr"  time="-9999999/1" value="0" leadInLength="0/1"  />
              </VectorParam>
              <VectorParam id="1299"  name="rotation">
               <InterpolatingParam id="1300" interp="linr"  time="-9999999/1" value="0" leadInLength="0/1"  />
               <InterpolatingParam id="1301" interp="linr"  time="-9999999/1" value="0" leadInLength="0/1"  />
               <InterpolatingParam id="1302" interp="linr"  time="-9999999/1" value="0" leadInLength="0/1"  />
              </VectorParam>
              <VectorParam id="1303"  name="shear">
               <InterpolatingParam id="1304" interp="linr"  time="-9999999/1" value="0" leadInLength="0/1"  />
               <InterpolatingParam id="1305" interp="linr"  time="-9999999/1" value="0" leadInLength="0/1"  />
               <InterpolatingParam id="1306" interp="linr"  time="-9999999/1" value="0" leadInLength="0/1"  />
              </VectorParam>
              <VectorParam id="1307"  name="scale">
               <InterpolatingParam id="1308" interp="linr"  time="-9999999/1" value="1" leadInLength="0/1"  />
               <InterpolatingParam id="1309" interp="linr"  time="-9999999/1" value="1" leadInLength="0/1"  />
               <InterpolatingParam id="1310" interp="linr"  time="-9999999/1" value="1" leadInLength="0/1"  />
              </VectorParam>
              <VectorParam id="1311"  name="anchor">
               <InterpolatingParam id="1312" interp="linr"  time="0/1" value="0" leadInLength="0/1"  />
               <InterpolatingParam id="1313" interp="linr"  time="0/1" value="0" leadInLength="0/1"  />
               <InterpolatingParam id="1314" interp="linr"  time="0/1" value="0" leadInLength="0/1"  />
              </VectorParam>
             </Transformer>
             <Parameters>
              <VectorParam id="1315"  name="sourceCrop">
               <InterpolatingParam id="1316" interp="linr"  time="0/1" value="0" leadInLength="0/1"  />
               <InterpolatingParam id="1317" interp="linr"  time="0/1" value="0" leadInLength="0/1"  />
               <InterpolatingParam id="1318" interp="linr"  time="0/1" value="0" leadInLength="0/1"  />
               <InterpolatingParam id="1319" interp="linr"  time="0/1" value="0" leadInLength="0/1"  />
              </VectorParam>
              <VectorParam id="1320"  name="geometryCrop">
               <InterpolatingParam id="1321" interp="linr"  time="-9999999/1" value="0" leadInLength="0/1"  />
               <InterpolatingParam id="1322" interp="linr"  time="-9999999/1" value="0" leadInLength="0/1"  />
               <InterpolatingParam id="1323" interp="linr"  time="-9999999/1" value="0" leadInLength="0/1"  />
               <InterpolatingParam id="1324" interp="linr"  time="-9999999/1" value="0" leadInLength="0/1"  />
              </VectorParam>
              <InterpolatingParam id="1325" interp="linr"  time="-9999999/1" value="1" leadInLength="0/1"  name="opacity"/>
              <InterpolatingParam id="1326" interp="linr"  time="0/1" value="0" leadInLength="0/1"  name="cursorOpacity"/>
              <InterpolatingParam id="1327" interp="linr"  time="0/1" value="0" leadInLength="0/1"  name="cursorScale"/>
             </Parameters>
             <Attributes>
              <Attribute id="1328" value="" name="ident"/>
             </Attributes>
             <ExtraData>
              <Entry key="ZoomPanBin">
               <ZoomPanBin id="1329"  >
                <ZoomPanKeyframes>
                 <ZoomPanKeyframe id="1330" timeRangeEnd="-9999999/1" timeRangeDuration="0/1" interpolaterName=""  />
                </ZoomPanKeyframes>
               </ZoomPanBin>
              </Entry>
              <Entry key="CursorEffectBin">
               <CursorEffectBin id="1331"  >
                <CursorEffectKeyframes>
                </CursorEffectKeyframes>
               </CursorEffectBin>
              </Entry>
             </ExtraData>
            </ScreenVMFile>
            <MetaData>
             <entry key="AutoAppliedSmartFocus" val="True"/>
             <entry key="WinSubProjectDisplayName" val=""/>
            </MetaData>
           </UnifiedMedia>
           <UnifiedMedia id="1332"  >
            <AMFile id="1333" start="3109" duration="30" scalar="1/1" mediaStart="4906/1" mediaDuration="30/1" trackNumber="1" src="4" channelNumber="0,1" >
             <Parameters>
              <InterpolatingParam id="1334" interp="linr"  time="0/1" value="1" leadInLength="0/1"  name="volume"/>
              <Parameter id="1335"  name="captions"/>
             </Parameters>
             <Attributes>
              <Attribute id="1336" value="" name="ident"/>
              <Attribute id="1337" value="44100" name="sampleRate"/>
              <Attribute id="1338" value="16" name="bitDepth"/>
              <Attribute id="1339" value="1" name="gain"/>
              <Attribute id="1340" value="0" name="mixToMono"/>
             </Attributes>
            </AMFile>
            <ScreenVMFile id="1341" start="3109" duration="30" scalar="1/1" mediaStart="4906/1" mediaDuration="30/1" trackNumber="0" src="4" >
             <Transformer>
              <VectorParam id="1342"  name="translation">
               <InterpolatingParam id="1343" interp="linr"  time="-9999999/1" value="0" leadInLength="0/1"  />
               <InterpolatingParam id="1344" interp="linr"  time="-9999999/1" value="0" leadInLength="0/1"  />
               <InterpolatingParam id="1345" interp="linr"  time="-9999999/1" value="0" leadInLength="0/1"  />
              </VectorParam>
              <VectorParam id="1346"  name="rotation">
               <InterpolatingParam id="1347" interp="linr"  time="-9999999/1" value="0" leadInLength="0/1"  />
               <InterpolatingParam id="1348" interp="linr"  time="-9999999/1" value="0" leadInLength="0/1"  />
               <InterpolatingParam id="1349" interp="linr"  time="-9999999/1" value="0" leadInLength="0/1"  />
              </VectorParam>
              <VectorParam id="1350"  name="shear">
               <InterpolatingParam id="1351" interp="linr"  time="-9999999/1" value="0" leadInLength="0/1"  />
               <InterpolatingParam id="1352" interp="linr"  time="-9999999/1" value="0" leadInLength="0/1"  />
               <InterpolatingParam id="1353" interp="linr"  time="-9999999/1" value="0" leadInLength="0/1"  />
              </VectorParam>
              <VectorParam id="1354"  name="scale">
               <InterpolatingParam id="1355" interp="linr"  time="-9999999/1" value="1" leadInLength="0/1"  />
               <InterpolatingParam id="1356" interp="linr"  time="-9999999/1" value="1" leadInLength="0/1"  />
               <InterpolatingParam id="1357" interp="linr"  time="-9999999/1" value="1" leadInLength="0/1"  />
              </VectorParam>
              <VectorParam id="1358"  name="anchor">
               <InterpolatingParam id="1359" interp="linr"  time="0/1" value="0" leadInLength="0/1"  />
               <InterpolatingParam id="1360" interp="linr"  time="0/1" value="0" leadInLength="0/1"  />
               <InterpolatingParam id="1361" interp="linr"  time="0/1" value="0" leadInLength="0/1"  />
              </VectorParam>
             </Transformer>
             <Parameters>
              <VectorParam id="1362"  name="sourceCrop">
               <InterpolatingParam id="1363" interp="linr"  time="0/1" value="0" leadInLength="0/1"  />
               <InterpolatingParam id="1364" interp="linr"  time="0/1" value="0" leadInLength="0/1"  />
               <InterpolatingParam id="1365" interp="linr"  time="0/1" value="0" leadInLength="0/1"  />
               <InterpolatingParam id="1366" interp="linr"  time="0/1" value="0" leadInLength="0/1"  />
              </VectorParam>
              <VectorParam id="1367"  name="geometryCrop">
               <InterpolatingParam id="1368" interp="linr"  time="-9999999/1" value="0" leadInLength="0/1"  />
               <InterpolatingParam id="1369" interp="linr"  time="-9999999/1" value="0" leadInLength="0/1"  />
               <InterpolatingParam id="1370" interp="linr"  time="-9999999/1" value="0" leadInLength="0/1"  />
               <InterpolatingParam id="1371" interp="linr"  time="-9999999/1" value="0" leadInLength="0/1"  />
              </VectorParam>
              <InterpolatingParam id="1372" interp="linr"  time="-9999999/1" value="1" leadInLength="0/1"  name="opacity"/>
              <InterpolatingParam id="1373" interp="linr"  time="0/1" value="0" leadInLength="0/1"  name="cursorOpacity"/>
              <InterpolatingParam id="1374" interp="linr"  time="0/1" value="0" leadInLength="0/1"  name="cursorScale"/>
             </Parameters>
             <Attributes>
              <Attribute id="1375" value="" name="ident"/>
             </Attributes>
             <ExtraData>
              <Entry key="ZoomPanBin">
               <ZoomPanBin id="1376"  >
                <ZoomPanKeyframes>
                 <ZoomPanKeyframe id="1377" timeRangeEnd="-9999999/1" timeRangeDuration="0/1" interpolaterName=""  />
                </ZoomPanKeyframes>
               </ZoomPanBin>
              </Entry>
              <Entry key="CursorEffectBin">
               <CursorEffectBin id="1378"  >
                <CursorEffectKeyframes>
                </CursorEffectKeyframes>
               </CursorEffectBin>
              </Entry>
             </ExtraData>
            </ScreenVMFile>
            <MetaData>
             <entry key="AutoAppliedSmartFocus" val="True"/>
             <entry key="WinSubProjectDisplayName" val=""/>
            </MetaData>
           </UnifiedMedia>
          </Medias>
         </GenericTrack>
        </StitchedMedia>
        <UnifiedMedia id="1379"  >
         <AudioTransition id="1380" start="1965" duration="30" >
          <Parameters>
           <InterpolatingParam id="1381" interp="linr"  time="0/1" value="1" leadInLength="0/1"  name="volume"/>
           <Parameter id="1382"  name="captions"/>
          </Parameters>
          <Effects>
           <GenericEffect id="1383" name = "AudioTransition" >
            <Parameters>
            <Parameter id="1384"   name="audioEdgeModType">
             <Keyframes>
             <Keyframe id="1385"  time="0/1" value="0" leadInLength="0/1"  />
             </Keyframes>
            </Parameter>
            <Parameter id="1386"   name="audioTransitionType">
             <Keyframes>
             <Keyframe id="1387"  time="0/1" value="" leadInLength="0/1"  />
             </Keyframes>
            </Parameter>
            </Parameters>
            <MetaData>
            </MetaData>
           </GenericEffect>
          </Effects>
          <Attributes>
           <Attribute id="1388" value="" name="ident"/>
           <Attribute id="1389" value="0" name="sampleRate"/>
           <Attribute id="1390" value="0" name="bitDepth"/>
           <Attribute id="1391" value="1" name="gain"/>
           <Attribute id="1392" value="0" name="mixToMono"/>
          </Attributes>
         </AudioTransition>
         <ImageTransition id="1393" start="1965" duration="30" >
          <Transformer>
           <VectorParam id="1394"  name="translation">
            <InterpolatingParam id="1395" interp="linr"  time="0/1" value="0" leadInLength="0/1"  />
            <InterpolatingParam id="1396" interp="linr"  time="0/1" value="0" leadInLength="0/1"  />
            <InterpolatingParam id="1397" interp="linr"  time="0/1" value="0" leadInLength="0/1"  />
           </VectorParam>
           <VectorParam id="1398"  name="rotation">
            <InterpolatingParam id="1399" interp="linr"  time="0/1" value="0" leadInLength="0/1"  />
            <InterpolatingParam id="1400" interp="linr"  time="0/1" value="0" leadInLength="0/1"  />
            <InterpolatingParam id="1401" interp="linr"  time="0/1" value="0" leadInLength="0/1"  />
           </VectorParam>
           <VectorParam id="1402"  name="shear">
            <InterpolatingParam id="1403" interp="linr"  time="0/1" value="0" leadInLength="0/1"  />
            <InterpolatingParam id="1404" interp="linr"  time="0/1" value="0" leadInLength="0/1"  />
            <InterpolatingParam id="1405" interp="linr"  time="0/1" value="0" leadInLength="0/1"  />
           </VectorParam>
           <VectorParam id="1406"  name="scale">
            <InterpolatingParam id="1407" interp="linr"  time="0/1" value="1" leadInLength="0/1"  />
            <InterpolatingParam id="1408" interp="linr"  time="0/1" value="1" leadInLength="0/1"  />
            <InterpolatingParam id="1409" interp="linr"  time="0/1" value="1" leadInLength="0/1"  />
           </VectorParam>
           <VectorParam id="1410"  name="anchor">
            <InterpolatingParam id="1411" interp="linr"  time="0/1" value="0" leadInLength="0/1"  />
            <InterpolatingParam id="1412" interp="linr"  time="0/1" value="0" leadInLength="0/1"  />
            <InterpolatingParam id="1413" interp="linr"  time="0/1" value="0" leadInLength="0/1"  />
           </VectorParam>
          </Transformer>
          <Parameters>
           <VectorParam id="1414"  name="sourceCrop">
            <InterpolatingParam id="1415" interp="linr"  time="0/1" value="0" leadInLength="0/1"  />
            <InterpolatingParam id="1416" interp="linr"  time="0/1" value="0" leadInLength="0/1"  />
            <InterpolatingParam id="1417" interp="linr"  time="0/1" value="0" leadInLength="0/1"  />
            <InterpolatingParam id="1418" interp="linr"  time="0/1" value="0" leadInLength="0/1"  />
           </VectorParam>
           <VectorParam id="1419"  name="geometryCrop">
            <InterpolatingParam id="1420" interp="linr"  time="0/1" value="0" leadInLength="0/1"  />
            <InterpolatingParam id="1421" interp="linr"  time="0/1" value="0" leadInLength="0/1"  />
            <InterpolatingParam id="1422" interp="linr"  time="0/1" value="0" leadInLength="0/1"  />
            <InterpolatingParam id="1423" interp="linr"  time="0/1" value="0" leadInLength="0/1"  />
           </VectorParam>
           <InterpolatingParam id="1424" interp="linr"  time="0/1" value="1" leadInLength="0/1"  name="opacity"/>
          </Parameters>
          <Effects>
           <GenericEffect id="1425" name = "VisualTransition" >
            <Parameters>
            <InterpolatingParam id="1426" interp="linr"  time="0/1" value="0.5" leadInLength="0/1"   name="leftFramePercentage"/>
            <InterpolatingParam id="1427" interp="linr"  time="0/1" value="0.5" leadInLength="0/1"   name="rightFramePercentage"/>
            <Parameter id="1428"   name="visualEdgeModType">
             <Keyframes>
             <Keyframe id="1429"  time="0/1" value="2" leadInLength="0/1"  />
             </Keyframes>
            </Parameter>
            <Parameter id="1430"   name="visualTransitionType">
             <Keyframes>
             <Keyframe id="1431"  time="0/1" value="CubeRotate" leadInLength="0/1"  />
             </Keyframes>
            </Parameter>
            </Parameters>
            <MetaData>
            </MetaData>
           </GenericEffect>
          </Effects>
          <Attributes>
           <Attribute id="1432" value="" name="ident"/>
          </Attributes>
          <ExtraData>
           <Entry key="ZoomPanBin">
            <ZoomPanBin id="1433"  >
             <ZoomPanKeyframes>
             </ZoomPanKeyframes>
            </ZoomPanBin>
           </Entry>
          </ExtraData>
         </ImageTransition>
         <MetaData>
          <entry key="WinSubProjectDisplayName" val=""/>
         </MetaData>
        </UnifiedMedia>
        <StitchedMedia id="1434" start="1995" duration="1607" scalar="1/1" mediaStart="0/1" mediaDuration="1607/1" minMediaStart="0/1" >
         <Transformer>
          <VectorParam id="1435"  name="translation">
           <InterpolatingParam id="1436" interp="linr"  >
            <Keyframes>
            <Keyframe id="1437"  time="-9999999/1" value="0" leadInLength="0/1"  />
            <Keyframe id="1438"  time="96/1" value="392.45956603775426" leadInLength="37/1"  interpolater="leadin-linr"  />
            <Keyframe id="1439"  time="330/1" value="233.96870554765292" leadInLength="30/1"  interpolater="leadin-linr"  />
            <Keyframe id="1440"  time="535/1" value="-135.343764817449" leadInLength="20/1"  interpolater="leadin-linr"  />
            <Keyframe id="1441"  time="550/1" value="233.96870554765292" leadInLength="15/1"  interpolater="leadin-linr"  />
            <Keyframe id="1442"  time="602/1" value="-320" leadInLength="30/1"  interpolater="leadin-linr"  />
            <Keyframe id="1443"  time="792/1" value="-320" leadInLength="30/1"  interpolater="leadin-linr"  />
            <Keyframe id="1444"  time="875/1" value="-342.64150943392821" leadInLength="30/1"  interpolater="leadin-linr"  />
            <Keyframe id="1445"  time="1047/1" value="233.96870554765292" leadInLength="30/1"  interpolater="leadin-linr"  />
            <Keyframe id="1446"  time="1125/1" value="709.43396226412096" leadInLength="30/1"  interpolater="leadin-linr"  />
            <Keyframe id="1447"  time="1338/1" value="433.21398856659289" leadInLength="30/1"  interpolater="leadin-linr"  />
            <Keyframe id="1448"  time="1438/1" value="514.34788814595299" leadInLength="30/1"  interpolater="leadin-linr"  />
            </Keyframes>
           </InterpolatingParam>
           <InterpolatingParam id="1449" interp="linr"  >
            <Keyframes>
            <Keyframe id="1450"  time="-9999999/1" value="0" leadInLength="0/1"  />
            <Keyframe id="1451"  time="96/1" value="-312.66207547168119" leadInLength="37/1"  interpolater="leadin-linr"  />
            <Keyframe id="1452"  time="330/1" value="-131.52970922882429" leadInLength="30/1"  interpolater="leadin-linr"  />
            <Keyframe id="1453"  time="535/1" value="-15.843236409608103" leadInLength="20/1"  interpolater="leadin-linr"  />
            <Keyframe id="1454"  time="550/1" value="-131.52970922882429" leadInLength="15/1"  interpolater="leadin-linr"  />
            <Keyframe id="1455"  time="602/1" value="96" leadInLength="30/1"  interpolater="leadin-linr"  />
            <Keyframe id="1456"  time="792/1" value="-180" leadInLength="30/1"  interpolater="leadin-linr"  />
            <Keyframe id="1457"  time="875/1" value="-320.37735849058561" leadInLength="30/1"  interpolater="leadin-linr"  />
            <Keyframe id="1458"  time="1047/1" value="-131.52970922882429" leadInLength="30/1"  interpolater="leadin-linr"  />
            <Keyframe id="1459"  time="1125/1" value="445.66037735847061" leadInLength="30/1"  interpolater="leadin-linr"  />
            <Keyframe id="1460"  time="1338/1" value="-333.7938601722467" leadInLength="30/1"  interpolater="leadin-linr"  />
            <Keyframe id="1461"  time="1438/1" value="-261.13207547166496" leadInLength="30/1"  interpolater="leadin-linr"  />
            </Keyframes>
           </InterpolatingParam>
           <InterpolatingParam id="1462" interp="linr"  >
            <Keyframes>
            <Keyframe id="1463"  time="-9999999/1" value="0" leadInLength="0/1"  />
            <Keyframe id="1464"  time="96/1" value="0" leadInLength="37/1"  interpolater="leadin-linr"  />
            <Keyframe id="1465"  time="330/1" value="0" leadInLength="30/1"  interpolater="leadin-linr"  />
            <Keyframe id="1466"  time="535/1" value="0" leadInLength="20/1"  interpolater="leadin-linr"  />
            <Keyframe id="1467"  time="550/1" value="0" leadInLength="15/1"  interpolater="leadin-linr"  />
            <Keyframe id="1468"  time="602/1" value="0" leadInLength="30/1"  interpolater="leadin-linr"  />
            <Keyframe id="1469"  time="792/1" value="0" leadInLength="30/1"  interpolater="leadin-linr"  />
            <Keyframe id="1470"  time="875/1" value="0" leadInLength="30/1"  interpolater="leadin-linr"  />
            <Keyframe id="1471"  time="1047/1" value="0" leadInLength="30/1"  interpolater="leadin-linr"  />
            <Keyframe id="1472"  time="1125/1" value="0" leadInLength="30/1"  interpolater="leadin-linr"  />
            <Keyframe id="1473"  time="1338/1" value="0" leadInLength="30/1"  interpolater="leadin-linr"  />
            <Keyframe id="1474"  time="1438/1" value="-3.4106051316488567e-010" leadInLength="30/1"  interpolater="leadin-linr"  />
            </Keyframes>
           </InterpolatingParam>
          </VectorParam>
          <VectorParam id="1475"  name="rotation">
           <InterpolatingParam id="1476" interp="linr"  >
            <Keyframes>
            <Keyframe id="1477"  time="-9999999/1" value="0" leadInLength="0/1"  />
            <Keyframe id="1478"  time="96/1" value="0" leadInLength="37/1"  interpolater="leadin-linr"  />
            <Keyframe id="1479"  time="330/1" value="0" leadInLength="30/1"  interpolater="leadin-linr"  />
            <Keyframe id="1480"  time="535/1" value="0" leadInLength="20/1"  interpolater="leadin-linr"  />
            <Keyframe id="1481"  time="550/1" value="0" leadInLength="15/1"  interpolater="leadin-linr"  />
            <Keyframe id="1482"  time="602/1" value="0" leadInLength="30/1"  interpolater="leadin-linr"  />
            <Keyframe id="1483"  time="792/1" value="0" leadInLength="30/1"  interpolater="leadin-linr"  />
            <Keyframe id="1484"  time="875/1" value="0" leadInLength="30/1"  interpolater="leadin-linr"  />
            <Keyframe id="1485"  time="1047/1" value="0" leadInLength="30/1"  interpolater="leadin-linr"  />
            <Keyframe id="1486"  time="1125/1" value="0" leadInLength="30/1"  interpolater="leadin-linr"  />
            <Keyframe id="1487"  time="1338/1" value="0" leadInLength="30/1"  interpolater="leadin-linr"  />
            <Keyframe id="1488"  time="1438/1" value="0" leadInLength="30/1"  interpolater="leadin-linr"  />
            </Keyframes>
           </InterpolatingParam>
           <InterpolatingParam id="1489" interp="linr"  >
            <Keyframes>
            <Keyframe id="1490"  time="-9999999/1" value="0" leadInLength="0/1"  />
            <Keyframe id="1491"  time="96/1" value="0" leadInLength="37/1"  interpolater="leadin-linr"  />
            <Keyframe id="1492"  time="330/1" value="0" leadInLength="30/1"  interpolater="leadin-linr"  />
            <Keyframe id="1493"  time="535/1" value="0" leadInLength="20/1"  interpolater="leadin-linr"  />
            <Keyframe id="1494"  time="550/1" value="0" leadInLength="15/1"  interpolater="leadin-linr"  />
            <Keyframe id="1495"  time="602/1" value="0" leadInLength="30/1"  interpolater="leadin-linr"  />
            <Keyframe id="1496"  time="792/1" value="0" leadInLength="30/1"  interpolater="leadin-linr"  />
            <Keyframe id="1497"  time="875/1" value="0" leadInLength="30/1"  interpolater="leadin-linr"  />
            <Keyframe id="1498"  time="1047/1" value="0" leadInLength="30/1"  interpolater="leadin-linr"  />
            <Keyframe id="1499"  time="1125/1" value="0" leadInLength="30/1"  interpolater="leadin-linr"  />
            <Keyframe id="1500"  time="1338/1" value="0" leadInLength="30/1"  interpolater="leadin-linr"  />
            <Keyframe id="1501"  time="1438/1" value="0" leadInLength="30/1"  interpolater="leadin-linr"  />
            </Keyframes>
           </InterpolatingParam>
           <InterpolatingParam id="1502" interp="linr"  >
            <Keyframes>
            <Keyframe id="1503"  time="-9999999/1" value="0" leadInLength="0/1"  />
            <Keyframe id="1504"  time="96/1" value="0.034906585039886591" leadInLength="37/1"  interpolater="leadin-linr"  />
            <Keyframe id="1505"  time="330/1" value="0" leadInLength="30/1"  interpolater="leadin-linr"  />
            <Keyframe id="1506"  time="535/1" value="0" leadInLength="20/1"  interpolater="leadin-linr"  />
            <Keyframe id="1507"  time="550/1" value="0" leadInLength="15/1"  interpolater="leadin-linr"  />
            <Keyframe id="1508"  time="602/1" value="0" leadInLength="30/1"  interpolater="leadin-linr"  />
            <Keyframe id="1509"  time="792/1" value="0" leadInLength="30/1"  interpolater="leadin-linr"  />
            <Keyframe id="1510"  time="875/1" value="0.03490658503988664" leadInLength="30/1"  interpolater="leadin-linr"  />
            <Keyframe id="1511"  time="1047/1" value="0" leadInLength="30/1"  interpolater="leadin-linr"  />
            <Keyframe id="1512"  time="1125/1" value="-0.034906585039886591" leadInLength="30/1"  interpolater="leadin-linr"  />
            <Keyframe id="1513"  time="1338/1" value="-0.034906585039886591" leadInLength="30/1"  interpolater="leadin-linr"  />
            <Keyframe id="1514"  time="1438/1" value="0.03490658503988664" leadInLength="30/1"  interpolater="leadin-linr"  />
            </Keyframes>
           </InterpolatingParam>
          </VectorParam>
          <VectorParam id="1515"  name="shear">
           <InterpolatingParam id="1516" interp="linr"  >
            <Keyframes>
            <Keyframe id="1517"  time="-9999999/1" value="0" leadInLength="0/1"  />
            <Keyframe id="1518"  time="96/1" value="0" leadInLength="37/1"  interpolater="leadin-linr"  />
            <Keyframe id="1519"  time="330/1" value="0" leadInLength="30/1"  interpolater="leadin-linr"  />
            <Keyframe id="1520"  time="535/1" value="0" leadInLength="20/1"  interpolater="leadin-linr"  />
            <Keyframe id="1521"  time="550/1" value="0" leadInLength="15/1"  interpolater="leadin-linr"  />
            <Keyframe id="1522"  time="602/1" value="0" leadInLength="30/1"  interpolater="leadin-linr"  />
            <Keyframe id="1523"  time="792/1" value="0" leadInLength="30/1"  interpolater="leadin-linr"  />
            <Keyframe id="1524"  time="875/1" value="0" leadInLength="30/1"  interpolater="leadin-linr"  />
            <Keyframe id="1525"  time="1047/1" value="0" leadInLength="30/1"  interpolater="leadin-linr"  />
            <Keyframe id="1526"  time="1125/1" value="0" leadInLength="30/1"  interpolater="leadin-linr"  />
            <Keyframe id="1527"  time="1338/1" value="0" leadInLength="30/1"  interpolater="leadin-linr"  />
            <Keyframe id="1528"  time="1438/1" value="0" leadInLength="30/1"  interpolater="leadin-linr"  />
            </Keyframes>
           </InterpolatingParam>
           <InterpolatingParam id="1529" interp="linr"  >
            <Keyframes>
            <Keyframe id="1530"  time="-9999999/1" value="0" leadInLength="0/1"  />
            <Keyframe id="1531"  time="96/1" value="0" leadInLength="37/1"  interpolater="leadin-linr"  />
            <Keyframe id="1532"  time="330/1" value="0" leadInLength="30/1"  interpolater="leadin-linr"  />
            <Keyframe id="1533"  time="535/1" value="0" leadInLength="20/1"  interpolater="leadin-linr"  />
            <Keyframe id="1534"  time="550/1" value="0" leadInLength="15/1"  interpolater="leadin-linr"  />
            <Keyframe id="1535"  time="602/1" value="0" leadInLength="30/1"  interpolater="leadin-linr"  />
            <Keyframe id="1536"  time="792/1" value="0" leadInLength="30/1"  interpolater="leadin-linr"  />
            <Keyframe id="1537"  time="875/1" value="0" leadInLength="30/1"  interpolater="leadin-linr"  />
            <Keyframe id="1538"  time="1047/1" value="0" leadInLength="30/1"  interpolater="leadin-linr"  />
            <Keyframe id="1539"  time="1125/1" value="0" leadInLength="30/1"  interpolater="leadin-linr"  />
            <Keyframe id="1540"  time="1338/1" value="0" leadInLength="30/1"  interpolater="leadin-linr"  />
            <Keyframe id="1541"  time="1438/1" value="0" leadInLength="30/1"  interpolater="leadin-linr"  />
            </Keyframes>
           </InterpolatingParam>
           <InterpolatingParam id="1542" interp="linr"  >
            <Keyframes>
            <Keyframe id="1543"  time="-9999999/1" value="0" leadInLength="0/1"  />
            <Keyframe id="1544"  time="96/1" value="0" leadInLength="37/1"  interpolater="leadin-linr"  />
            <Keyframe id="1545"  time="330/1" value="0" leadInLength="30/1"  interpolater="leadin-linr"  />
            <Keyframe id="1546"  time="535/1" value="0" leadInLength="20/1"  interpolater="leadin-linr"  />
            <Keyframe id="1547"  time="550/1" value="0" leadInLength="15/1"  interpolater="leadin-linr"  />
            <Keyframe id="1548"  time="602/1" value="0" leadInLength="30/1"  interpolater="leadin-linr"  />
            <Keyframe id="1549"  time="792/1" value="0" leadInLength="30/1"  interpolater="leadin-linr"  />
            <Keyframe id="1550"  time="875/1" value="0" leadInLength="30/1"  interpolater="leadin-linr"  />
            <Keyframe id="1551"  time="1047/1" value="0" leadInLength="30/1"  interpolater="leadin-linr"  />
            <Keyframe id="1552"  time="1125/1" value="0" leadInLength="30/1"  interpolater="leadin-linr"  />
            <Keyframe id="1553"  time="1338/1" value="0" leadInLength="30/1"  interpolater="leadin-linr"  />
            <Keyframe id="1554"  time="1438/1" value="0" leadInLength="30/1"  interpolater="leadin-linr"  />
            </Keyframes>
           </InterpolatingParam>
          </VectorParam>
          <VectorParam id="1555"  name="scale">
           <InterpolatingParam id="1556" interp="linr"  >
            <Keyframes>
            <Keyframe id="1557"  time="-9999999/1" value="0.66666666666666663" leadInLength="0/1"  />
            <Keyframe id="1558"  time="96/1" value="1.25" leadInLength="37/1"  interpolater="leadin-linr"  />
            <Keyframe id="1559"  time="330/1" value="0.91038406827880514" leadInLength="30/1"  interpolater="leadin-linr"  />
            <Keyframe id="1560"  time="535/1" value="0.97012802275960164" leadInLength="20/1"  interpolater="leadin-linr"  />
            <Keyframe id="1561"  time="550/1" value="0.91038406827880514" leadInLength="15/1"  interpolater="leadin-linr"  />
            <Keyframe id="1562"  time="602/1" value="1" leadInLength="30/1"  interpolater="leadin-linr"  />
            <Keyframe id="1563"  time="792/1" value="1" leadInLength="30/1"  interpolater="leadin-linr"  />
            <Keyframe id="1564"  time="875/1" value="1.29" leadInLength="30/1"  interpolater="leadin-linr"  />
            <Keyframe id="1565"  time="1047/1" value="0.91038406827880514" leadInLength="30/1"  interpolater="leadin-linr"  />
            <Keyframe id="1566"  time="1125/1" value="1.3999999999999999" leadInLength="30/1"  interpolater="leadin-linr"  />
            <Keyframe id="1567"  time="1338/1" value="1.3500000000000001" leadInLength="30/1"  interpolater="leadin-linr"  />
            <Keyframe id="1568"  time="1438/1" value="1.1799999999999999" leadInLength="30/1"  interpolater="leadin-linr"  />
            </Keyframes>
           </InterpolatingParam>
           <InterpolatingParam id="1569" interp="linr"  >
            <Keyframes>
            <Keyframe id="1570"  time="-9999999/1" value="0.66666666666666663" leadInLength="0/1"  />
            <Keyframe id="1571"  time="96/1" value="1.2498022812351708" leadInLength="37/1"  interpolater="leadin-linr"  />
            <Keyframe id="1572"  time="330/1" value="0.91024020227560054" leadInLength="30/1"  interpolater="leadin-linr"  />
            <Keyframe id="1573"  time="535/1" value="0.97008006742520014" leadInLength="20/1"  interpolater="leadin-linr"  />
            <Keyframe id="1574"  time="550/1" value="0.91024020227560054" leadInLength="15/1"  interpolater="leadin-linr"  />
            <Keyframe id="1575"  time="602/1" value="1" leadInLength="30/1"  interpolater="leadin-linr"  />
            <Keyframe id="1576"  time="792/1" value="1" leadInLength="30/1"  interpolater="leadin-linr"  />
            <Keyframe id="1577"  time="875/1" value="1.29" leadInLength="30/1"  interpolater="leadin-linr"  />
            <Keyframe id="1578"  time="1047/1" value="0.91024020227560054" leadInLength="30/1"  interpolater="leadin-linr"  />
            <Keyframe id="1579"  time="1125/1" value="1.3999999999999999" leadInLength="30/1"  interpolater="leadin-linr"  />
            <Keyframe id="1580"  time="1338/1" value="1.3497866624525927" leadInLength="30/1"  interpolater="leadin-linr"  />
            <Keyframe id="1581"  time="1438/1" value="1.1800000000000002" leadInLength="30/1"  interpolater="leadin-linr"  />
            </Keyframes>
           </InterpolatingParam>
           <InterpolatingParam id="1582" interp="linr"  >
            <Keyframes>
            <Keyframe id="1583"  time="-9999999/1" value="1" leadInLength="0/1"  />
            <Keyframe id="1584"  time="96/1" value="1" leadInLength="37/1"  interpolater="leadin-linr"  />
            <Keyframe id="1585"  time="330/1" value="1" leadInLength="30/1"  interpolater="leadin-linr"  />
            <Keyframe id="1586"  time="535/1" value="1" leadInLength="20/1"  interpolater="leadin-linr"  />
            <Keyframe id="1587"  time="550/1" value="1" leadInLength="15/1"  interpolater="leadin-linr"  />
            <Keyframe id="1588"  time="602/1" value="1" leadInLength="30/1"  interpolater="leadin-linr"  />
            <Keyframe id="1589"  time="792/1" value="1" leadInLength="30/1"  interpolater="leadin-linr"  />
            <Keyframe id="1590"  time="875/1" value="1" leadInLength="30/1"  interpolater="leadin-linr"  />
            <Keyframe id="1591"  time="1047/1" value="1" leadInLength="30/1"  interpolater="leadin-linr"  />
            <Keyframe id="1592"  time="1125/1" value="1" leadInLength="30/1"  interpolater="leadin-linr"  />
            <Keyframe id="1593"  time="1338/1" value="1" leadInLength="30/1"  interpolater="leadin-linr"  />
            <Keyframe id="1594"  time="1438/1" value="1" leadInLength="30/1"  interpolater="leadin-linr"  />
            </Keyframes>
           </InterpolatingParam>
          </VectorParam>
          <VectorParam id="1595"  name="anchor">
           <InterpolatingParam id="1596" interp="linr"  time="0/1" value="0" leadInLength="0/1"  />
           <InterpolatingParam id="1597" interp="linr"  time="0/1" value="0" leadInLength="0/1"  />
           <InterpolatingParam id="1598" interp="linr"  time="0/1" value="0" leadInLength="0/1"  />
          </VectorParam>
         </Transformer>
         <Parameters>
          <VectorParam id="1599"  name="sourceCrop">
           <InterpolatingParam id="1600" interp="linr"  time="0/1" value="0" leadInLength="0/1"  />
           <InterpolatingParam id="1601" interp="linr"  time="0/1" value="0" leadInLength="0/1"  />
           <InterpolatingParam id="1602" interp="linr"  time="0/1" value="0" leadInLength="0/1"  />
           <InterpolatingParam id="1603" interp="linr"  time="0/1" value="0" leadInLength="0/1"  />
          </VectorParam>
          <VectorParam id="1604"  name="geometryCrop">
           <InterpolatingParam id="1605" interp="linr"  >
            <Keyframes>
            <Keyframe id="1606"  time="-9999999/1" value="0" leadInLength="0/1"  />
            <Keyframe id="1607"  time="96/1" value="0" leadInLength="37/1"  interpolater="leadin-linr"  />
            <Keyframe id="1608"  time="330/1" value="0" leadInLength="30/1"  interpolater="leadin-linr"  />
            <Keyframe id="1609"  time="535/1" value="0" leadInLength="20/1"  interpolater="leadin-linr"  />
            <Keyframe id="1610"  time="550/1" value="0" leadInLength="15/1"  interpolater="leadin-linr"  />
            <Keyframe id="1611"  time="602/1" value="0" leadInLength="30/1"  interpolater="leadin-linr"  />
            <Keyframe id="1612"  time="792/1" value="0" leadInLength="30/1"  interpolater="leadin-linr"  />
            <Keyframe id="1613"  time="875/1" value="0" leadInLength="30/1"  interpolater="leadin-linr"  />
            <Keyframe id="1614"  time="1047/1" value="0" leadInLength="30/1"  interpolater="leadin-linr"  />
            <Keyframe id="1615"  time="1125/1" value="0" leadInLength="30/1"  interpolater="leadin-linr"  />
            <Keyframe id="1616"  time="1338/1" value="0" leadInLength="30/1"  interpolater="leadin-linr"  />
            <Keyframe id="1617"  time="1438/1" value="0" leadInLength="30/1"  interpolater="leadin-linr"  />
            </Keyframes>
           </InterpolatingParam>
           <InterpolatingParam id="1618" interp="linr"  >
            <Keyframes>
            <Keyframe id="1619"  time="-9999999/1" value="0" leadInLength="0/1"  />
            <Keyframe id="1620"  time="96/1" value="0" leadInLength="37/1"  interpolater="leadin-linr"  />
            <Keyframe id="1621"  time="330/1" value="0" leadInLength="30/1"  interpolater="leadin-linr"  />
            <Keyframe id="1622"  time="535/1" value="0" leadInLength="20/1"  interpolater="leadin-linr"  />
            <Keyframe id="1623"  time="550/1" value="0" leadInLength="15/1"  interpolater="leadin-linr"  />
            <Keyframe id="1624"  time="602/1" value="0" leadInLength="30/1"  interpolater="leadin-linr"  />
            <Keyframe id="1625"  time="792/1" value="0" leadInLength="30/1"  interpolater="leadin-linr"  />
            <Keyframe id="1626"  time="875/1" value="0" leadInLength="30/1"  interpolater="leadin-linr"  />
            <Keyframe id="1627"  time="1047/1" value="0" leadInLength="30/1"  interpolater="leadin-linr"  />
            <Keyframe id="1628"  time="1125/1" value="0" leadInLength="30/1"  interpolater="leadin-linr"  />
            <Keyframe id="1629"  time="1338/1" value="0" leadInLength="30/1"  interpolater="leadin-linr"  />
            <Keyframe id="1630"  time="1438/1" value="0" leadInLength="30/1"  interpolater="leadin-linr"  />
            </Keyframes>
           </InterpolatingParam>
           <InterpolatingParam id="1631" interp="linr"  >
            <Keyframes>
            <Keyframe id="1632"  time="-9999999/1" value="0" leadInLength="0/1"  />
            <Keyframe id="1633"  time="96/1" value="0" leadInLength="37/1"  interpolater="leadin-linr"  />
            <Keyframe id="1634"  time="330/1" value="0" leadInLength="30/1"  interpolater="leadin-linr"  />
            <Keyframe id="1635"  time="535/1" value="0" leadInLength="20/1"  interpolater="leadin-linr"  />
            <Keyframe id="1636"  time="550/1" value="0" leadInLength="15/1"  interpolater="leadin-linr"  />
            <Keyframe id="1637"  time="602/1" value="0" leadInLength="30/1"  interpolater="leadin-linr"  />
            <Keyframe id="1638"  time="792/1" value="0" leadInLength="30/1"  interpolater="leadin-linr"  />
            <Keyframe id="1639"  time="875/1" value="0" leadInLength="30/1"  interpolater="leadin-linr"  />
            <Keyframe id="1640"  time="1047/1" value="0" leadInLength="30/1"  interpolater="leadin-linr"  />
            <Keyframe id="1641"  time="1125/1" value="0" leadInLength="30/1"  interpolater="leadin-linr"  />
            <Keyframe id="1642"  time="1338/1" value="0" leadInLength="30/1"  interpolater="leadin-linr"  />
            <Keyframe id="1643"  time="1438/1" value="0" leadInLength="30/1"  interpolater="leadin-linr"  />
            </Keyframes>
           </InterpolatingParam>
           <InterpolatingParam id="1644" interp="linr"  >
            <Keyframes>
            <Keyframe id="1645"  time="-9999999/1" value="0" leadInLength="0/1"  />
            <Keyframe id="1646"  time="96/1" value="0" leadInLength="37/1"  interpolater="leadin-linr"  />
            <Keyframe id="1647"  time="330/1" value="0" leadInLength="30/1"  interpolater="leadin-linr"  />
            <Keyframe id="1648"  time="535/1" value="0" leadInLength="20/1"  interpolater="leadin-linr"  />
            <Keyframe id="1649"  time="550/1" value="0" leadInLength="15/1"  interpolater="leadin-linr"  />
            <Keyframe id="1650"  time="602/1" value="0" leadInLength="30/1"  interpolater="leadin-linr"  />
            <Keyframe id="1651"  time="792/1" value="0" leadInLength="30/1"  interpolater="leadin-linr"  />
            <Keyframe id="1652"  time="875/1" value="0" leadInLength="30/1"  interpolater="leadin-linr"  />
            <Keyframe id="1653"  time="1047/1" value="0" leadInLength="30/1"  interpolater="leadin-linr"  />
            <Keyframe id="1654"  time="1125/1" value="0" leadInLength="30/1"  interpolater="leadin-linr"  />
            <Keyframe id="1655"  time="1338/1" value="0" leadInLength="30/1"  interpolater="leadin-linr"  />
            <Keyframe id="1656"  time="1438/1" value="0" leadInLength="30/1"  interpolater="leadin-linr"  />
            </Keyframes>
           </InterpolatingParam>
          </VectorParam>
          <InterpolatingParam id="1657" interp="linr"  name="opacity">
           <Keyframes>
           <Keyframe id="1658"  time="-9999999/1" value="1" leadInLength="0/1"  />
           <Keyframe id="1659"  time="96/1" value="1" leadInLength="37/1"  interpolater="leadin-linr"  />
           <Keyframe id="1660"  time="330/1" value="1" leadInLength="30/1"  interpolater="leadin-linr"  />
           <Keyframe id="1661"  time="535/1" value="1" leadInLength="20/1"  interpolater="leadin-linr"  />
           <Keyframe id="1662"  time="550/1" value="1" leadInLength="15/1"  interpolater="leadin-linr"  />
           <Keyframe id="1663"  time="602/1" value="1" leadInLength="30/1"  interpolater="leadin-linr"  />
           <Keyframe id="1664"  time="792/1" value="1" leadInLength="30/1"  interpolater="leadin-linr"  />
           <Keyframe id="1665"  time="875/1" value="1" leadInLength="30/1"  interpolater="leadin-linr"  />
           <Keyframe id="1666"  time="1047/1" value="1" leadInLength="30/1"  interpolater="leadin-linr"  />
           <Keyframe id="1667"  time="1125/1" value="1" leadInLength="30/1"  interpolater="leadin-linr"  />
           <Keyframe id="1668"  time="1338/1" value="1" leadInLength="30/1"  interpolater="leadin-linr"  />
           <Keyframe id="1669"  time="1438/1" value="1" leadInLength="30/1"  interpolater="leadin-linr"  />
           </Keyframes>
          </InterpolatingParam>
          <Parameter id="1670"  name="quiz">
           <Keyframes>
           <Keyframe id="1671"  time="91/1" value="&lt;Quiz id=&quot;1001&quot; name=&quot;Quiz 1&quot;&gt;&lt;Options feedback=&quot;1&quot; graded=&quot;1&quot;/&gt;&lt;Questions&gt;&lt;MultipleChoice id=&quot;101&quot; text=&quot;Default Question Text&quot; scored=&quot;1&quot;&gt;&lt;Answers&gt;&lt;Answer id=&quot;1&quot; text=&quot;Default Answer Text&quot; iscorrect=&quot;1&quot;/&gt;&lt;/Answers&gt;&lt;/MultipleChoice&gt;&lt;/Questions&gt;&lt;/Quiz&gt;" leadInLength="0/1"  />
           </Keyframes>
          </Parameter>
          <InterpolatingParam id="1672" interp="linr"  time="0/1" value="1" leadInLength="0/1"  name="cursorOpacity"/>
          <InterpolatingParam id="1673" interp="linr"  time="0/1" value="1" leadInLength="0/1"  name="cursorScale"/>
          <InterpolatingParam id="1674" interp="linr"  name="volume">
           <Keyframes>
           <Keyframe id="1675"  time="0/1" value="1.3133640552995391" leadInLength="0/1"  />
           <Keyframe id="1676"  time="1400/1" value="1.3133640552995391" leadInLength="0/1"  />
           <Keyframe id="1677"  time="1401/1" value="0" leadInLength="0/1"  />
           <Keyframe id="1678"  time="1429/1" value="0" leadInLength="0/1"  />
           <Keyframe id="1679"  time="1430/1" value="1.3133640552995391" leadInLength="0/1"  />
           </Keyframes>
          </InterpolatingParam>
          <Parameter id="1680"  name="captions"/>
         </Parameters>
         <Effects>
          <GenericEffect id="1681" name = "CursorBaseEffectName" >
           <Parameters>
           <InterpolatingParam id="1682" interp="linr"  time="-9999999/1" value="1" leadInLength="0/1"   name="cursorSize"/>
           <InterpolatingParam id="1683" interp="linr"  time="-9999999/1" value="0" leadInLength="0/1"   name="highlightBlurRadius"/>
           <InterpolatingParam id="1684" interp="linr"  time="-9999999/1" value="0" leadInLength="0/1"   name="highlightColorBlue"/>
           <InterpolatingParam id="1685" interp="linr"  time="-9999999/1" value="255" leadInLength="0/1"   name="highlightColorGreen"/>
           <InterpolatingParam id="1686" interp="linr"  time="-9999999/1" value="255" leadInLength="0/1"   name="highlightColorRed"/>
           <InterpolatingParam id="1687" interp="linr"  time="-9999999/1" value="5" leadInLength="0/1"   name="highlightFeatherSize"/>
           <InterpolatingParam id="1688" interp="linr"  time="-9999999/1" value="2" leadInLength="0/1"   name="highlightMagnification"/>
           <InterpolatingParam id="1689" interp="linr"  time="-9999999/1" value="1" leadInLength="0/1"   name="highlightOpacity"/>
           <InterpolatingParam id="1690" interp="linr"  time="-9999999/1" value="45" leadInLength="0/1"   name="highlightSize"/>
           <Parameter id="1691"   name="highlightType">
            <Keyframes>
            <Keyframe id="1692"  time="-9999999/1" value="0" leadInLength="0/1"  />
            </Keyframes>
           </Parameter>
           <InterpolatingParam id="1693" interp="linr"  time="-9999999/1" value="0" leadInLength="0/1"   name="leftClickColorBlue"/>
           <InterpolatingParam id="1694" interp="linr"  time="-9999999/1" value="0" leadInLength="0/1"   name="leftClickColorGreen"/>
           <InterpolatingParam id="1695" interp="linr"  time="-9999999/1" value="255" leadInLength="0/1"   name="leftClickColorRed"/>
           <InterpolatingParam id="1696" interp="linr"  time="-9999999/1" value="0.80000000000000004" leadInLength="0/1"   name="leftClickDuration"/>
           <InterpolatingParam id="1697" interp="linr"  time="-9999999/1" value="20" leadInLength="0/1"   name="leftClickSize"/>
           <Parameter id="1698"   name="leftClickSoundFilename">
            <Keyframes>
            <Keyframe id="1699"  time="-9999999/1" value="" leadInLength="0/1"  />
            </Keyframes>
           </Parameter>
           <InterpolatingParam id="1700" interp="linr"  time="-9999999/1" value="1" leadInLength="0/1"   name="leftClickSoundVolume"/>
           <Parameter id="1701"   name="leftClickType">
            <Keyframes>
            <Keyframe id="1702"  time="-9999999/1" value="0" leadInLength="0/1"  />
            </Keyframes>
           </Parameter>
           <InterpolatingParam id="1703" interp="linr"  time="-9999999/1" value="1" leadInLength="0/1"   name="opacity"/>
           <InterpolatingParam id="1704" interp="linr"  time="-9999999/1" value="255" leadInLength="0/1"   name="rightClickColorBlue"/>
           <InterpolatingParam id="1705" interp="linr"  time="-9999999/1" value="0" leadInLength="0/1"   name="rightClickColorGreen"/>
           <InterpolatingParam id="1706" interp="linr"  time="-9999999/1" value="0" leadInLength="0/1"   name="rightClickColorRed"/>
           <InterpolatingParam id="1707" interp="linr"  time="-9999999/1" value="0.80000000000000004" leadInLength="0/1"   name="rightClickDuration"/>
           <InterpolatingParam id="1708" interp="linr"  time="-9999999/1" value="20" leadInLength="0/1"   name="rightClickSize"/>
           <Parameter id="1709"   name="rightClickSoundFilename">
            <Keyframes>
            <Keyframe id="1710"  time="-9999999/1" value="" leadInLength="0/1"  />
            </Keyframes>
           </Parameter>
           <InterpolatingParam id="1711" interp="linr"  time="-9999999/1" value="1" leadInLength="0/1"   name="rightClickSoundVolume"/>
           <Parameter id="1712"   name="rightClickType">
            <Keyframes>
            <Keyframe id="1713"  time="-9999999/1" value="0" leadInLength="0/1"  />
            </Keyframes>
           </Parameter>
           </Parameters>
           <MetaData>
            <entry key="effectIndex" val="0"/>
           </MetaData>
          </GenericEffect>
         </Effects>
         <Attributes>
          <Attribute id="1714" value="" name="ident"/>
          <Attribute id="1715" value="0" name="mixToMono"/>
         </Attributes>
         <MetaData>
          <entry key="AutoAppliedSmartFocus" val="False"/>
          <entry key="WinSubProjectDisplayName" val=""/>
         </MetaData>
         <ExtraData>
          <Entry key="ZoomPanBin">
           <ZoomPanBin id="1716"  >
            <ZoomPanKeyframes>
             <ZoomPanKeyframe id="1717" timeRangeEnd="-9999999/1" timeRangeDuration="0/1" interpolaterName=""  />
             <ZoomPanKeyframe id="1718" timeRangeEnd="330/1" timeRangeDuration="30/1" interpolaterName="linr"  />
             <ZoomPanKeyframe id="1719" timeRangeEnd="535/1" timeRangeDuration="20/1" interpolaterName="linr"  />
             <ZoomPanKeyframe id="1720" timeRangeEnd="550/1" timeRangeDuration="15/1" interpolaterName="linr"  />
             <ZoomPanKeyframe id="1721" timeRangeEnd="602/1" timeRangeDuration="30/1" interpolaterName="linr"  />
             <ZoomPanKeyframe id="1722" timeRangeEnd="792/1" timeRangeDuration="30/1" interpolaterName="linr"  />
             <ZoomPanKeyframe id="1723" timeRangeEnd="1047/1" timeRangeDuration="30/1" interpolaterName="linr"  />
             <ZoomPanKeyframe id="1724" timeRangeEnd="1125/1" timeRangeDuration="30/1" interpolaterName="linr"  />
             <ZoomPanKeyframe id="1725" timeRangeEnd="1338/1" timeRangeDuration="30/1" interpolaterName="linr"  />
             <ZoomPanKeyframe id="1726" timeRangeEnd="96/1" timeRangeDuration="37/1" interpolaterName="linr"  />
             <ZoomPanKeyframe id="1727" timeRangeEnd="875/1" timeRangeDuration="30/1" interpolaterName="linr"  />
             <ZoomPanKeyframe id="1728" timeRangeEnd="1438/1" timeRangeDuration="30/1" interpolaterName="linr"  />
            </ZoomPanKeyframes>
           </ZoomPanBin>
          </Entry>
          <Entry key="CursorEffectBin">
           <CursorEffectBin id="1729"  >
            <CursorEffectKeyframes>
             <CursorEffectKeyframe id="1730" timeRangeEnd="-9999999/1" timeRangeDuration="0/1" interpolaterName=""  />
            </CursorEffectKeyframes>
           </CursorEffectBin>
          </Entry>
         </ExtraData>
         <GenericTrack id="1731"  >
          <Attributes>
           <Attribute id="1732" value="" name="ident"/>
           <Attribute id="1733" value="0" name="audioMuted"/>
           <Attribute id="1734" value="0" name="videoHidden"/>
          </Attributes>
          <MetaData>
           <entry key="IsLocked" val="False"/>
           <entry key="WinTrackHeight" val="0"/>
          </MetaData>
          <Medias>
           <UnifiedMedia id="1735"  >
            <AMFile id="1736" start="0" duration="530" scalar="1/1" mediaStart="0/1" mediaDuration="530/1" trackNumber="1" src="5" channelNumber="0,1" >
             <Parameters>
              <InterpolatingParam id="1737" interp="linr"  time="0/1" value="1" leadInLength="0/1"  name="volume"/>
              <Parameter id="1738"  name="captions"/>
             </Parameters>
             <Attributes>
              <Attribute id="1739" value="" name="ident"/>
              <Attribute id="1740" value="44100" name="sampleRate"/>
              <Attribute id="1741" value="16" name="bitDepth"/>
              <Attribute id="1742" value="1" name="gain"/>
              <Attribute id="1743" value="0" name="mixToMono"/>
             </Attributes>
            </AMFile>
            <ScreenVMFile id="1744" start="0" duration="530" scalar="1/1" mediaStart="0/1" mediaDuration="530/1" trackNumber="0" src="5" >
             <Transformer>
              <VectorParam id="1745"  name="translation">
               <InterpolatingParam id="1746" interp="linr"  time="-9999999/1" value="0" leadInLength="0/1"  />
               <InterpolatingParam id="1747" interp="linr"  time="-9999999/1" value="0" leadInLength="0/1"  />
               <InterpolatingParam id="1748" interp="linr"  time="-9999999/1" value="0" leadInLength="0/1"  />
              </VectorParam>
              <VectorParam id="1749"  name="rotation">
               <InterpolatingParam id="1750" interp="linr"  time="-9999999/1" value="0" leadInLength="0/1"  />
               <InterpolatingParam id="1751" interp="linr"  time="-9999999/1" value="0" leadInLength="0/1"  />
               <InterpolatingParam id="1752" interp="linr"  time="-9999999/1" value="0" leadInLength="0/1"  />
              </VectorParam>
              <VectorParam id="1753"  name="shear">
               <InterpolatingParam id="1754" interp="linr"  time="-9999999/1" value="0" leadInLength="0/1"  />
               <InterpolatingParam id="1755" interp="linr"  time="-9999999/1" value="0" leadInLength="0/1"  />
               <InterpolatingParam id="1756" interp="linr"  time="-9999999/1" value="0" leadInLength="0/1"  />
              </VectorParam>
              <VectorParam id="1757"  name="scale">
               <InterpolatingParam id="1758" interp="linr"  time="-9999999/1" value="1" leadInLength="0/1"  />
               <InterpolatingParam id="1759" interp="linr"  time="-9999999/1" value="1" leadInLength="0/1"  />
               <InterpolatingParam id="1760" interp="linr"  time="-9999999/1" value="1" leadInLength="0/1"  />
              </VectorParam>
              <VectorParam id="1761"  name="anchor">
               <InterpolatingParam id="1762" interp="linr"  time="0/1" value="0" leadInLength="0/1"  />
               <InterpolatingParam id="1763" interp="linr"  time="0/1" value="0" leadInLength="0/1"  />
               <InterpolatingParam id="1764" interp="linr"  time="0/1" value="0" leadInLength="0/1"  />
              </VectorParam>
             </Transformer>
             <Parameters>
              <VectorParam id="1765"  name="sourceCrop">
               <InterpolatingParam id="1766" interp="linr"  time="0/1" value="0" leadInLength="0/1"  />
               <InterpolatingParam id="1767" interp="linr"  time="0/1" value="0" leadInLength="0/1"  />
               <InterpolatingParam id="1768" interp="linr"  time="0/1" value="0" leadInLength="0/1"  />
               <InterpolatingParam id="1769" interp="linr"  time="0/1" value="0" leadInLength="0/1"  />
              </VectorParam>
              <VectorParam id="1770"  name="geometryCrop">
               <InterpolatingParam id="1771" interp="linr"  time="-9999999/1" value="0" leadInLength="0/1"  />
               <InterpolatingParam id="1772" interp="linr"  time="-9999999/1" value="0" leadInLength="0/1"  />
               <InterpolatingParam id="1773" interp="linr"  time="-9999999/1" value="0" leadInLength="0/1"  />
               <InterpolatingParam id="1774" interp="linr"  time="-9999999/1" value="0" leadInLength="0/1"  />
              </VectorParam>
              <InterpolatingParam id="1775" interp="linr"  time="-9999999/1" value="1" leadInLength="0/1"  name="opacity"/>
              <InterpolatingParam id="1776" interp="linr"  time="0/1" value="0" leadInLength="0/1"  name="cursorOpacity"/>
              <InterpolatingParam id="1777" interp="linr"  time="0/1" value="0" leadInLength="0/1"  name="cursorScale"/>
             </Parameters>
             <Attributes>
              <Attribute id="1778" value="" name="ident"/>
             </Attributes>
             <ExtraData>
              <Entry key="ZoomPanBin">
               <ZoomPanBin id="1779"  >
                <ZoomPanKeyframes>
                 <ZoomPanKeyframe id="1780" timeRangeEnd="-9999999/1" timeRangeDuration="0/1" interpolaterName=""  />
                </ZoomPanKeyframes>
               </ZoomPanBin>
              </Entry>
              <Entry key="CursorEffectBin">
               <CursorEffectBin id="1781"  >
                <CursorEffectKeyframes>
                </CursorEffectKeyframes>
               </CursorEffectBin>
              </Entry>
             </ExtraData>
            </ScreenVMFile>
            <MetaData>
             <entry key="AutoAppliedSmartFocus" val="True"/>
             <entry key="WinSubProjectDisplayName" val=""/>
            </MetaData>
           </UnifiedMedia>
           <UnifiedMedia id="1782"  >
            <AMFile id="1783" start="530" duration="5" scalar="1/1" mediaStart="730/1" mediaDuration="5/1" trackNumber="1" src="5" channelNumber="0,1" >
             <Parameters>
              <InterpolatingParam id="1784" interp="linr"  time="0/1" value="1" leadInLength="0/1"  name="volume"/>
              <Parameter id="1785"  name="captions"/>
             </Parameters>
             <Attributes>
              <Attribute id="1786" value="" name="ident"/>
              <Attribute id="1787" value="44100" name="sampleRate"/>
              <Attribute id="1788" value="16" name="bitDepth"/>
              <Attribute id="1789" value="1" name="gain"/>
              <Attribute id="1790" value="0" name="mixToMono"/>
             </Attributes>
            </AMFile>
            <ScreenVMFile id="1791" start="530" duration="5" scalar="1/1" mediaStart="730/1" mediaDuration="5/1" trackNumber="0" src="5" >
             <Transformer>
              <VectorParam id="1792"  name="translation">
               <InterpolatingParam id="1793" interp="linr"  time="-9999999/1" value="0" leadInLength="0/1"  />
               <InterpolatingParam id="1794" interp="linr"  time="-9999999/1" value="0" leadInLength="0/1"  />
               <InterpolatingParam id="1795" interp="linr"  time="-9999999/1" value="0" leadInLength="0/1"  />
              </VectorParam>
              <VectorParam id="1796"  name="rotation">
               <InterpolatingParam id="1797" interp="linr"  time="-9999999/1" value="0" leadInLength="0/1"  />
               <InterpolatingParam id="1798" interp="linr"  time="-9999999/1" value="0" leadInLength="0/1"  />
               <InterpolatingParam id="1799" interp="linr"  time="-9999999/1" value="0" leadInLength="0/1"  />
              </VectorParam>
              <VectorParam id="1800"  name="shear">
               <InterpolatingParam id="1801" interp="linr"  time="-9999999/1" value="0" leadInLength="0/1"  />
               <InterpolatingParam id="1802" interp="linr"  time="-9999999/1" value="0" leadInLength="0/1"  />
               <InterpolatingParam id="1803" interp="linr"  time="-9999999/1" value="0" leadInLength="0/1"  />
              </VectorParam>
              <VectorParam id="1804"  name="scale">
               <InterpolatingParam id="1805" interp="linr"  time="-9999999/1" value="1" leadInLength="0/1"  />
               <InterpolatingParam id="1806" interp="linr"  time="-9999999/1" value="1" leadInLength="0/1"  />
               <InterpolatingParam id="1807" interp="linr"  time="-9999999/1" value="1" leadInLength="0/1"  />
              </VectorParam>
              <VectorParam id="1808"  name="anchor">
               <InterpolatingParam id="1809" interp="linr"  time="0/1" value="0" leadInLength="0/1"  />
               <InterpolatingParam id="1810" interp="linr"  time="0/1" value="0" leadInLength="0/1"  />
               <InterpolatingParam id="1811" interp="linr"  time="0/1" value="0" leadInLength="0/1"  />
              </VectorParam>
             </Transformer>
             <Parameters>
              <VectorParam id="1812"  name="sourceCrop">
               <InterpolatingParam id="1813" interp="linr"  time="0/1" value="0" leadInLength="0/1"  />
               <InterpolatingParam id="1814" interp="linr"  time="0/1" value="0" leadInLength="0/1"  />
               <InterpolatingParam id="1815" interp="linr"  time="0/1" value="0" leadInLength="0/1"  />
               <InterpolatingParam id="1816" interp="linr"  time="0/1" value="0" leadInLength="0/1"  />
              </VectorParam>
              <VectorParam id="1817"  name="geometryCrop">
               <InterpolatingParam id="1818" interp="linr"  time="-9999999/1" value="0" leadInLength="0/1"  />
               <InterpolatingParam id="1819" interp="linr"  time="-9999999/1" value="0" leadInLength="0/1"  />
               <InterpolatingParam id="1820" interp="linr"  time="-9999999/1" value="0" leadInLength="0/1"  />
               <InterpolatingParam id="1821" interp="linr"  time="-9999999/1" value="0" leadInLength="0/1"  />
              </VectorParam>
              <InterpolatingParam id="1822" interp="linr"  time="-9999999/1" value="1" leadInLength="0/1"  name="opacity"/>
              <InterpolatingParam id="1823" interp="linr"  time="0/1" value="0" leadInLength="0/1"  name="cursorOpacity"/>
              <InterpolatingParam id="1824" interp="linr"  time="0/1" value="0" leadInLength="0/1"  name="cursorScale"/>
             </Parameters>
             <Attributes>
              <Attribute id="1825" value="" name="ident"/>
             </Attributes>
             <ExtraData>
              <Entry key="ZoomPanBin">
               <ZoomPanBin id="1826"  >
                <ZoomPanKeyframes>
                 <ZoomPanKeyframe id="1827" timeRangeEnd="-9999999/1" timeRangeDuration="0/1" interpolaterName=""  />
                </ZoomPanKeyframes>
               </ZoomPanBin>
              </Entry>
              <Entry key="CursorEffectBin">
               <CursorEffectBin id="1828"  >
                <CursorEffectKeyframes>
                </CursorEffectKeyframes>
               </CursorEffectBin>
              </Entry>
             </ExtraData>
            </ScreenVMFile>
            <MetaData>
             <entry key="AutoAppliedSmartFocus" val="True"/>
             <entry key="WinSubProjectDisplayName" val=""/>
            </MetaData>
           </UnifiedMedia>
           <UnifiedMedia id="1829"  >
            <AMFile id="1830" start="535" duration="575" scalar="1/1" mediaStart="1787/1" mediaDuration="575/1" trackNumber="1" src="5" channelNumber="0,1" >
             <Parameters>
              <InterpolatingParam id="1831" interp="linr"  time="0/1" value="1" leadInLength="0/1"  name="volume"/>
              <Parameter id="1832"  name="captions"/>
             </Parameters>
             <Attributes>
              <Attribute id="1833" value="" name="ident"/>
              <Attribute id="1834" value="44100" name="sampleRate"/>
              <Attribute id="1835" value="16" name="bitDepth"/>
              <Attribute id="1836" value="1" name="gain"/>
              <Attribute id="1837" value="0" name="mixToMono"/>
             </Attributes>
            </AMFile>
            <ScreenVMFile id="1838" start="535" duration="575" scalar="1/1" mediaStart="1787/1" mediaDuration="575/1" trackNumber="0" src="5" >
             <Transformer>
              <VectorParam id="1839"  name="translation">
               <InterpolatingParam id="1840" interp="linr"  time="-9999999/1" value="0" leadInLength="0/1"  />
               <InterpolatingParam id="1841" interp="linr"  time="-9999999/1" value="0" leadInLength="0/1"  />
               <InterpolatingParam id="1842" interp="linr"  time="-9999999/1" value="0" leadInLength="0/1"  />
              </VectorParam>
              <VectorParam id="1843"  name="rotation">
               <InterpolatingParam id="1844" interp="linr"  time="-9999999/1" value="0" leadInLength="0/1"  />
               <InterpolatingParam id="1845" interp="linr"  time="-9999999/1" value="0" leadInLength="0/1"  />
               <InterpolatingParam id="1846" interp="linr"  time="-9999999/1" value="0" leadInLength="0/1"  />
              </VectorParam>
              <VectorParam id="1847"  name="shear">
               <InterpolatingParam id="1848" interp="linr"  time="-9999999/1" value="0" leadInLength="0/1"  />
               <InterpolatingParam id="1849" interp="linr"  time="-9999999/1" value="0" leadInLength="0/1"  />
               <InterpolatingParam id="1850" interp="linr"  time="-9999999/1" value="0" leadInLength="0/1"  />
              </VectorParam>
              <VectorParam id="1851"  name="scale">
               <InterpolatingParam id="1852" interp="linr"  time="-9999999/1" value="1" leadInLength="0/1"  />
               <InterpolatingParam id="1853" interp="linr"  time="-9999999/1" value="1" leadInLength="0/1"  />
               <InterpolatingParam id="1854" interp="linr"  time="-9999999/1" value="1" leadInLength="0/1"  />
              </VectorParam>
              <VectorParam id="1855"  name="anchor">
               <InterpolatingParam id="1856" interp="linr"  time="0/1" value="0" leadInLength="0/1"  />
               <InterpolatingParam id="1857" interp="linr"  time="0/1" value="0" leadInLength="0/1"  />
               <InterpolatingParam id="1858" interp="linr"  time="0/1" value="0" leadInLength="0/1"  />
              </VectorParam>
             </Transformer>
             <Parameters>
              <VectorParam id="1859"  name="sourceCrop">
               <InterpolatingParam id="1860" interp="linr"  time="0/1" value="0" leadInLength="0/1"  />
               <InterpolatingParam id="1861" interp="linr"  time="0/1" value="0" leadInLength="0/1"  />
               <InterpolatingParam id="1862" interp="linr"  time="0/1" value="0" leadInLength="0/1"  />
               <InterpolatingParam id="1863" interp="linr"  time="0/1" value="0" leadInLength="0/1"  />
              </VectorParam>
              <VectorParam id="1864"  name="geometryCrop">
               <InterpolatingParam id="1865" interp="linr"  time="-9999999/1" value="0" leadInLength="0/1"  />
               <InterpolatingParam id="1866" interp="linr"  time="-9999999/1" value="0" leadInLength="0/1"  />
               <InterpolatingParam id="1867" interp="linr"  time="-9999999/1" value="0" leadInLength="0/1"  />
               <InterpolatingParam id="1868" interp="linr"  time="-9999999/1" value="0" leadInLength="0/1"  />
              </VectorParam>
              <InterpolatingParam id="1869" interp="linr"  time="-9999999/1" value="1" leadInLength="0/1"  name="opacity"/>
              <InterpolatingParam id="1870" interp="linr"  time="0/1" value="0" leadInLength="0/1"  name="cursorOpacity"/>
              <InterpolatingParam id="1871" interp="linr"  time="0/1" value="0" leadInLength="0/1"  name="cursorScale"/>
             </Parameters>
             <Attributes>
              <Attribute id="1872" value="" name="ident"/>
             </Attributes>
             <ExtraData>
              <Entry key="ZoomPanBin">
               <ZoomPanBin id="1873"  >
                <ZoomPanKeyframes>
                 <ZoomPanKeyframe id="1874" timeRangeEnd="-9999999/1" timeRangeDuration="0/1" interpolaterName=""  />
                </ZoomPanKeyframes>
               </ZoomPanBin>
              </Entry>
              <Entry key="CursorEffectBin">
               <CursorEffectBin id="1875"  >
                <CursorEffectKeyframes>
                </CursorEffectKeyframes>
               </CursorEffectBin>
              </Entry>
             </ExtraData>
            </ScreenVMFile>
            <MetaData>
             <entry key="AutoAppliedSmartFocus" val="True"/>
             <entry key="WinSubProjectDisplayName" val=""/>
            </MetaData>
           </UnifiedMedia>
           <UnifiedMedia id="1876"  >
            <AMFile id="1877" start="1110" duration="10" scalar="1/1" mediaStart="3045/1" mediaDuration="10/1" trackNumber="1" src="5" channelNumber="0,1" >
             <Parameters>
              <InterpolatingParam id="1878" interp="linr"  time="0/1" value="1" leadInLength="0/1"  name="volume"/>
              <Parameter id="1879"  name="captions"/>
             </Parameters>
             <Attributes>
              <Attribute id="1880" value="" name="ident"/>
              <Attribute id="1881" value="44100" name="sampleRate"/>
              <Attribute id="1882" value="16" name="bitDepth"/>
              <Attribute id="1883" value="1" name="gain"/>
              <Attribute id="1884" value="0" name="mixToMono"/>
             </Attributes>
            </AMFile>
            <ScreenVMFile id="1885" start="1110" duration="10" scalar="1/1" mediaStart="3045/1" mediaDuration="10/1" trackNumber="0" src="5" >
             <Transformer>
              <VectorParam id="1886"  name="translation">
               <InterpolatingParam id="1887" interp="linr"  time="-9999999/1" value="0" leadInLength="0/1"  />
               <InterpolatingParam id="1888" interp="linr"  time="-9999999/1" value="0" leadInLength="0/1"  />
               <InterpolatingParam id="1889" interp="linr"  time="-9999999/1" value="0" leadInLength="0/1"  />
              </VectorParam>
              <VectorParam id="1890"  name="rotation">
               <InterpolatingParam id="1891" interp="linr"  time="-9999999/1" value="0" leadInLength="0/1"  />
               <InterpolatingParam id="1892" interp="linr"  time="-9999999/1" value="0" leadInLength="0/1"  />
               <InterpolatingParam id="1893" interp="linr"  time="-9999999/1" value="0" leadInLength="0/1"  />
              </VectorParam>
              <VectorParam id="1894"  name="shear">
               <InterpolatingParam id="1895" interp="linr"  time="-9999999/1" value="0" leadInLength="0/1"  />
               <InterpolatingParam id="1896" interp="linr"  time="-9999999/1" value="0" leadInLength="0/1"  />
               <InterpolatingParam id="1897" interp="linr"  time="-9999999/1" value="0" leadInLength="0/1"  />
              </VectorParam>
              <VectorParam id="1898"  name="scale">
               <InterpolatingParam id="1899" interp="linr"  time="-9999999/1" value="1" leadInLength="0/1"  />
               <InterpolatingParam id="1900" interp="linr"  time="-9999999/1" value="1" leadInLength="0/1"  />
               <InterpolatingParam id="1901" interp="linr"  time="-9999999/1" value="1" leadInLength="0/1"  />
              </VectorParam>
              <VectorParam id="1902"  name="anchor">
               <InterpolatingParam id="1903" interp="linr"  time="0/1" value="0" leadInLength="0/1"  />
               <InterpolatingParam id="1904" interp="linr"  time="0/1" value="0" leadInLength="0/1"  />
               <InterpolatingParam id="1905" interp="linr"  time="0/1" value="0" leadInLength="0/1"  />
              </VectorParam>
             </Transformer>
             <Parameters>
              <VectorParam id="1906"  name="sourceCrop">
               <InterpolatingParam id="1907" interp="linr"  time="0/1" value="0" leadInLength="0/1"  />
               <InterpolatingParam id="1908" interp="linr"  time="0/1" value="0" leadInLength="0/1"  />
               <InterpolatingParam id="1909" interp="linr"  time="0/1" value="0" leadInLength="0/1"  />
               <InterpolatingParam id="1910" interp="linr"  time="0/1" value="0" leadInLength="0/1"  />
              </VectorParam>
              <VectorParam id="1911"  name="geometryCrop">
               <InterpolatingParam id="1912" interp="linr"  time="-9999999/1" value="0" leadInLength="0/1"  />
               <InterpolatingParam id="1913" interp="linr"  time="-9999999/1" value="0" leadInLength="0/1"  />
               <InterpolatingParam id="1914" interp="linr"  time="-9999999/1" value="0" leadInLength="0/1"  />
               <InterpolatingParam id="1915" interp="linr"  time="-9999999/1" value="0" leadInLength="0/1"  />
              </VectorParam>
              <InterpolatingParam id="1916" interp="linr"  time="-9999999/1" value="1" leadInLength="0/1"  name="opacity"/>
              <InterpolatingParam id="1917" interp="linr"  time="0/1" value="0" leadInLength="0/1"  name="cursorOpacity"/>
              <InterpolatingParam id="1918" interp="linr"  time="0/1" value="0" leadInLength="0/1"  name="cursorScale"/>
             </Parameters>
             <Attributes>
              <Attribute id="1919" value="" name="ident"/>
             </Attributes>
             <ExtraData>
              <Entry key="ZoomPanBin">
               <ZoomPanBin id="1920"  >
                <ZoomPanKeyframes>
                 <ZoomPanKeyframe id="1921" timeRangeEnd="-9999999/1" timeRangeDuration="0/1" interpolaterName=""  />
                </ZoomPanKeyframes>
               </ZoomPanBin>
              </Entry>
              <Entry key="CursorEffectBin">
               <CursorEffectBin id="1922"  >
                <CursorEffectKeyframes>
                </CursorEffectKeyframes>
               </CursorEffectBin>
              </Entry>
             </ExtraData>
            </ScreenVMFile>
            <MetaData>
             <entry key="AutoAppliedSmartFocus" val="True"/>
             <entry key="WinSubProjectDisplayName" val=""/>
            </MetaData>
           </UnifiedMedia>
           <UnifiedMedia id="1923"  >
            <AMFile id="1924" start="1120" duration="308" scalar="1/1" mediaStart="3204/1" mediaDuration="308/1" trackNumber="1" src="5" channelNumber="0,1" >
             <Parameters>
              <InterpolatingParam id="1925" interp="linr"  time="0/1" value="1" leadInLength="0/1"  name="volume"/>
              <Parameter id="1926"  name="captions"/>
             </Parameters>
             <Attributes>
              <Attribute id="1927" value="" name="ident"/>
              <Attribute id="1928" value="44100" name="sampleRate"/>
              <Attribute id="1929" value="16" name="bitDepth"/>
              <Attribute id="1930" value="1" name="gain"/>
              <Attribute id="1931" value="0" name="mixToMono"/>
             </Attributes>
            </AMFile>
            <ScreenVMFile id="1932" start="1120" duration="308" scalar="1/1" mediaStart="3204/1" mediaDuration="308/1" trackNumber="0" src="5" >
             <Transformer>
              <VectorParam id="1933"  name="translation">
               <InterpolatingParam id="1934" interp="linr"  time="-9999999/1" value="0" leadInLength="0/1"  />
               <InterpolatingParam id="1935" interp="linr"  time="-9999999/1" value="0" leadInLength="0/1"  />
               <InterpolatingParam id="1936" interp="linr"  time="-9999999/1" value="0" leadInLength="0/1"  />
              </VectorParam>
              <VectorParam id="1937"  name="rotation">
               <InterpolatingParam id="1938" interp="linr"  time="-9999999/1" value="0" leadInLength="0/1"  />
               <InterpolatingParam id="1939" interp="linr"  time="-9999999/1" value="0" leadInLength="0/1"  />
               <InterpolatingParam id="1940" interp="linr"  time="-9999999/1" value="0" leadInLength="0/1"  />
              </VectorParam>
              <VectorParam id="1941"  name="shear">
               <InterpolatingParam id="1942" interp="linr"  time="-9999999/1" value="0" leadInLength="0/1"  />
               <InterpolatingParam id="1943" interp="linr"  time="-9999999/1" value="0" leadInLength="0/1"  />
               <InterpolatingParam id="1944" interp="linr"  time="-9999999/1" value="0" leadInLength="0/1"  />
              </VectorParam>
              <VectorParam id="1945"  name="scale">
               <InterpolatingParam id="1946" interp="linr"  time="-9999999/1" value="1" leadInLength="0/1"  />
               <InterpolatingParam id="1947" interp="linr"  time="-9999999/1" value="1" leadInLength="0/1"  />
               <InterpolatingParam id="1948" interp="linr"  time="-9999999/1" value="1" leadInLength="0/1"  />
              </VectorParam>
              <VectorParam id="1949"  name="anchor">
               <InterpolatingParam id="1950" interp="linr"  time="0/1" value="0" leadInLength="0/1"  />
               <InterpolatingParam id="1951" interp="linr"  time="0/1" value="0" leadInLength="0/1"  />
               <InterpolatingParam id="1952" interp="linr"  time="0/1" value="0" leadInLength="0/1"  />
              </VectorParam>
             </Transformer>
             <Parameters>
              <VectorParam id="1953"  name="sourceCrop">
               <InterpolatingParam id="1954" interp="linr"  time="0/1" value="0" leadInLength="0/1"  />
               <InterpolatingParam id="1955" interp="linr"  time="0/1" value="0" leadInLength="0/1"  />
               <InterpolatingParam id="1956" interp="linr"  time="0/1" value="0" leadInLength="0/1"  />
               <InterpolatingParam id="1957" interp="linr"  time="0/1" value="0" leadInLength="0/1"  />
              </VectorParam>
              <VectorParam id="1958"  name="geometryCrop">
               <InterpolatingParam id="1959" interp="linr"  time="-9999999/1" value="0" leadInLength="0/1"  />
               <InterpolatingParam id="1960" interp="linr"  time="-9999999/1" value="0" leadInLength="0/1"  />
               <InterpolatingParam id="1961" interp="linr"  time="-9999999/1" value="0" leadInLength="0/1"  />
               <InterpolatingParam id="1962" interp="linr"  time="-9999999/1" value="0" leadInLength="0/1"  />
              </VectorParam>
              <InterpolatingParam id="1963" interp="linr"  time="-9999999/1" value="1" leadInLength="0/1"  name="opacity"/>
              <InterpolatingParam id="1964" interp="linr"  time="0/1" value="0" leadInLength="0/1"  name="cursorOpacity"/>
              <InterpolatingParam id="1965" interp="linr"  time="0/1" value="0" leadInLength="0/1"  name="cursorScale"/>
             </Parameters>
             <Attributes>
              <Attribute id="1966" value="" name="ident"/>
             </Attributes>
             <ExtraData>
              <Entry key="ZoomPanBin">
               <ZoomPanBin id="1967"  >
                <ZoomPanKeyframes>
                 <ZoomPanKeyframe id="1968" timeRangeEnd="-9999999/1" timeRangeDuration="0/1" interpolaterName=""  />
                </ZoomPanKeyframes>
               </ZoomPanBin>
              </Entry>
              <Entry key="CursorEffectBin">
               <CursorEffectBin id="1969"  >
                <CursorEffectKeyframes>
                </CursorEffectKeyframes>
               </CursorEffectBin>
              </Entry>
             </ExtraData>
            </ScreenVMFile>
            <MetaData>
             <entry key="AutoAppliedSmartFocus" val="True"/>
             <entry key="WinSubProjectDisplayName" val=""/>
            </MetaData>
           </UnifiedMedia>
           <UnifiedMedia id="1970"  >
            <AMFile id="1971" start="1428" duration="91" scalar="1/1" mediaStart="3712/1" mediaDuration="91/1" trackNumber="1" src="5" channelNumber="0,1" >
             <Parameters>
              <InterpolatingParam id="1972" interp="linr"  time="0/1" value="1" leadInLength="0/1"  name="volume"/>
              <Parameter id="1973"  name="captions"/>
             </Parameters>
             <Attributes>
              <Attribute id="1974" value="" name="ident"/>
              <Attribute id="1975" value="44100" name="sampleRate"/>
              <Attribute id="1976" value="16" name="bitDepth"/>
              <Attribute id="1977" value="1" name="gain"/>
              <Attribute id="1978" value="0" name="mixToMono"/>
             </Attributes>
            </AMFile>
            <ScreenVMFile id="1979" start="1428" duration="91" scalar="1/1" mediaStart="3712/1" mediaDuration="91/1" trackNumber="0" src="5" >
             <Transformer>
              <VectorParam id="1980"  name="translation">
               <InterpolatingParam id="1981" interp="linr"  time="-9999999/1" value="0" leadInLength="0/1"  />
               <InterpolatingParam id="1982" interp="linr"  time="-9999999/1" value="0" leadInLength="0/1"  />
               <InterpolatingParam id="1983" interp="linr"  time="-9999999/1" value="0" leadInLength="0/1"  />
              </VectorParam>
              <VectorParam id="1984"  name="rotation">
               <InterpolatingParam id="1985" interp="linr"  time="-9999999/1" value="0" leadInLength="0/1"  />
               <InterpolatingParam id="1986" interp="linr"  time="-9999999/1" value="0" leadInLength="0/1"  />
               <InterpolatingParam id="1987" interp="linr"  time="-9999999/1" value="0" leadInLength="0/1"  />
              </VectorParam>
              <VectorParam id="1988"  name="shear">
               <InterpolatingParam id="1989" interp="linr"  time="-9999999/1" value="0" leadInLength="0/1"  />
               <InterpolatingParam id="1990" interp="linr"  time="-9999999/1" value="0" leadInLength="0/1"  />
               <InterpolatingParam id="1991" interp="linr"  time="-9999999/1" value="0" leadInLength="0/1"  />
              </VectorParam>
              <VectorParam id="1992"  name="scale">
               <InterpolatingParam id="1993" interp="linr"  time="-9999999/1" value="1" leadInLength="0/1"  />
               <InterpolatingParam id="1994" interp="linr"  time="-9999999/1" value="1" leadInLength="0/1"  />
               <InterpolatingParam id="1995" interp="linr"  time="-9999999/1" value="1" leadInLength="0/1"  />
              </VectorParam>
              <VectorParam id="1996"  name="anchor">
               <InterpolatingParam id="1997" interp="linr"  time="0/1" value="0" leadInLength="0/1"  />
               <InterpolatingParam id="1998" interp="linr"  time="0/1" value="0" leadInLength="0/1"  />
               <InterpolatingParam id="1999" interp="linr"  time="0/1" value="0" leadInLength="0/1"  />
              </VectorParam>
             </Transformer>
             <Parameters>
              <VectorParam id="2000"  name="sourceCrop">
               <InterpolatingParam id="2001" interp="linr"  time="0/1" value="0" leadInLength="0/1"  />
               <InterpolatingParam id="2002" interp="linr"  time="0/1" value="0" leadInLength="0/1"  />
               <InterpolatingParam id="2003" interp="linr"  time="0/1" value="0" leadInLength="0/1"  />
               <InterpolatingParam id="2004" interp="linr"  time="0/1" value="0" leadInLength="0/1"  />
              </VectorParam>
              <VectorParam id="2005"  name="geometryCrop">
               <InterpolatingParam id="2006" interp="linr"  time="-9999999/1" value="0" leadInLength="0/1"  />
               <InterpolatingParam id="2007" interp="linr"  time="-9999999/1" value="0" leadInLength="0/1"  />
               <InterpolatingParam id="2008" interp="linr"  time="-9999999/1" value="0" leadInLength="0/1"  />
               <InterpolatingParam id="2009" interp="linr"  time="-9999999/1" value="0" leadInLength="0/1"  />
              </VectorParam>
              <InterpolatingParam id="2010" interp="linr"  time="-9999999/1" value="1" leadInLength="0/1"  name="opacity"/>
              <InterpolatingParam id="2011" interp="linr"  time="0/1" value="0" leadInLength="0/1"  name="cursorOpacity"/>
              <InterpolatingParam id="2012" interp="linr"  time="0/1" value="0" leadInLength="0/1"  name="cursorScale"/>
             </Parameters>
             <Attributes>
              <Attribute id="2013" value="" name="ident"/>
             </Attributes>
             <ExtraData>
              <Entry key="ZoomPanBin">
               <ZoomPanBin id="2014"  >
                <ZoomPanKeyframes>
                 <ZoomPanKeyframe id="2015" timeRangeEnd="-9999999/1" timeRangeDuration="0/1" interpolaterName=""  />
                </ZoomPanKeyframes>
               </ZoomPanBin>
              </Entry>
              <Entry key="CursorEffectBin">
               <CursorEffectBin id="2016"  >
                <CursorEffectKeyframes>
                </CursorEffectKeyframes>
               </CursorEffectBin>
              </Entry>
             </ExtraData>
            </ScreenVMFile>
            <MetaData>
             <entry key="AutoAppliedSmartFocus" val="True"/>
             <entry key="WinSubProjectDisplayName" val=""/>
            </MetaData>
           </UnifiedMedia>
           <UnifiedMedia id="2017"  >
            <AMFile id="2018" start="1519" duration="308" scalar="1/1" mediaStart="3983/1" mediaDuration="308/1" trackNumber="1" src="5" channelNumber="0,1" >
             <Parameters>
              <InterpolatingParam id="2019" interp="linr"  time="0/1" value="1" leadInLength="0/1"  name="volume"/>
              <Parameter id="2020"  name="captions"/>
             </Parameters>
             <Attributes>
              <Attribute id="2021" value="" name="ident"/>
              <Attribute id="2022" value="44100" name="sampleRate"/>
              <Attribute id="2023" value="16" name="bitDepth"/>
              <Attribute id="2024" value="1" name="gain"/>
              <Attribute id="2025" value="0" name="mixToMono"/>
             </Attributes>
            </AMFile>
            <ScreenVMFile id="2026" start="1519" duration="308" scalar="1/1" mediaStart="3983/1" mediaDuration="308/1" trackNumber="0" src="5" >
             <Transformer>
              <VectorParam id="2027"  name="translation">
               <InterpolatingParam id="2028" interp="linr"  time="-9999999/1" value="0" leadInLength="0/1"  />
               <InterpolatingParam id="2029" interp="linr"  time="-9999999/1" value="0" leadInLength="0/1"  />
               <InterpolatingParam id="2030" interp="linr"  time="-9999999/1" value="0" leadInLength="0/1"  />
              </VectorParam>
              <VectorParam id="2031"  name="rotation">
               <InterpolatingParam id="2032" interp="linr"  time="-9999999/1" value="0" leadInLength="0/1"  />
               <InterpolatingParam id="2033" interp="linr"  time="-9999999/1" value="0" leadInLength="0/1"  />
               <InterpolatingParam id="2034" interp="linr"  time="-9999999/1" value="0" leadInLength="0/1"  />
              </VectorParam>
              <VectorParam id="2035"  name="shear">
               <InterpolatingParam id="2036" interp="linr"  time="-9999999/1" value="0" leadInLength="0/1"  />
               <InterpolatingParam id="2037" interp="linr"  time="-9999999/1" value="0" leadInLength="0/1"  />
               <InterpolatingParam id="2038" interp="linr"  time="-9999999/1" value="0" leadInLength="0/1"  />
              </VectorParam>
              <VectorParam id="2039"  name="scale">
               <InterpolatingParam id="2040" interp="linr"  time="-9999999/1" value="1" leadInLength="0/1"  />
               <InterpolatingParam id="2041" interp="linr"  time="-9999999/1" value="1" leadInLength="0/1"  />
               <InterpolatingParam id="2042" interp="linr"  time="-9999999/1" value="1" leadInLength="0/1"  />
              </VectorParam>
              <VectorParam id="2043"  name="anchor">
               <InterpolatingParam id="2044" interp="linr"  time="0/1" value="0" leadInLength="0/1"  />
               <InterpolatingParam id="2045" interp="linr"  time="0/1" value="0" leadInLength="0/1"  />
               <InterpolatingParam id="2046" interp="linr"  time="0/1" value="0" leadInLength="0/1"  />
              </VectorParam>
             </Transformer>
             <Parameters>
              <VectorParam id="2047"  name="sourceCrop">
               <InterpolatingParam id="2048" interp="linr"  time="0/1" value="0" leadInLength="0/1"  />
               <InterpolatingParam id="2049" interp="linr"  time="0/1" value="0" leadInLength="0/1"  />
               <InterpolatingParam id="2050" interp="linr"  time="0/1" value="0" leadInLength="0/1"  />
               <InterpolatingParam id="2051" interp="linr"  time="0/1" value="0" leadInLength="0/1"  />
              </VectorParam>
              <VectorParam id="2052"  name="geometryCrop">
               <InterpolatingParam id="2053" interp="linr"  time="-9999999/1" value="0" leadInLength="0/1"  />
               <InterpolatingParam id="2054" interp="linr"  time="-9999999/1" value="0" leadInLength="0/1"  />
               <InterpolatingParam id="2055" interp="linr"  time="-9999999/1" value="0" leadInLength="0/1"  />
               <InterpolatingParam id="2056" interp="linr"  time="-9999999/1" value="0" leadInLength="0/1"  />
              </VectorParam>
              <InterpolatingParam id="2057" interp="linr"  time="-9999999/1" value="1" leadInLength="0/1"  name="opacity"/>
              <InterpolatingParam id="2058" interp="linr"  time="0/1" value="0" leadInLength="0/1"  name="cursorOpacity"/>
              <InterpolatingParam id="2059" interp="linr"  time="0/1" value="0" leadInLength="0/1"  name="cursorScale"/>
             </Parameters>
             <Attributes>
              <Attribute id="2060" value="" name="ident"/>
             </Attributes>
             <ExtraData>
              <Entry key="ZoomPanBin">
               <ZoomPanBin id="2061"  >
                <ZoomPanKeyframes>
                 <ZoomPanKeyframe id="2062" timeRangeEnd="-9999999/1" timeRangeDuration="0/1" interpolaterName=""  />
                </ZoomPanKeyframes>
               </ZoomPanBin>
              </Entry>
              <Entry key="CursorEffectBin">
               <CursorEffectBin id="2063"  >
                <CursorEffectKeyframes>
                </CursorEffectKeyframes>
               </CursorEffectBin>
              </Entry>
             </ExtraData>
            </ScreenVMFile>
            <MetaData>
             <entry key="AutoAppliedSmartFocus" val="True"/>
             <entry key="WinSubProjectDisplayName" val=""/>
            </MetaData>
           </UnifiedMedia>
          </Medias>
         </GenericTrack>
        </StitchedMedia>
        <UnifiedMedia id="2064"  >
         <AudioTransition id="2065" start="3602" duration="30" >
          <Parameters>
           <InterpolatingParam id="2066" interp="linr"  time="0/1" value="1" leadInLength="0/1"  name="volume"/>
           <Parameter id="2067"  name="captions"/>
          </Parameters>
          <Effects>
           <GenericEffect id="2068" name = "AudioTransition" >
            <Parameters>
            <Parameter id="2069"   name="audioEdgeModType">
             <Keyframes>
             <Keyframe id="2070"  time="0/1" value="0" leadInLength="0/1"  />
             </Keyframes>
            </Parameter>
            <Parameter id="2071"   name="audioTransitionType">
             <Keyframes>
             <Keyframe id="2072"  time="0/1" value="" leadInLength="0/1"  />
             </Keyframes>
            </Parameter>
            </Parameters>
            <MetaData>
            </MetaData>
           </GenericEffect>
          </Effects>
          <Attributes>
           <Attribute id="2073" value="" name="ident"/>
           <Attribute id="2074" value="0" name="sampleRate"/>
           <Attribute id="2075" value="0" name="bitDepth"/>
           <Attribute id="2076" value="1" name="gain"/>
           <Attribute id="2077" value="0" name="mixToMono"/>
          </Attributes>
         </AudioTransition>
         <ImageTransition id="2078" start="3602" duration="30" >
          <Transformer>
           <VectorParam id="2079"  name="translation">
            <InterpolatingParam id="2080" interp="linr"  time="0/1" value="0" leadInLength="0/1"  />
            <InterpolatingParam id="2081" interp="linr"  time="0/1" value="0" leadInLength="0/1"  />
            <InterpolatingParam id="2082" interp="linr"  time="0/1" value="0" leadInLength="0/1"  />
           </VectorParam>
           <VectorParam id="2083"  name="rotation">
            <InterpolatingParam id="2084" interp="linr"  time="0/1" value="0" leadInLength="0/1"  />
            <InterpolatingParam id="2085" interp="linr"  time="0/1" value="0" leadInLength="0/1"  />
            <InterpolatingParam id="2086" interp="linr"  time="0/1" value="0" leadInLength="0/1"  />
           </VectorParam>
           <VectorParam id="2087"  name="shear">
            <InterpolatingParam id="2088" interp="linr"  time="0/1" value="0" leadInLength="0/1"  />
            <InterpolatingParam id="2089" interp="linr"  time="0/1" value="0" leadInLength="0/1"  />
            <InterpolatingParam id="2090" interp="linr"  time="0/1" value="0" leadInLength="0/1"  />
           </VectorParam>
           <VectorParam id="2091"  name="scale">
            <InterpolatingParam id="2092" interp="linr"  time="0/1" value="1" leadInLength="0/1"  />
            <InterpolatingParam id="2093" interp="linr"  time="0/1" value="1" leadInLength="0/1"  />
            <InterpolatingParam id="2094" interp="linr"  time="0/1" value="1" leadInLength="0/1"  />
           </VectorParam>
           <VectorParam id="2095"  name="anchor">
            <InterpolatingParam id="2096" interp="linr"  time="0/1" value="0" leadInLength="0/1"  />
            <InterpolatingParam id="2097" interp="linr"  time="0/1" value="0" leadInLength="0/1"  />
            <InterpolatingParam id="2098" interp="linr"  time="0/1" value="0" leadInLength="0/1"  />
           </VectorParam>
          </Transformer>
          <Parameters>
           <VectorParam id="2099"  name="sourceCrop">
            <InterpolatingParam id="2100" interp="linr"  time="0/1" value="0" leadInLength="0/1"  />
            <InterpolatingParam id="2101" interp="linr"  time="0/1" value="0" leadInLength="0/1"  />
            <InterpolatingParam id="2102" interp="linr"  time="0/1" value="0" leadInLength="0/1"  />
            <InterpolatingParam id="2103" interp="linr"  time="0/1" value="0" leadInLength="0/1"  />
           </VectorParam>
           <VectorParam id="2104"  name="geometryCrop">
            <InterpolatingParam id="2105" interp="linr"  time="0/1" value="0" leadInLength="0/1"  />
            <InterpolatingParam id="2106" interp="linr"  time="0/1" value="0" leadInLength="0/1"  />
            <InterpolatingParam id="2107" interp="linr"  time="0/1" value="0" leadInLength="0/1"  />
            <InterpolatingParam id="2108" interp="linr"  time="0/1" value="0" leadInLength="0/1"  />
           </VectorParam>
           <InterpolatingParam id="2109" interp="linr"  time="0/1" value="1" leadInLength="0/1"  name="opacity"/>
          </Parameters>
          <Effects>
           <GenericEffect id="2110" name = "VisualTransition" >
            <Parameters>
            <InterpolatingParam id="2111" interp="linr"  time="0/1" value="0.5" leadInLength="0/1"   name="leftFramePercentage"/>
            <InterpolatingParam id="2112" interp="linr"  time="0/1" value="0.5" leadInLength="0/1"   name="rightFramePercentage"/>
            <Parameter id="2113"   name="visualEdgeModType">
             <Keyframes>
             <Keyframe id="2114"  time="0/1" value="2" leadInLength="0/1"  />
             </Keyframes>
            </Parameter>
            <Parameter id="2115"   name="visualTransitionType">
             <Keyframes>
             <Keyframe id="2116"  time="0/1" value="CubeRotate" leadInLength="0/1"  />
             </Keyframes>
            </Parameter>
            </Parameters>
            <MetaData>
            </MetaData>
           </GenericEffect>
          </Effects>
          <Attributes>
           <Attribute id="2117" value="" name="ident"/>
          </Attributes>
          <ExtraData>
           <Entry key="ZoomPanBin">
            <ZoomPanBin id="2118"  >
             <ZoomPanKeyframes>
             </ZoomPanKeyframes>
            </ZoomPanBin>
           </Entry>
          </ExtraData>
         </ImageTransition>
         <MetaData>
          <entry key="WinSubProjectDisplayName" val=""/>
         </MetaData>
        </UnifiedMedia>
        <StitchedMedia id="2119" start="3632" duration="1104" scalar="1/1" mediaStart="0/1" mediaDuration="1104/1" minMediaStart="0/1" >
         <Transformer>
          <VectorParam id="2120"  name="translation">
           <InterpolatingParam id="2121" interp="linr"  >
            <Keyframes>
            <Keyframe id="2122"  time="-9999999/1" value="0" leadInLength="0/1"  />
            <Keyframe id="2123"  time="60/1" value="-320" leadInLength="30/1"  interpolater="leadin-linr"  />
            <Keyframe id="2124"  time="352/1" value="-320" leadInLength="30/1"  interpolater="leadin-linr"  />
            <Keyframe id="2125"  time="664/1" value="320" leadInLength="30/1"  interpolater="leadin-linr"  />
            <Keyframe id="2126"  time="1004/1" value="233.96870554765292" leadInLength="30/1"  interpolater="leadin-linr"  />
            </Keyframes>
           </InterpolatingParam>
           <InterpolatingParam id="2127" interp="linr"  >
            <Keyframes>
            <Keyframe id="2128"  time="-9999999/1" value="0" leadInLength="0/1"  />
            <Keyframe id="2129"  time="60/1" value="96" leadInLength="30/1"  interpolater="leadin-linr"  />
            <Keyframe id="2130"  time="352/1" value="-180" leadInLength="30/1"  interpolater="leadin-linr"  />
            <Keyframe id="2131"  time="664/1" value="180" leadInLength="30/1"  interpolater="leadin-linr"  />
            <Keyframe id="2132"  time="1004/1" value="-131.52970922882429" leadInLength="30/1"  interpolater="leadin-linr"  />
            </Keyframes>
           </InterpolatingParam>
           <InterpolatingParam id="2133" interp="linr"  >
            <Keyframes>
            <Keyframe id="2134"  time="-9999999/1" value="0" leadInLength="0/1"  />
            <Keyframe id="2135"  time="60/1" value="0" leadInLength="30/1"  interpolater="leadin-linr"  />
            <Keyframe id="2136"  time="352/1" value="0" leadInLength="30/1"  interpolater="leadin-linr"  />
            <Keyframe id="2137"  time="664/1" value="0" leadInLength="30/1"  interpolater="leadin-linr"  />
            <Keyframe id="2138"  time="1004/1" value="0" leadInLength="30/1"  interpolater="leadin-linr"  />
            </Keyframes>
           </InterpolatingParam>
          </VectorParam>
          <VectorParam id="2139"  name="rotation">
           <InterpolatingParam id="2140" interp="linr"  >
            <Keyframes>
            <Keyframe id="2141"  time="-9999999/1" value="0" leadInLength="0/1"  />
            <Keyframe id="2142"  time="60/1" value="0" leadInLength="30/1"  interpolater="leadin-linr"  />
            <Keyframe id="2143"  time="352/1" value="0" leadInLength="30/1"  interpolater="leadin-linr"  />
            <Keyframe id="2144"  time="664/1" value="0" leadInLength="30/1"  interpolater="leadin-linr"  />
            <Keyframe id="2145"  time="1004/1" value="0" leadInLength="30/1"  interpolater="leadin-linr"  />
            </Keyframes>
           </InterpolatingParam>
           <InterpolatingParam id="2146" interp="linr"  >
            <Keyframes>
            <Keyframe id="2147"  time="-9999999/1" value="0" leadInLength="0/1"  />
            <Keyframe id="2148"  time="60/1" value="0" leadInLength="30/1"  interpolater="leadin-linr"  />
            <Keyframe id="2149"  time="352/1" value="0" leadInLength="30/1"  interpolater="leadin-linr"  />
            <Keyframe id="2150"  time="664/1" value="0" leadInLength="30/1"  interpolater="leadin-linr"  />
            <Keyframe id="2151"  time="1004/1" value="0" leadInLength="30/1"  interpolater="leadin-linr"  />
            </Keyframes>
           </InterpolatingParam>
           <InterpolatingParam id="2152" interp="linr"  >
            <Keyframes>
            <Keyframe id="2153"  time="-9999999/1" value="0" leadInLength="0/1"  />
            <Keyframe id="2154"  time="60/1" value="0" leadInLength="30/1"  interpolater="leadin-linr"  />
            <Keyframe id="2155"  time="352/1" value="0" leadInLength="30/1"  interpolater="leadin-linr"  />
            <Keyframe id="2156"  time="664/1" value="0" leadInLength="30/1"  interpolater="leadin-linr"  />
            <Keyframe id="2157"  time="1004/1" value="0" leadInLength="30/1"  interpolater="leadin-linr"  />
            </Keyframes>
           </InterpolatingParam>
          </VectorParam>
          <VectorParam id="2158"  name="shear">
           <InterpolatingParam id="2159" interp="linr"  >
            <Keyframes>
            <Keyframe id="2160"  time="-9999999/1" value="0" leadInLength="0/1"  />
            <Keyframe id="2161"  time="60/1" value="0" leadInLength="30/1"  interpolater="leadin-linr"  />
            <Keyframe id="2162"  time="352/1" value="0" leadInLength="30/1"  interpolater="leadin-linr"  />
            <Keyframe id="2163"  time="664/1" value="0" leadInLength="30/1"  interpolater="leadin-linr"  />
            <Keyframe id="2164"  time="1004/1" value="0" leadInLength="30/1"  interpolater="leadin-linr"  />
            </Keyframes>
           </InterpolatingParam>
           <InterpolatingParam id="2165" interp="linr"  >
            <Keyframes>
            <Keyframe id="2166"  time="-9999999/1" value="0" leadInLength="0/1"  />
            <Keyframe id="2167"  time="60/1" value="0" leadInLength="30/1"  interpolater="leadin-linr"  />
            <Keyframe id="2168"  time="352/1" value="0" leadInLength="30/1"  interpolater="leadin-linr"  />
            <Keyframe id="2169"  time="664/1" value="0" leadInLength="30/1"  interpolater="leadin-linr"  />
            <Keyframe id="2170"  time="1004/1" value="0" leadInLength="30/1"  interpolater="leadin-linr"  />
            </Keyframes>
           </InterpolatingParam>
           <InterpolatingParam id="2171" interp="linr"  >
            <Keyframes>
            <Keyframe id="2172"  time="-9999999/1" value="0" leadInLength="0/1"  />
            <Keyframe id="2173"  time="60/1" value="0" leadInLength="30/1"  interpolater="leadin-linr"  />
            <Keyframe id="2174"  time="352/1" value="0" leadInLength="30/1"  interpolater="leadin-linr"  />
            <Keyframe id="2175"  time="664/1" value="0" leadInLength="30/1"  interpolater="leadin-linr"  />
            <Keyframe id="2176"  time="1004/1" value="0" leadInLength="30/1"  interpolater="leadin-linr"  />
            </Keyframes>
           </InterpolatingParam>
          </VectorParam>
          <VectorParam id="2177"  name="scale">
           <InterpolatingParam id="2178" interp="linr"  >
            <Keyframes>
            <Keyframe id="2179"  time="-9999999/1" value="0.66666666666666663" leadInLength="0/1"  />
            <Keyframe id="2180"  time="60/1" value="1" leadInLength="30/1"  interpolater="leadin-linr"  />
            <Keyframe id="2181"  time="352/1" value="1" leadInLength="30/1"  interpolater="leadin-linr"  />
            <Keyframe id="2182"  time="664/1" value="1" leadInLength="30/1"  interpolater="leadin-linr"  />
            <Keyframe id="2183"  time="1004/1" value="0.91038406827880514" leadInLength="30/1"  interpolater="leadin-linr"  />
            </Keyframes>
           </InterpolatingParam>
           <InterpolatingParam id="2184" interp="linr"  >
            <Keyframes>
            <Keyframe id="2185"  time="-9999999/1" value="0.66666666666666663" leadInLength="0/1"  />
            <Keyframe id="2186"  time="60/1" value="1" leadInLength="30/1"  interpolater="leadin-linr"  />
            <Keyframe id="2187"  time="352/1" value="1" leadInLength="30/1"  interpolater="leadin-linr"  />
            <Keyframe id="2188"  time="664/1" value="1" leadInLength="30/1"  interpolater="leadin-linr"  />
            <Keyframe id="2189"  time="1004/1" value="0.91024020227560054" leadInLength="30/1"  interpolater="leadin-linr"  />
            </Keyframes>
           </InterpolatingParam>
           <InterpolatingParam id="2190" interp="linr"  >
            <Keyframes>
            <Keyframe id="2191"  time="-9999999/1" value="1" leadInLength="0/1"  />
            <Keyframe id="2192"  time="60/1" value="1" leadInLength="30/1"  interpolater="leadin-linr"  />
            <Keyframe id="2193"  time="352/1" value="1" leadInLength="30/1"  interpolater="leadin-linr"  />
            <Keyframe id="2194"  time="664/1" value="1" leadInLength="30/1"  interpolater="leadin-linr"  />
            <Keyframe id="2195"  time="1004/1" value="1" leadInLength="30/1"  interpolater="leadin-linr"  />
            </Keyframes>
           </InterpolatingParam>
          </VectorParam>
          <VectorParam id="2196"  name="anchor">
           <InterpolatingParam id="2197" interp="linr"  time="0/1" value="0" leadInLength="0/1"  />
           <InterpolatingParam id="2198" interp="linr"  time="0/1" value="0" leadInLength="0/1"  />
           <InterpolatingParam id="2199" interp="linr"  time="0/1" value="0" leadInLength="0/1"  />
          </VectorParam>
         </Transformer>
         <Parameters>
          <VectorParam id="2200"  name="sourceCrop">
           <InterpolatingParam id="2201" interp="linr"  time="0/1" value="0" leadInLength="0/1"  />
           <InterpolatingParam id="2202" interp="linr"  time="0/1" value="0" leadInLength="0/1"  />
           <InterpolatingParam id="2203" interp="linr"  time="0/1" value="0" leadInLength="0/1"  />
           <InterpolatingParam id="2204" interp="linr"  time="0/1" value="0" leadInLength="0/1"  />
          </VectorParam>
          <VectorParam id="2205"  name="geometryCrop">
           <InterpolatingParam id="2206" interp="linr"  >
            <Keyframes>
            <Keyframe id="2207"  time="-9999999/1" value="0" leadInLength="0/1"  />
            <Keyframe id="2208"  time="60/1" value="0" leadInLength="30/1"  interpolater="leadin-linr"  />
            <Keyframe id="2209"  time="352/1" value="0" leadInLength="30/1"  interpolater="leadin-linr"  />
            <Keyframe id="2210"  time="664/1" value="0" leadInLength="30/1"  interpolater="leadin-linr"  />
            <Keyframe id="2211"  time="1004/1" value="0" leadInLength="30/1"  interpolater="leadin-linr"  />
            </Keyframes>
           </InterpolatingParam>
           <InterpolatingParam id="2212" interp="linr"  >
            <Keyframes>
            <Keyframe id="2213"  time="-9999999/1" value="0" leadInLength="0/1"  />
            <Keyframe id="2214"  time="60/1" value="0" leadInLength="30/1"  interpolater="leadin-linr"  />
            <Keyframe id="2215"  time="352/1" value="0" leadInLength="30/1"  interpolater="leadin-linr"  />
            <Keyframe id="2216"  time="664/1" value="0" leadInLength="30/1"  interpolater="leadin-linr"  />
            <Keyframe id="2217"  time="1004/1" value="0" leadInLength="30/1"  interpolater="leadin-linr"  />
            </Keyframes>
           </InterpolatingParam>
           <InterpolatingParam id="2218" interp="linr"  >
            <Keyframes>
            <Keyframe id="2219"  time="-9999999/1" value="0" leadInLength="0/1"  />
            <Keyframe id="2220"  time="60/1" value="0" leadInLength="30/1"  interpolater="leadin-linr"  />
            <Keyframe id="2221"  time="352/1" value="0" leadInLength="30/1"  interpolater="leadin-linr"  />
            <Keyframe id="2222"  time="664/1" value="0" leadInLength="30/1"  interpolater="leadin-linr"  />
            <Keyframe id="2223"  time="1004/1" value="0" leadInLength="30/1"  interpolater="leadin-linr"  />
            </Keyframes>
           </InterpolatingParam>
           <InterpolatingParam id="2224" interp="linr"  >
            <Keyframes>
            <Keyframe id="2225"  time="-9999999/1" value="0" leadInLength="0/1"  />
            <Keyframe id="2226"  time="60/1" value="0" leadInLength="30/1"  interpolater="leadin-linr"  />
            <Keyframe id="2227"  time="352/1" value="0" leadInLength="30/1"  interpolater="leadin-linr"  />
            <Keyframe id="2228"  time="664/1" value="0" leadInLength="30/1"  interpolater="leadin-linr"  />
            <Keyframe id="2229"  time="1004/1" value="0" leadInLength="30/1"  interpolater="leadin-linr"  />
            </Keyframes>
           </InterpolatingParam>
          </VectorParam>
          <InterpolatingParam id="2230" interp="linr"  name="opacity">
           <Keyframes>
           <Keyframe id="2231"  time="-9999999/1" value="1" leadInLength="0/1"  />
           <Keyframe id="2232"  time="60/1" value="1" leadInLength="30/1"  interpolater="leadin-linr"  />
           <Keyframe id="2233"  time="352/1" value="1" leadInLength="30/1"  interpolater="leadin-linr"  />
           <Keyframe id="2234"  time="664/1" value="1" leadInLength="30/1"  interpolater="leadin-linr"  />
           <Keyframe id="2235"  time="1004/1" value="1" leadInLength="30/1"  interpolater="leadin-linr"  />
           </Keyframes>
          </InterpolatingParam>
          <InterpolatingParam id="2236" interp="linr"  time="0/1" value="1" leadInLength="0/1"  name="cursorOpacity"/>
          <InterpolatingParam id="2237" interp="linr"  time="0/1" value="1" leadInLength="0/1"  name="cursorScale"/>
          <InterpolatingParam id="2238" interp="linr"  name="volume">
           <Keyframes>
           <Keyframe id="2239"  time="0/1" value="1" leadInLength="0/1"  />
           <Keyframe id="2240"  time="1060/1" value="1" leadInLength="0/1"  />
           <Keyframe id="2241"  time="1061/1" value="0" leadInLength="0/1"  />
           <Keyframe id="2242"  time="1167/1" value="0" leadInLength="0/1"  />
           <Keyframe id="2243"  time="1168/1" value="1" leadInLength="0/1"  />
           </Keyframes>
          </InterpolatingParam>
          <Parameter id="2244"  name="captions"/>
         </Parameters>
         <Effects>
          <GenericEffect id="2245" name = "CursorBaseEffectName" >
           <Parameters>
           <InterpolatingParam id="2246" interp="linr"  time="-9999999/1" value="1" leadInLength="0/1"   name="cursorSize"/>
           <InterpolatingParam id="2247" interp="linr"  time="-9999999/1" value="0" leadInLength="0/1"   name="highlightBlurRadius"/>
           <InterpolatingParam id="2248" interp="linr"  time="-9999999/1" value="0" leadInLength="0/1"   name="highlightColorBlue"/>
           <InterpolatingParam id="2249" interp="linr"  time="-9999999/1" value="255" leadInLength="0/1"   name="highlightColorGreen"/>
           <InterpolatingParam id="2250" interp="linr"  time="-9999999/1" value="255" leadInLength="0/1"   name="highlightColorRed"/>
           <InterpolatingParam id="2251" interp="linr"  time="-9999999/1" value="5" leadInLength="0/1"   name="highlightFeatherSize"/>
           <InterpolatingParam id="2252" interp="linr"  time="-9999999/1" value="2" leadInLength="0/1"   name="highlightMagnification"/>
           <InterpolatingParam id="2253" interp="linr"  time="-9999999/1" value="1" leadInLength="0/1"   name="highlightOpacity"/>
           <InterpolatingParam id="2254" interp="linr"  time="-9999999/1" value="45" leadInLength="0/1"   name="highlightSize"/>
           <Parameter id="2255"   name="highlightType">
            <Keyframes>
            <Keyframe id="2256"  time="-9999999/1" value="0" leadInLength="0/1"  />
            </Keyframes>
           </Parameter>
           <InterpolatingParam id="2257" interp="linr"  time="-9999999/1" value="0" leadInLength="0/1"   name="leftClickColorBlue"/>
           <InterpolatingParam id="2258" interp="linr"  time="-9999999/1" value="0" leadInLength="0/1"   name="leftClickColorGreen"/>
           <InterpolatingParam id="2259" interp="linr"  time="-9999999/1" value="255" leadInLength="0/1"   name="leftClickColorRed"/>
           <InterpolatingParam id="2260" interp="linr"  time="-9999999/1" value="0.80000000000000004" leadInLength="0/1"   name="leftClickDuration"/>
           <InterpolatingParam id="2261" interp="linr"  time="-9999999/1" value="20" leadInLength="0/1"   name="leftClickSize"/>
           <Parameter id="2262"   name="leftClickSoundFilename">
            <Keyframes>
            <Keyframe id="2263"  time="-9999999/1" value="" leadInLength="0/1"  />
            </Keyframes>
           </Parameter>
           <InterpolatingParam id="2264" interp="linr"  time="-9999999/1" value="1" leadInLength="0/1"   name="leftClickSoundVolume"/>
           <Parameter id="2265"   name="leftClickType">
            <Keyframes>
            <Keyframe id="2266"  time="-9999999/1" value="0" leadInLength="0/1"  />
            </Keyframes>
           </Parameter>
           <InterpolatingParam id="2267" interp="linr"  time="-9999999/1" value="1" leadInLength="0/1"   name="opacity"/>
           <InterpolatingParam id="2268" interp="linr"  time="-9999999/1" value="255" leadInLength="0/1"   name="rightClickColorBlue"/>
           <InterpolatingParam id="2269" interp="linr"  time="-9999999/1" value="0" leadInLength="0/1"   name="rightClickColorGreen"/>
           <InterpolatingParam id="2270" interp="linr"  time="-9999999/1" value="0" leadInLength="0/1"   name="rightClickColorRed"/>
           <InterpolatingParam id="2271" interp="linr"  time="-9999999/1" value="0.80000000000000004" leadInLength="0/1"   name="rightClickDuration"/>
           <InterpolatingParam id="2272" interp="linr"  time="-9999999/1" value="20" leadInLength="0/1"   name="rightClickSize"/>
           <Parameter id="2273"   name="rightClickSoundFilename">
            <Keyframes>
            <Keyframe id="2274"  time="-9999999/1" value="" leadInLength="0/1"  />
            </Keyframes>
           </Parameter>
           <InterpolatingParam id="2275" interp="linr"  time="-9999999/1" value="1" leadInLength="0/1"   name="rightClickSoundVolume"/>
           <Parameter id="2276"   name="rightClickType">
            <Keyframes>
            <Keyframe id="2277"  time="-9999999/1" value="0" leadInLength="0/1"  />
            </Keyframes>
           </Parameter>
           </Parameters>
           <MetaData>
            <entry key="effectIndex" val="0"/>
           </MetaData>
          </GenericEffect>
         </Effects>
         <Attributes>
          <Attribute id="2278" value="" name="ident"/>
          <Attribute id="2279" value="0" name="mixToMono"/>
         </Attributes>
         <MetaData>
          <entry key="AutoAppliedSmartFocus" val="False"/>
          <entry key="WinSubProjectDisplayName" val=""/>
         </MetaData>
         <ExtraData>
          <Entry key="ZoomPanBin">
           <ZoomPanBin id="2280"  >
            <ZoomPanKeyframes>
             <ZoomPanKeyframe id="2281" timeRangeEnd="-9999999/1" timeRangeDuration="0/1" interpolaterName=""  />
             <ZoomPanKeyframe id="2282" timeRangeEnd="60/1" timeRangeDuration="30/1" interpolaterName="linr"  />
             <ZoomPanKeyframe id="2283" timeRangeEnd="352/1" timeRangeDuration="30/1" interpolaterName="linr"  />
             <ZoomPanKeyframe id="2284" timeRangeEnd="664/1" timeRangeDuration="30/1" interpolaterName="linr"  />
             <ZoomPanKeyframe id="2285" timeRangeEnd="1004/1" timeRangeDuration="30/1" interpolaterName="linr"  />
            </ZoomPanKeyframes>
           </ZoomPanBin>
          </Entry>
          <Entry key="CursorEffectBin">
           <CursorEffectBin id="2286"  >
            <CursorEffectKeyframes>
             <CursorEffectKeyframe id="2287" timeRangeEnd="-9999999/1" timeRangeDuration="0/1" interpolaterName=""  />
            </CursorEffectKeyframes>
           </CursorEffectBin>
          </Entry>
         </ExtraData>
         <GenericTrack id="2288"  >
          <Attributes>
           <Attribute id="2289" value="" name="ident"/>
           <Attribute id="2290" value="0" name="audioMuted"/>
           <Attribute id="2291" value="0" name="videoHidden"/>
          </Attributes>
          <MetaData>
           <entry key="IsLocked" val="False"/>
           <entry key="WinTrackHeight" val="0"/>
          </MetaData>
          <Medias>
           <UnifiedMedia id="2292"  >
            <AMFile id="2293" start="0" duration="271" scalar="1/1" mediaStart="0/1" mediaDuration="271/1" trackNumber="1" src="6" channelNumber="0,1" >
             <Parameters>
              <InterpolatingParam id="2294" interp="linr"  time="0/1" value="1" leadInLength="0/1"  name="volume"/>
              <Parameter id="2295"  name="captions"/>
             </Parameters>
             <Attributes>
              <Attribute id="2296" value="" name="ident"/>
              <Attribute id="2297" value="44100" name="sampleRate"/>
              <Attribute id="2298" value="16" name="bitDepth"/>
              <Attribute id="2299" value="1" name="gain"/>
              <Attribute id="2300" value="0" name="mixToMono"/>
             </Attributes>
            </AMFile>
            <ScreenVMFile id="2301" start="0" duration="271" scalar="1/1" mediaStart="0/1" mediaDuration="271/1" trackNumber="0" src="6" >
             <Transformer>
              <VectorParam id="2302"  name="translation">
               <InterpolatingParam id="2303" interp="linr"  time="-9999999/1" value="0" leadInLength="0/1"  />
               <InterpolatingParam id="2304" interp="linr"  time="-9999999/1" value="0" leadInLength="0/1"  />
               <InterpolatingParam id="2305" interp="linr"  time="-9999999/1" value="0" leadInLength="0/1"  />
              </VectorParam>
              <VectorParam id="2306"  name="rotation">
               <InterpolatingParam id="2307" interp="linr"  time="-9999999/1" value="0" leadInLength="0/1"  />
               <InterpolatingParam id="2308" interp="linr"  time="-9999999/1" value="0" leadInLength="0/1"  />
               <InterpolatingParam id="2309" interp="linr"  time="-9999999/1" value="0" leadInLength="0/1"  />
              </VectorParam>
              <VectorParam id="2310"  name="shear">
               <InterpolatingParam id="2311" interp="linr"  time="-9999999/1" value="0" leadInLength="0/1"  />
               <InterpolatingParam id="2312" interp="linr"  time="-9999999/1" value="0" leadInLength="0/1"  />
               <InterpolatingParam id="2313" interp="linr"  time="-9999999/1" value="0" leadInLength="0/1"  />
              </VectorParam>
              <VectorParam id="2314"  name="scale">
               <InterpolatingParam id="2315" interp="linr"  time="-9999999/1" value="1" leadInLength="0/1"  />
               <InterpolatingParam id="2316" interp="linr"  time="-9999999/1" value="1" leadInLength="0/1"  />
               <InterpolatingParam id="2317" interp="linr"  time="-9999999/1" value="1" leadInLength="0/1"  />
              </VectorParam>
              <VectorParam id="2318"  name="anchor">
               <InterpolatingParam id="2319" interp="linr"  time="0/1" value="0" leadInLength="0/1"  />
               <InterpolatingParam id="2320" interp="linr"  time="0/1" value="0" leadInLength="0/1"  />
               <InterpolatingParam id="2321" interp="linr"  time="0/1" value="0" leadInLength="0/1"  />
              </VectorParam>
             </Transformer>
             <Parameters>
              <VectorParam id="2322"  name="sourceCrop">
               <InterpolatingParam id="2323" interp="linr"  time="0/1" value="0" leadInLength="0/1"  />
               <InterpolatingParam id="2324" interp="linr"  time="0/1" value="0" leadInLength="0/1"  />
               <InterpolatingParam id="2325" interp="linr"  time="0/1" value="0" leadInLength="0/1"  />
               <InterpolatingParam id="2326" interp="linr"  time="0/1" value="0" leadInLength="0/1"  />
              </VectorParam>
              <VectorParam id="2327"  name="geometryCrop">
               <InterpolatingParam id="2328" interp="linr"  time="-9999999/1" value="0" leadInLength="0/1"  />
               <InterpolatingParam id="2329" interp="linr"  time="-9999999/1" value="0" leadInLength="0/1"  />
               <InterpolatingParam id="2330" interp="linr"  time="-9999999/1" value="0" leadInLength="0/1"  />
               <InterpolatingParam id="2331" interp="linr"  time="-9999999/1" value="0" leadInLength="0/1"  />
              </VectorParam>
              <InterpolatingParam id="2332" interp="linr"  time="-9999999/1" value="1" leadInLength="0/1"  name="opacity"/>
              <InterpolatingParam id="2333" interp="linr"  time="0/1" value="0" leadInLength="0/1"  name="cursorOpacity"/>
              <InterpolatingParam id="2334" interp="linr"  time="0/1" value="0" leadInLength="0/1"  name="cursorScale"/>
             </Parameters>
             <Attributes>
              <Attribute id="2335" value="" name="ident"/>
             </Attributes>
             <ExtraData>
              <Entry key="ZoomPanBin">
               <ZoomPanBin id="2336"  >
                <ZoomPanKeyframes>
                 <ZoomPanKeyframe id="2337" timeRangeEnd="-9999999/1" timeRangeDuration="0/1" interpolaterName=""  />
                </ZoomPanKeyframes>
               </ZoomPanBin>
              </Entry>
              <Entry key="CursorEffectBin">
               <CursorEffectBin id="2338"  >
                <CursorEffectKeyframes>
                </CursorEffectKeyframes>
               </CursorEffectBin>
              </Entry>
             </ExtraData>
            </ScreenVMFile>
            <MetaData>
             <entry key="AutoAppliedSmartFocus" val="True"/>
             <entry key="WinSubProjectDisplayName" val=""/>
            </MetaData>
           </UnifiedMedia>
           <UnifiedMedia id="2339"  >
            <AMFile id="2340" start="271" duration="209" scalar="1/1" mediaStart="1454/1" mediaDuration="209/1" trackNumber="1" src="6" channelNumber="0,1" >
             <Parameters>
              <InterpolatingParam id="2341" interp="linr"  time="0/1" value="1" leadInLength="0/1"  name="volume"/>
              <Parameter id="2342"  name="captions"/>
             </Parameters>
             <Attributes>
              <Attribute id="2343" value="" name="ident"/>
              <Attribute id="2344" value="44100" name="sampleRate"/>
              <Attribute id="2345" value="16" name="bitDepth"/>
              <Attribute id="2346" value="1" name="gain"/>
              <Attribute id="2347" value="0" name="mixToMono"/>
             </Attributes>
            </AMFile>
            <ScreenVMFile id="2348" start="271" duration="209" scalar="1/1" mediaStart="1454/1" mediaDuration="209/1" trackNumber="0" src="6" >
             <Transformer>
              <VectorParam id="2349"  name="translation">
               <InterpolatingParam id="2350" interp="linr"  time="-9999999/1" value="0" leadInLength="0/1"  />
               <InterpolatingParam id="2351" interp="linr"  time="-9999999/1" value="0" leadInLength="0/1"  />
               <InterpolatingParam id="2352" interp="linr"  time="-9999999/1" value="0" leadInLength="0/1"  />
              </VectorParam>
              <VectorParam id="2353"  name="rotation">
               <InterpolatingParam id="2354" interp="linr"  time="-9999999/1" value="0" leadInLength="0/1"  />
               <InterpolatingParam id="2355" interp="linr"  time="-9999999/1" value="0" leadInLength="0/1"  />
               <InterpolatingParam id="2356" interp="linr"  time="-9999999/1" value="0" leadInLength="0/1"  />
              </VectorParam>
              <VectorParam id="2357"  name="shear">
               <InterpolatingParam id="2358" interp="linr"  time="-9999999/1" value="0" leadInLength="0/1"  />
               <InterpolatingParam id="2359" interp="linr"  time="-9999999/1" value="0" leadInLength="0/1"  />
               <InterpolatingParam id="2360" interp="linr"  time="-9999999/1" value="0" leadInLength="0/1"  />
              </VectorParam>
              <VectorParam id="2361"  name="scale">
               <InterpolatingParam id="2362" interp="linr"  time="-9999999/1" value="1" leadInLength="0/1"  />
               <InterpolatingParam id="2363" interp="linr"  time="-9999999/1" value="1" leadInLength="0/1"  />
               <InterpolatingParam id="2364" interp="linr"  time="-9999999/1" value="1" leadInLength="0/1"  />
              </VectorParam>
              <VectorParam id="2365"  name="anchor">
               <InterpolatingParam id="2366" interp="linr"  time="0/1" value="0" leadInLength="0/1"  />
               <InterpolatingParam id="2367" interp="linr"  time="0/1" value="0" leadInLength="0/1"  />
               <InterpolatingParam id="2368" interp="linr"  time="0/1" value="0" leadInLength="0/1"  />
              </VectorParam>
             </Transformer>
             <Parameters>
              <VectorParam id="2369"  name="sourceCrop">
               <InterpolatingParam id="2370" interp="linr"  time="0/1" value="0" leadInLength="0/1"  />
               <InterpolatingParam id="2371" interp="linr"  time="0/1" value="0" leadInLength="0/1"  />
               <InterpolatingParam id="2372" interp="linr"  time="0/1" value="0" leadInLength="0/1"  />
               <InterpolatingParam id="2373" interp="linr"  time="0/1" value="0" leadInLength="0/1"  />
              </VectorParam>
              <VectorParam id="2374"  name="geometryCrop">
               <InterpolatingParam id="2375" interp="linr"  time="-9999999/1" value="0" leadInLength="0/1"  />
               <InterpolatingParam id="2376" interp="linr"  time="-9999999/1" value="0" leadInLength="0/1"  />
               <InterpolatingParam id="2377" interp="linr"  time="-9999999/1" value="0" leadInLength="0/1"  />
               <InterpolatingParam id="2378" interp="linr"  time="-9999999/1" value="0" leadInLength="0/1"  />
              </VectorParam>
              <InterpolatingParam id="2379" interp="linr"  time="-9999999/1" value="1" leadInLength="0/1"  name="opacity"/>
              <InterpolatingParam id="2380" interp="linr"  time="0/1" value="0" leadInLength="0/1"  name="cursorOpacity"/>
              <InterpolatingParam id="2381" interp="linr"  time="0/1" value="0" leadInLength="0/1"  name="cursorScale"/>
             </Parameters>
             <Attributes>
              <Attribute id="2382" value="" name="ident"/>
             </Attributes>
             <ExtraData>
              <Entry key="ZoomPanBin">
               <ZoomPanBin id="2383"  >
                <ZoomPanKeyframes>
                 <ZoomPanKeyframe id="2384" timeRangeEnd="-9999999/1" timeRangeDuration="0/1" interpolaterName=""  />
                </ZoomPanKeyframes>
               </ZoomPanBin>
              </Entry>
              <Entry key="CursorEffectBin">
               <CursorEffectBin id="2385"  >
                <CursorEffectKeyframes>
                </CursorEffectKeyframes>
               </CursorEffectBin>
              </Entry>
             </ExtraData>
            </ScreenVMFile>
            <MetaData>
             <entry key="AutoAppliedSmartFocus" val="True"/>
             <entry key="WinSubProjectDisplayName" val=""/>
            </MetaData>
           </UnifiedMedia>
           <UnifiedMedia id="2386"  >
            <AMFile id="2387" start="480" duration="687" scalar="1/1" mediaStart="2355/1" mediaDuration="687/1" trackNumber="1" src="6" channelNumber="0,1" >
             <Parameters>
              <InterpolatingParam id="2388" interp="linr"  time="0/1" value="1" leadInLength="0/1"  name="volume"/>
              <Parameter id="2389"  name="captions"/>
             </Parameters>
             <Attributes>
              <Attribute id="2390" value="" name="ident"/>
              <Attribute id="2391" value="44100" name="sampleRate"/>
              <Attribute id="2392" value="16" name="bitDepth"/>
              <Attribute id="2393" value="1" name="gain"/>
              <Attribute id="2394" value="0" name="mixToMono"/>
             </Attributes>
            </AMFile>
            <ScreenVMFile id="2395" start="480" duration="687" scalar="1/1" mediaStart="2355/1" mediaDuration="687/1" trackNumber="0" src="6" >
             <Transformer>
              <VectorParam id="2396"  name="translation">
               <InterpolatingParam id="2397" interp="linr"  time="-9999999/1" value="0" leadInLength="0/1"  />
               <InterpolatingParam id="2398" interp="linr"  time="-9999999/1" value="0" leadInLength="0/1"  />
               <InterpolatingParam id="2399" interp="linr"  time="-9999999/1" value="0" leadInLength="0/1"  />
              </VectorParam>
              <VectorParam id="2400"  name="rotation">
               <InterpolatingParam id="2401" interp="linr"  time="-9999999/1" value="0" leadInLength="0/1"  />
               <InterpolatingParam id="2402" interp="linr"  time="-9999999/1" value="0" leadInLength="0/1"  />
               <InterpolatingParam id="2403" interp="linr"  time="-9999999/1" value="0" leadInLength="0/1"  />
              </VectorParam>
              <VectorParam id="2404"  name="shear">
               <InterpolatingParam id="2405" interp="linr"  time="-9999999/1" value="0" leadInLength="0/1"  />
               <InterpolatingParam id="2406" interp="linr"  time="-9999999/1" value="0" leadInLength="0/1"  />
               <InterpolatingParam id="2407" interp="linr"  time="-9999999/1" value="0" leadInLength="0/1"  />
              </VectorParam>
              <VectorParam id="2408"  name="scale">
               <InterpolatingParam id="2409" interp="linr"  time="-9999999/1" value="1" leadInLength="0/1"  />
               <InterpolatingParam id="2410" interp="linr"  time="-9999999/1" value="1" leadInLength="0/1"  />
               <InterpolatingParam id="2411" interp="linr"  time="-9999999/1" value="1" leadInLength="0/1"  />
              </VectorParam>
              <VectorParam id="2412"  name="anchor">
               <InterpolatingParam id="2413" interp="linr"  time="0/1" value="0" leadInLength="0/1"  />
               <InterpolatingParam id="2414" interp="linr"  time="0/1" value="0" leadInLength="0/1"  />
               <InterpolatingParam id="2415" interp="linr"  time="0/1" value="0" leadInLength="0/1"  />
              </VectorParam>
             </Transformer>
             <Parameters>
              <VectorParam id="2416"  name="sourceCrop">
               <InterpolatingParam id="2417" interp="linr"  time="0/1" value="0" leadInLength="0/1"  />
               <InterpolatingParam id="2418" interp="linr"  time="0/1" value="0" leadInLength="0/1"  />
               <InterpolatingParam id="2419" interp="linr"  time="0/1" value="0" leadInLength="0/1"  />
               <InterpolatingParam id="2420" interp="linr"  time="0/1" value="0" leadInLength="0/1"  />
              </VectorParam>
              <VectorParam id="2421"  name="geometryCrop">
               <InterpolatingParam id="2422" interp="linr"  time="-9999999/1" value="0" leadInLength="0/1"  />
               <InterpolatingParam id="2423" interp="linr"  time="-9999999/1" value="0" leadInLength="0/1"  />
               <InterpolatingParam id="2424" interp="linr"  time="-9999999/1" value="0" leadInLength="0/1"  />
               <InterpolatingParam id="2425" interp="linr"  time="-9999999/1" value="0" leadInLength="0/1"  />
              </VectorParam>
              <InterpolatingParam id="2426" interp="linr"  time="-9999999/1" value="1" leadInLength="0/1"  name="opacity"/>
              <InterpolatingParam id="2427" interp="linr"  time="0/1" value="0" leadInLength="0/1"  name="cursorOpacity"/>
              <InterpolatingParam id="2428" interp="linr"  time="0/1" value="0" leadInLength="0/1"  name="cursorScale"/>
             </Parameters>
             <Attributes>
              <Attribute id="2429" value="" name="ident"/>
             </Attributes>
             <ExtraData>
              <Entry key="ZoomPanBin">
               <ZoomPanBin id="2430"  >
                <ZoomPanKeyframes>
                 <ZoomPanKeyframe id="2431" timeRangeEnd="-9999999/1" timeRangeDuration="0/1" interpolaterName=""  />
                </ZoomPanKeyframes>
               </ZoomPanBin>
              </Entry>
              <Entry key="CursorEffectBin">
               <CursorEffectBin id="2432"  >
                <CursorEffectKeyframes>
                </CursorEffectKeyframes>
               </CursorEffectBin>
              </Entry>
             </ExtraData>
            </ScreenVMFile>
            <MetaData>
             <entry key="AutoAppliedSmartFocus" val="True"/>
             <entry key="WinSubProjectDisplayName" val=""/>
            </MetaData>
           </UnifiedMedia>
          </Medias>
         </GenericTrack>
        </StitchedMedia>
       </Medias>
      </GenericTrack>
      <GenericTrack id="2433"  >
       <Attributes>
        <Attribute id="2434" value="" name="ident"/>
        <Attribute id="2435" value="0" name="audioMuted"/>
        <Attribute id="2436" value="0" name="videoHidden"/>
       </Attributes>
       <MetaData>
        <entry key="IsLocked" val="False"/>
        <entry key="WinTrackHeight" val="199.43939393939394"/>
       </MetaData>
       <Medias>
        <UnifiedMedia id="2437"  >
         <AudioTransition id="2438" start="0" duration="30" >
          <Parameters>
           <InterpolatingParam id="2439" interp="linr"  time="0/1" value="1" leadInLength="0/1"  name="volume"/>
           <Parameter id="2440"  name="captions"/>
          </Parameters>
          <Effects>
           <GenericEffect id="2441" name = "AudioTransition" >
            <Parameters>
            <Parameter id="2442"   name="audioEdgeModType">
             <Keyframes>
             <Keyframe id="2443"  time="0/1" value="0" leadInLength="0/1"  />
             </Keyframes>
            </Parameter>
            <Parameter id="2444"   name="audioTransitionType">
             <Keyframes>
             <Keyframe id="2445"  time="0/1" value="" leadInLength="0/1"  />
             </Keyframes>
            </Parameter>
            </Parameters>
            <MetaData>
            </MetaData>
           </GenericEffect>
          </Effects>
          <Attributes>
           <Attribute id="2446" value="" name="ident"/>
           <Attribute id="2447" value="0" name="sampleRate"/>
           <Attribute id="2448" value="0" name="bitDepth"/>
           <Attribute id="2449" value="1" name="gain"/>
           <Attribute id="2450" value="0" name="mixToMono"/>
          </Attributes>
         </AudioTransition>
         <ImageTransition id="2451" start="0" duration="30" >
          <Transformer>
           <VectorParam id="2452"  name="translation">
            <InterpolatingParam id="2453" interp="linr"  time="0/1" value="0" leadInLength="0/1"  />
            <InterpolatingParam id="2454" interp="linr"  time="0/1" value="0" leadInLength="0/1"  />
            <InterpolatingParam id="2455" interp="linr"  time="0/1" value="0" leadInLength="0/1"  />
           </VectorParam>
           <VectorParam id="2456"  name="rotation">
            <InterpolatingParam id="2457" interp="linr"  time="0/1" value="0" leadInLength="0/1"  />
            <InterpolatingParam id="2458" interp="linr"  time="0/1" value="0" leadInLength="0/1"  />
            <InterpolatingParam id="2459" interp="linr"  time="0/1" value="0" leadInLength="0/1"  />
           </VectorParam>
           <VectorParam id="2460"  name="shear">
            <InterpolatingParam id="2461" interp="linr"  time="0/1" value="0" leadInLength="0/1"  />
            <InterpolatingParam id="2462" interp="linr"  time="0/1" value="0" leadInLength="0/1"  />
            <InterpolatingParam id="2463" interp="linr"  time="0/1" value="0" leadInLength="0/1"  />
           </VectorParam>
           <VectorParam id="2464"  name="scale">
            <InterpolatingParam id="2465" interp="linr"  time="0/1" value="1" leadInLength="0/1"  />
            <InterpolatingParam id="2466" interp="linr"  time="0/1" value="1" leadInLength="0/1"  />
            <InterpolatingParam id="2467" interp="linr"  time="0/1" value="1" leadInLength="0/1"  />
           </VectorParam>
           <VectorParam id="2468"  name="anchor">
            <InterpolatingParam id="2469" interp="linr"  time="0/1" value="0" leadInLength="0/1"  />
            <InterpolatingParam id="2470" interp="linr"  time="0/1" value="0" leadInLength="0/1"  />
            <InterpolatingParam id="2471" interp="linr"  time="0/1" value="0" leadInLength="0/1"  />
           </VectorParam>
          </Transformer>
          <Parameters>
           <VectorParam id="2472"  name="sourceCrop">
            <InterpolatingParam id="2473" interp="linr"  time="0/1" value="0" leadInLength="0/1"  />
            <InterpolatingParam id="2474" interp="linr"  time="0/1" value="0" leadInLength="0/1"  />
            <InterpolatingParam id="2475" interp="linr"  time="0/1" value="0" leadInLength="0/1"  />
            <InterpolatingParam id="2476" interp="linr"  time="0/1" value="0" leadInLength="0/1"  />
           </VectorParam>
           <VectorParam id="2477"  name="geometryCrop">
            <InterpolatingParam id="2478" interp="linr"  time="0/1" value="0" leadInLength="0/1"  />
            <InterpolatingParam id="2479" interp="linr"  time="0/1" value="0" leadInLength="0/1"  />
            <InterpolatingParam id="2480" interp="linr"  time="0/1" value="0" leadInLength="0/1"  />
            <InterpolatingParam id="2481" interp="linr"  time="0/1" value="0" leadInLength="0/1"  />
           </VectorParam>
           <InterpolatingParam id="2482" interp="linr"  time="0/1" value="1" leadInLength="0/1"  name="opacity"/>
          </Parameters>
          <Effects>
           <GenericEffect id="2483" name = "VisualTransition" >
            <Parameters>
            <InterpolatingParam id="2484" interp="linr"  time="0/1" value="0.5" leadInLength="0/1"   name="leftFramePercentage"/>
            <InterpolatingParam id="2485" interp="linr"  time="0/1" value="0.5" leadInLength="0/1"   name="rightFramePercentage"/>
            <Parameter id="2486"   name="visualEdgeModType">
             <Keyframes>
             <Keyframe id="2487"  time="0/1" value="1" leadInLength="0/1"  />
             </Keyframes>
            </Parameter>
            <Parameter id="2488"   name="visualTransitionType">
             <Keyframes>
             <Keyframe id="2489"  time="0/1" value="CubeRotate" leadInLength="0/1"  />
             </Keyframes>
            </Parameter>
            </Parameters>
            <MetaData>
            </MetaData>
           </GenericEffect>
          </Effects>
          <Attributes>
           <Attribute id="2490" value="" name="ident"/>
          </Attributes>
          <ExtraData>
           <Entry key="ZoomPanBin">
            <ZoomPanBin id="2491"  >
             <ZoomPanKeyframes>
             </ZoomPanKeyframes>
            </ZoomPanBin>
           </Entry>
          </ExtraData>
         </ImageTransition>
         <MetaData>
          <entry key="WinSubProjectDisplayName" val=""/>
         </MetaData>
        </UnifiedMedia>
        <IMFile id="2492" start="30" duration="73" scalar="1/1" mediaStart="0/1" mediaDuration="1/1" trackNumber="0" src="9" trimStartSum="30/1" >
         <Transformer>
          <VectorParam id="2493"  name="translation">
           <InterpolatingParam id="2494" interp="linr"  >
            <Keyframes>
            <Keyframe id="2495"  time="-9999999/1" value="0" leadInLength="0/1"  />
            <Keyframe id="2496"  time="67/1" value="-69.517200000000003" leadInLength="51/1"  interpolater="leadin-linr"  />
            <Keyframe id="2497"  time="73/1" value="-6.3863581090117805e-011" leadInLength="6/1"  interpolater="leadin-linr"  />
            <Keyframe id="2498"  time="102/1" value="147.69200000000001" leadInLength="29/1"  interpolater="leadin-linr"  />
            </Keyframes>
           </InterpolatingParam>
           <InterpolatingParam id="2499" interp="linr"  >
            <Keyframes>
            <Keyframe id="2500"  time="-9999999/1" value="0" leadInLength="0/1"  />
            <Keyframe id="2501"  time="67/1" value="-146.55600000000001" leadInLength="51/1"  interpolater="leadin-linr"  />
            <Keyframe id="2502"  time="73/1" value="-248.91577483809337" leadInLength="6/1"  interpolater="leadin-linr"  />
            <Keyframe id="2503"  time="102/1" value="4.1002299999999998" leadInLength="29/1"  interpolater="leadin-linr"  />
            </Keyframes>
           </InterpolatingParam>
           <InterpolatingParam id="2504" interp="linr"  >
            <Keyframes>
            <Keyframe id="2505"  time="-9999999/1" value="0" leadInLength="0/1"  />
            <Keyframe id="2506"  time="67/1" value="-3.0093600000000001e-010" leadInLength="51/1"  interpolater="leadin-linr"  />
            <Keyframe id="2507"  time="73/1" value="9.1713541736200601e-011" leadInLength="6/1"  interpolater="leadin-linr"  />
            <Keyframe id="2508"  time="102/1" value="0" leadInLength="29/1"  interpolater="leadin-linr"  />
            </Keyframes>
           </InterpolatingParam>
          </VectorParam>
          <VectorParam id="2509"  name="rotation">
           <InterpolatingParam id="2510" interp="linr"  >
            <Keyframes>
            <Keyframe id="2511"  time="-9999999/1" value="0" leadInLength="0/1"  />
            <Keyframe id="2512"  time="67/1" value="0" leadInLength="51/1"  interpolater="leadin-linr"  />
            <Keyframe id="2513"  time="73/1" value="0" leadInLength="6/1"  interpolater="leadin-linr"  />
            <Keyframe id="2514"  time="102/1" value="0" leadInLength="29/1"  interpolater="leadin-linr"  />
            </Keyframes>
           </InterpolatingParam>
           <InterpolatingParam id="2515" interp="linr"  >
            <Keyframes>
            <Keyframe id="2516"  time="-9999999/1" value="0" leadInLength="0/1"  />
            <Keyframe id="2517"  time="67/1" value="0" leadInLength="51/1"  interpolater="leadin-linr"  />
            <Keyframe id="2518"  time="73/1" value="0" leadInLength="6/1"  interpolater="leadin-linr"  />
            <Keyframe id="2519"  time="102/1" value="0" leadInLength="29/1"  interpolater="leadin-linr"  />
            </Keyframes>
           </InterpolatingParam>
           <InterpolatingParam id="2520" interp="linr"  >
            <Keyframes>
            <Keyframe id="2521"  time="-9999999/1" value="0" leadInLength="0/1"  />
            <Keyframe id="2522"  time="67/1" value="0" leadInLength="51/1"  interpolater="leadin-linr"  />
            <Keyframe id="2523"  time="73/1" value="0" leadInLength="6/1"  interpolater="leadin-linr"  />
            <Keyframe id="2524"  time="102/1" value="0" leadInLength="29/1"  interpolater="leadin-linr"  />
            </Keyframes>
           </InterpolatingParam>
          </VectorParam>
          <VectorParam id="2525"  name="shear">
           <InterpolatingParam id="2526" interp="linr"  >
            <Keyframes>
            <Keyframe id="2527"  time="-9999999/1" value="0" leadInLength="0/1"  />
            <Keyframe id="2528"  time="67/1" value="0" leadInLength="51/1"  interpolater="leadin-linr"  />
            <Keyframe id="2529"  time="73/1" value="0" leadInLength="6/1"  interpolater="leadin-linr"  />
            <Keyframe id="2530"  time="102/1" value="0" leadInLength="29/1"  interpolater="leadin-linr"  />
            </Keyframes>
           </InterpolatingParam>
           <InterpolatingParam id="2531" interp="linr"  >
            <Keyframes>
            <Keyframe id="2532"  time="-9999999/1" value="0" leadInLength="0/1"  />
            <Keyframe id="2533"  time="67/1" value="0" leadInLength="51/1"  interpolater="leadin-linr"  />
            <Keyframe id="2534"  time="73/1" value="0" leadInLength="6/1"  interpolater="leadin-linr"  />
            <Keyframe id="2535"  time="102/1" value="0" leadInLength="29/1"  interpolater="leadin-linr"  />
            </Keyframes>
           </InterpolatingParam>
           <InterpolatingParam id="2536" interp="linr"  >
            <Keyframes>
            <Keyframe id="2537"  time="-9999999/1" value="0" leadInLength="0/1"  />
            <Keyframe id="2538"  time="67/1" value="0" leadInLength="51/1"  interpolater="leadin-linr"  />
            <Keyframe id="2539"  time="73/1" value="0" leadInLength="6/1"  interpolater="leadin-linr"  />
            <Keyframe id="2540"  time="102/1" value="0" leadInLength="29/1"  interpolater="leadin-linr"  />
            </Keyframes>
           </InterpolatingParam>
          </VectorParam>
          <VectorParam id="2541"  name="scale">
           <InterpolatingParam id="2542" interp="linr"  >
            <Keyframes>
            <Keyframe id="2543"  time="-9999999/1" value="0.66666666666666663" leadInLength="0/1"  />
            <Keyframe id="2544"  time="67/1" value="1.2" leadInLength="51/1"  interpolater="leadin-linr"  />
            <Keyframe id="2545"  time="73/1" value="0.92690001304207126" leadInLength="6/1"  interpolater="leadin-linr"  />
            <Keyframe id="2546"  time="102/1" value="0.82051300000000005" leadInLength="29/1"  interpolater="leadin-linr"  />
            </Keyframes>
           </InterpolatingParam>
           <InterpolatingParam id="2547" interp="linr"  >
            <Keyframes>
            <Keyframe id="2548"  time="-9999999/1" value="0.66666666666666663" leadInLength="0/1"  />
            <Keyframe id="2549"  time="67/1" value="1.2" leadInLength="51/1"  interpolater="leadin-linr"  />
            <Keyframe id="2550"  time="73/1" value="0.92683458766805549" leadInLength="6/1"  interpolater="leadin-linr"  />
            <Keyframe id="2551"  time="102/1" value="0.82004600000000005" leadInLength="29/1"  interpolater="leadin-linr"  />
            </Keyframes>
           </InterpolatingParam>
           <InterpolatingParam id="2552" interp="linr"  >
            <Keyframes>
            <Keyframe id="2553"  time="-9999999/1" value="1" leadInLength="0/1"  />
            <Keyframe id="2554"  time="67/1" value="1" leadInLength="51/1"  interpolater="leadin-linr"  />
            <Keyframe id="2555"  time="73/1" value="1" leadInLength="6/1"  interpolater="leadin-linr"  />
            <Keyframe id="2556"  time="102/1" value="1" leadInLength="29/1"  interpolater="leadin-linr"  />
            </Keyframes>
           </InterpolatingParam>
          </VectorParam>
          <VectorParam id="2557"  name="anchor">
           <InterpolatingParam id="2558" interp="linr"  time="0/1" value="0" leadInLength="0/1"  />
           <InterpolatingParam id="2559" interp="linr"  time="0/1" value="0" leadInLength="0/1"  />
           <InterpolatingParam id="2560" interp="linr"  time="0/1" value="0" leadInLength="0/1"  />
          </VectorParam>
         </Transformer>
         <Parameters>
          <VectorParam id="2561"  name="sourceCrop">
           <InterpolatingParam id="2562" interp="linr"  time="0/1" value="0" leadInLength="0/1"  />
           <InterpolatingParam id="2563" interp="linr"  time="0/1" value="0" leadInLength="0/1"  />
           <InterpolatingParam id="2564" interp="linr"  time="0/1" value="0" leadInLength="0/1"  />
           <InterpolatingParam id="2565" interp="linr"  time="0/1" value="0" leadInLength="0/1"  />
          </VectorParam>
          <VectorParam id="2566"  name="geometryCrop">
           <InterpolatingParam id="2567" interp="linr"  >
            <Keyframes>
            <Keyframe id="2568"  time="-9999999/1" value="0" leadInLength="0/1"  />
            <Keyframe id="2569"  time="67/1" value="0" leadInLength="51/1"  interpolater="leadin-linr"  />
            <Keyframe id="2570"  time="73/1" value="0" leadInLength="6/1"  interpolater="leadin-linr"  />
            <Keyframe id="2571"  time="102/1" value="0" leadInLength="29/1"  interpolater="leadin-linr"  />
            </Keyframes>
           </InterpolatingParam>
           <InterpolatingParam id="2572" interp="linr"  >
            <Keyframes>
            <Keyframe id="2573"  time="-9999999/1" value="0" leadInLength="0/1"  />
            <Keyframe id="2574"  time="67/1" value="0" leadInLength="51/1"  interpolater="leadin-linr"  />
            <Keyframe id="2575"  time="73/1" value="0" leadInLength="6/1"  interpolater="leadin-linr"  />
            <Keyframe id="2576"  time="102/1" value="0" leadInLength="29/1"  interpolater="leadin-linr"  />
            </Keyframes>
           </InterpolatingParam>
           <InterpolatingParam id="2577" interp="linr"  >
            <Keyframes>
            <Keyframe id="2578"  time="-9999999/1" value="0" leadInLength="0/1"  />
            <Keyframe id="2579"  time="67/1" value="0" leadInLength="51/1"  interpolater="leadin-linr"  />
            <Keyframe id="2580"  time="73/1" value="0" leadInLength="6/1"  interpolater="leadin-linr"  />
            <Keyframe id="2581"  time="102/1" value="0" leadInLength="29/1"  interpolater="leadin-linr"  />
            </Keyframes>
           </InterpolatingParam>
           <InterpolatingParam id="2582" interp="linr"  >
            <Keyframes>
            <Keyframe id="2583"  time="-9999999/1" value="0" leadInLength="0/1"  />
            <Keyframe id="2584"  time="67/1" value="0" leadInLength="51/1"  interpolater="leadin-linr"  />
            <Keyframe id="2585"  time="73/1" value="0" leadInLength="6/1"  interpolater="leadin-linr"  />
            <Keyframe id="2586"  time="102/1" value="0" leadInLength="29/1"  interpolater="leadin-linr"  />
            </Keyframes>
           </InterpolatingParam>
          </VectorParam>
          <InterpolatingParam id="2587" interp="linr"  name="opacity">
           <Keyframes>
           <Keyframe id="2588"  time="-9999999/1" value="1" leadInLength="0/1"  />
           <Keyframe id="2589"  time="67/1" value="1" leadInLength="51/1"  interpolater="leadin-linr"  />
           <Keyframe id="2590"  time="73/1" value="1" leadInLength="6/1"  interpolater="leadin-linr"  />
           <Keyframe id="2591"  time="102/1" value="1" leadInLength="29/1"  interpolater="leadin-linr"  />
           </Keyframes>
          </InterpolatingParam>
         </Parameters>
         <Attributes>
          <Attribute id="2592" value="" name="ident"/>
         </Attributes>
         <MetaData>
          <entry key="WinSubProjectDisplayName" val=""/>
         </MetaData>
         <ExtraData>
          <Entry key="ZoomPanBin">
           <ZoomPanBin id="2593"  >
            <ZoomPanKeyframes>
             <ZoomPanKeyframe id="2594" timeRangeEnd="-9999999/1" timeRangeDuration="0/1" interpolaterName="linr"  />
             <ZoomPanKeyframe id="2595" timeRangeEnd="67/1" timeRangeDuration="51/1" interpolaterName="linr"  />
             <ZoomPanKeyframe id="2596" timeRangeEnd="102/1" timeRangeDuration="29/1" interpolaterName="linr"  />
             <ZoomPanKeyframe id="2597" timeRangeEnd="73/1" timeRangeDuration="6/1" interpolaterName="linr"  />
            </ZoomPanKeyframes>
           </ZoomPanBin>
          </Entry>
         </ExtraData>
        </IMFile>
        <UnifiedMedia id="2598"  >
         <AudioTransition id="2599" start="103" duration="12" >
          <Parameters>
           <InterpolatingParam id="2600" interp="linr"  time="0/1" value="1" leadInLength="0/1"  name="volume"/>
           <Parameter id="2601"  name="captions"/>
          </Parameters>
          <Effects>
           <GenericEffect id="2602" name = "AudioTransition" >
            <Parameters>
            <Parameter id="2603"   name="audioEdgeModType">
             <Keyframes>
             <Keyframe id="2604"  time="0/1" value="0" leadInLength="0/1"  />
             </Keyframes>
            </Parameter>
            <Parameter id="2605"   name="audioTransitionType">
             <Keyframes>
             <Keyframe id="2606"  time="0/1" value="" leadInLength="0/1"  />
             </Keyframes>
            </Parameter>
            </Parameters>
            <MetaData>
            </MetaData>
           </GenericEffect>
          </Effects>
          <Attributes>
           <Attribute id="2607" value="" name="ident"/>
           <Attribute id="2608" value="0" name="sampleRate"/>
           <Attribute id="2609" value="0" name="bitDepth"/>
           <Attribute id="2610" value="1" name="gain"/>
           <Attribute id="2611" value="0" name="mixToMono"/>
          </Attributes>
         </AudioTransition>
         <ImageTransition id="2612" start="103" duration="12" >
          <Transformer>
           <VectorParam id="2613"  name="translation">
            <InterpolatingParam id="2614" interp="linr"  time="0/1" value="0" leadInLength="0/1"  />
            <InterpolatingParam id="2615" interp="linr"  time="0/1" value="0" leadInLength="0/1"  />
            <InterpolatingParam id="2616" interp="linr"  time="0/1" value="0" leadInLength="0/1"  />
           </VectorParam>
           <VectorParam id="2617"  name="rotation">
            <InterpolatingParam id="2618" interp="linr"  time="0/1" value="0" leadInLength="0/1"  />
            <InterpolatingParam id="2619" interp="linr"  time="0/1" value="0" leadInLength="0/1"  />
            <InterpolatingParam id="2620" interp="linr"  time="0/1" value="0" leadInLength="0/1"  />
           </VectorParam>
           <VectorParam id="2621"  name="shear">
            <InterpolatingParam id="2622" interp="linr"  time="0/1" value="0" leadInLength="0/1"  />
            <InterpolatingParam id="2623" interp="linr"  time="0/1" value="0" leadInLength="0/1"  />
            <InterpolatingParam id="2624" interp="linr"  time="0/1" value="0" leadInLength="0/1"  />
           </VectorParam>
           <VectorParam id="2625"  name="scale">
            <InterpolatingParam id="2626" interp="linr"  time="0/1" value="1" leadInLength="0/1"  />
            <InterpolatingParam id="2627" interp="linr"  time="0/1" value="1" leadInLength="0/1"  />
            <InterpolatingParam id="2628" interp="linr"  time="0/1" value="1" leadInLength="0/1"  />
           </VectorParam>
           <VectorParam id="2629"  name="anchor">
            <InterpolatingParam id="2630" interp="linr"  time="0/1" value="0" leadInLength="0/1"  />
            <InterpolatingParam id="2631" interp="linr"  time="0/1" value="0" leadInLength="0/1"  />
            <InterpolatingParam id="2632" interp="linr"  time="0/1" value="0" leadInLength="0/1"  />
           </VectorParam>
          </Transformer>
          <Parameters>
           <VectorParam id="2633"  name="sourceCrop">
            <InterpolatingParam id="2634" interp="linr"  time="0/1" value="0" leadInLength="0/1"  />
            <InterpolatingParam id="2635" interp="linr"  time="0/1" value="0" leadInLength="0/1"  />
            <InterpolatingParam id="2636" interp="linr"  time="0/1" value="0" leadInLength="0/1"  />
            <InterpolatingParam id="2637" interp="linr"  time="0/1" value="0" leadInLength="0/1"  />
           </VectorParam>
           <VectorParam id="2638"  name="geometryCrop">
            <InterpolatingParam id="2639" interp="linr"  time="0/1" value="0" leadInLength="0/1"  />
            <InterpolatingParam id="2640" interp="linr"  time="0/1" value="0" leadInLength="0/1"  />
            <InterpolatingParam id="2641" interp="linr"  time="0/1" value="0" leadInLength="0/1"  />
            <InterpolatingParam id="2642" interp="linr"  time="0/1" value="0" leadInLength="0/1"  />
           </VectorParam>
           <InterpolatingParam id="2643" interp="linr"  time="0/1" value="1" leadInLength="0/1"  name="opacity"/>
          </Parameters>
          <Effects>
           <GenericEffect id="2644" name = "VisualTransition" >
            <Parameters>
            <InterpolatingParam id="2645" interp="linr"  time="0/1" value="0.5" leadInLength="0/1"   name="leftFramePercentage"/>
            <InterpolatingParam id="2646" interp="linr"  time="0/1" value="0.5" leadInLength="0/1"   name="rightFramePercentage"/>
            <Parameter id="2647"   name="visualEdgeModType">
             <Keyframes>
             <Keyframe id="2648"  time="0/1" value="2" leadInLength="0/1"  />
             </Keyframes>
            </Parameter>
            <Parameter id="2649"   name="visualTransitionType">
             <Keyframes>
             <Keyframe id="2650"  time="0/1" value="CubeRotate" leadInLength="0/1"  />
             </Keyframes>
            </Parameter>
            </Parameters>
            <MetaData>
            </MetaData>
           </GenericEffect>
          </Effects>
          <Attributes>
           <Attribute id="2651" value="" name="ident"/>
          </Attributes>
          <ExtraData>
           <Entry key="ZoomPanBin">
            <ZoomPanBin id="2652"  >
             <ZoomPanKeyframes>
             </ZoomPanKeyframes>
            </ZoomPanBin>
           </Entry>
          </ExtraData>
         </ImageTransition>
         <MetaData>
          <entry key="WinSubProjectDisplayName" val=""/>
         </MetaData>
        </UnifiedMedia>
        <UnifiedMedia id="2653"  >
         <AudioTransition id="2654" start="115" duration="30" >
          <Parameters>
           <InterpolatingParam id="2655" interp="linr"  time="0/1" value="1" leadInLength="0/1"  name="volume"/>
           <Parameter id="2656"  name="captions"/>
          </Parameters>
          <Effects>
           <GenericEffect id="2657" name = "AudioTransition" >
            <Parameters>
            <Parameter id="2658"   name="audioEdgeModType">
             <Keyframes>
             <Keyframe id="2659"  time="0/1" value="0" leadInLength="0/1"  />
             </Keyframes>
            </Parameter>
            <Parameter id="2660"   name="audioTransitionType">
             <Keyframes>
             <Keyframe id="2661"  time="0/1" value="" leadInLength="0/1"  />
             </Keyframes>
            </Parameter>
            </Parameters>
            <MetaData>
            </MetaData>
           </GenericEffect>
          </Effects>
          <Attributes>
           <Attribute id="2662" value="" name="ident"/>
           <Attribute id="2663" value="0" name="sampleRate"/>
           <Attribute id="2664" value="0" name="bitDepth"/>
           <Attribute id="2665" value="1" name="gain"/>
           <Attribute id="2666" value="0" name="mixToMono"/>
          </Attributes>
         </AudioTransition>
         <ImageTransition id="2667" start="115" duration="30" >
          <Transformer>
           <VectorParam id="2668"  name="translation">
            <InterpolatingParam id="2669" interp="linr"  time="0/1" value="0" leadInLength="0/1"  />
            <InterpolatingParam id="2670" interp="linr"  time="0/1" value="0" leadInLength="0/1"  />
            <InterpolatingParam id="2671" interp="linr"  time="0/1" value="0" leadInLength="0/1"  />
           </VectorParam>
           <VectorParam id="2672"  name="rotation">
            <InterpolatingParam id="2673" interp="linr"  time="0/1" value="0" leadInLength="0/1"  />
            <InterpolatingParam id="2674" interp="linr"  time="0/1" value="0" leadInLength="0/1"  />
            <InterpolatingParam id="2675" interp="linr"  time="0/1" value="0" leadInLength="0/1"  />
           </VectorParam>
           <VectorParam id="2676"  name="shear">
            <InterpolatingParam id="2677" interp="linr"  time="0/1" value="0" leadInLength="0/1"  />
            <InterpolatingParam id="2678" interp="linr"  time="0/1" value="0" leadInLength="0/1"  />
            <InterpolatingParam id="2679" interp="linr"  time="0/1" value="0" leadInLength="0/1"  />
           </VectorParam>
           <VectorParam id="2680"  name="scale">
            <InterpolatingParam id="2681" interp="linr"  time="0/1" value="1" leadInLength="0/1"  />
            <InterpolatingParam id="2682" interp="linr"  time="0/1" value="1" leadInLength="0/1"  />
            <InterpolatingParam id="2683" interp="linr"  time="0/1" value="1" leadInLength="0/1"  />
           </VectorParam>
           <VectorParam id="2684"  name="anchor">
            <InterpolatingParam id="2685" interp="linr"  time="0/1" value="0" leadInLength="0/1"  />
            <InterpolatingParam id="2686" interp="linr"  time="0/1" value="0" leadInLength="0/1"  />
            <InterpolatingParam id="2687" interp="linr"  time="0/1" value="0" leadInLength="0/1"  />
           </VectorParam>
          </Transformer>
          <Parameters>
           <VectorParam id="2688"  name="sourceCrop">
            <InterpolatingParam id="2689" interp="linr"  time="0/1" value="0" leadInLength="0/1"  />
            <InterpolatingParam id="2690" interp="linr"  time="0/1" value="0" leadInLength="0/1"  />
            <InterpolatingParam id="2691" interp="linr"  time="0/1" value="0" leadInLength="0/1"  />
            <InterpolatingParam id="2692" interp="linr"  time="0/1" value="0" leadInLength="0/1"  />
           </VectorParam>
           <VectorParam id="2693"  name="geometryCrop">
            <InterpolatingParam id="2694" interp="linr"  time="0/1" value="0" leadInLength="0/1"  />
            <InterpolatingParam id="2695" interp="linr"  time="0/1" value="0" leadInLength="0/1"  />
            <InterpolatingParam id="2696" interp="linr"  time="0/1" value="0" leadInLength="0/1"  />
            <InterpolatingParam id="2697" interp="linr"  time="0/1" value="0" leadInLength="0/1"  />
           </VectorParam>
           <InterpolatingParam id="2698" interp="linr"  time="0/1" value="1" leadInLength="0/1"  name="opacity"/>
          </Parameters>
          <Effects>
           <GenericEffect id="2699" name = "VisualTransition" >
            <Parameters>
            <InterpolatingParam id="2700" interp="linr"  time="0/1" value="0.5" leadInLength="0/1"   name="leftFramePercentage"/>
            <InterpolatingParam id="2701" interp="linr"  time="0/1" value="0.5" leadInLength="0/1"   name="rightFramePercentage"/>
            <Parameter id="2702"   name="visualEdgeModType">
             <Keyframes>
             <Keyframe id="2703"  time="0/1" value="1" leadInLength="0/1"  />
             </Keyframes>
            </Parameter>
            <Parameter id="2704"   name="visualTransitionType">
             <Keyframes>
             <Keyframe id="2705"  time="0/1" value="Dissolve" leadInLength="0/1"  />
             </Keyframes>
            </Parameter>
            </Parameters>
            <MetaData>
            </MetaData>
           </GenericEffect>
          </Effects>
          <Attributes>
           <Attribute id="2706" value="" name="ident"/>
          </Attributes>
          <ExtraData>
           <Entry key="ZoomPanBin">
            <ZoomPanBin id="2707"  >
             <ZoomPanKeyframes>
             </ZoomPanKeyframes>
            </ZoomPanBin>
           </Entry>
          </ExtraData>
         </ImageTransition>
         <MetaData>
          <entry key="WinSubProjectDisplayName" val=""/>
         </MetaData>
        </UnifiedMedia>
        <IMFile id="2708" start="145" duration="157" scalar="1/1" mediaStart="0/1" mediaDuration="1/1" trackNumber="0" src="11" trimStartSum="7/1" >
         <Transformer>
          <VectorParam id="2709"  name="translation">
           <InterpolatingParam id="2710" interp="linr"  >
            <Keyframes>
            <Keyframe id="2711"  time="-9999999/1" value="0" leadInLength="0/1"  />
            <Keyframe id="2712"  time="108/1" value="-69.517241379203483" leadInLength="53/1"  interpolater="leadin-linr"  />
            <Keyframe id="2713"  time="164/1" value="1.5727152913314058e-010" leadInLength="34/1"  interpolater="leadin-linr"  />
            </Keyframes>
           </InterpolatingParam>
           <InterpolatingParam id="2714" interp="linr"  >
            <Keyframes>
            <Keyframe id="2715"  time="-9999999/1" value="0" leadInLength="0/1"  />
            <Keyframe id="2716"  time="108/1" value="-146.55578093300664" leadInLength="53/1"  interpolater="leadin-linr"  />
            <Keyframe id="2717"  time="164/1" value="-171.72413793095436" leadInLength="34/1"  interpolater="leadin-linr"  />
            </Keyframes>
           </InterpolatingParam>
           <InterpolatingParam id="2718" interp="linr"  >
            <Keyframes>
            <Keyframe id="2719"  time="-9999999/1" value="0" leadInLength="0/1"  />
            <Keyframe id="2720"  time="108/1" value="-3.0093574691024331e-010" leadInLength="53/1"  interpolater="leadin-linr"  />
            <Keyframe id="2721"  time="164/1" value="-3.4106051316494244e-010" leadInLength="34/1"  interpolater="leadin-linr"  />
            </Keyframes>
           </InterpolatingParam>
          </VectorParam>
          <VectorParam id="2722"  name="rotation">
           <InterpolatingParam id="2723" interp="linr"  >
            <Keyframes>
            <Keyframe id="2724"  time="-9999999/1" value="0" leadInLength="0/1"  />
            <Keyframe id="2725"  time="108/1" value="0" leadInLength="53/1"  interpolater="leadin-linr"  />
            <Keyframe id="2726"  time="164/1" value="0" leadInLength="34/1"  interpolater="leadin-linr"  />
            </Keyframes>
           </InterpolatingParam>
           <InterpolatingParam id="2727" interp="linr"  >
            <Keyframes>
            <Keyframe id="2728"  time="-9999999/1" value="0" leadInLength="0/1"  />
            <Keyframe id="2729"  time="108/1" value="0" leadInLength="53/1"  interpolater="leadin-linr"  />
            <Keyframe id="2730"  time="164/1" value="0" leadInLength="34/1"  interpolater="leadin-linr"  />
            </Keyframes>
           </InterpolatingParam>
           <InterpolatingParam id="2731" interp="linr"  >
            <Keyframes>
            <Keyframe id="2732"  time="-9999999/1" value="0" leadInLength="0/1"  />
            <Keyframe id="2733"  time="108/1" value="0" leadInLength="53/1"  interpolater="leadin-linr"  />
            <Keyframe id="2734"  time="164/1" value="0" leadInLength="34/1"  interpolater="leadin-linr"  />
            </Keyframes>
           </InterpolatingParam>
          </VectorParam>
          <VectorParam id="2735"  name="shear">
           <InterpolatingParam id="2736" interp="linr"  >
            <Keyframes>
            <Keyframe id="2737"  time="-9999999/1" value="0" leadInLength="0/1"  />
            <Keyframe id="2738"  time="108/1" value="0" leadInLength="53/1"  interpolater="leadin-linr"  />
            <Keyframe id="2739"  time="164/1" value="0" leadInLength="34/1"  interpolater="leadin-linr"  />
            </Keyframes>
           </InterpolatingParam>
           <InterpolatingParam id="2740" interp="linr"  >
            <Keyframes>
            <Keyframe id="2741"  time="-9999999/1" value="0" leadInLength="0/1"  />
            <Keyframe id="2742"  time="108/1" value="0" leadInLength="53/1"  interpolater="leadin-linr"  />
            <Keyframe id="2743"  time="164/1" value="0" leadInLength="34/1"  interpolater="leadin-linr"  />
            </Keyframes>
           </InterpolatingParam>
           <InterpolatingParam id="2744" interp="linr"  >
            <Keyframes>
            <Keyframe id="2745"  time="-9999999/1" value="0" leadInLength="0/1"  />
            <Keyframe id="2746"  time="108/1" value="0" leadInLength="53/1"  interpolater="leadin-linr"  />
            <Keyframe id="2747"  time="164/1" value="0" leadInLength="34/1"  interpolater="leadin-linr"  />
            </Keyframes>
           </InterpolatingParam>
          </VectorParam>
          <VectorParam id="2748"  name="scale">
           <InterpolatingParam id="2749" interp="linr"  >
            <Keyframes>
            <Keyframe id="2750"  time="-9999999/1" value="0.66666666666666663" leadInLength="0/1"  />
            <Keyframe id="2751"  time="108/1" value="1.2" leadInLength="53/1"  interpolater="leadin-linr"  />
            <Keyframe id="2752"  time="164/1" value="0.85999999999999999" leadInLength="34/1"  interpolater="leadin-linr"  />
            </Keyframes>
           </InterpolatingParam>
           <InterpolatingParam id="2753" interp="linr"  >
            <Keyframes>
            <Keyframe id="2754"  time="-9999999/1" value="0.66666666666666663" leadInLength="0/1"  />
            <Keyframe id="2755"  time="108/1" value="1.1999999999999515" leadInLength="53/1"  interpolater="leadin-linr"  />
            <Keyframe id="2756"  time="164/1" value="0.85999999999999988" leadInLength="34/1"  interpolater="leadin-linr"  />
            </Keyframes>
           </InterpolatingParam>
           <InterpolatingParam id="2757" interp="linr"  >
            <Keyframes>
            <Keyframe id="2758"  time="-9999999/1" value="1" leadInLength="0/1"  />
            <Keyframe id="2759"  time="108/1" value="1" leadInLength="53/1"  interpolater="leadin-linr"  />
            <Keyframe id="2760"  time="164/1" value="1" leadInLength="34/1"  interpolater="leadin-linr"  />
            </Keyframes>
           </InterpolatingParam>
          </VectorParam>
          <VectorParam id="2761"  name="anchor">
           <InterpolatingParam id="2762" interp="linr"  time="0/1" value="0" leadInLength="0/1"  />
           <InterpolatingParam id="2763" interp="linr"  time="0/1" value="0" leadInLength="0/1"  />
           <InterpolatingParam id="2764" interp="linr"  time="0/1" value="0" leadInLength="0/1"  />
          </VectorParam>
         </Transformer>
         <Parameters>
          <VectorParam id="2765"  name="sourceCrop">
           <InterpolatingParam id="2766" interp="linr"  time="0/1" value="0" leadInLength="0/1"  />
           <InterpolatingParam id="2767" interp="linr"  time="0/1" value="0" leadInLength="0/1"  />
           <InterpolatingParam id="2768" interp="linr"  time="0/1" value="0" leadInLength="0/1"  />
           <InterpolatingParam id="2769" interp="linr"  time="0/1" value="0" leadInLength="0/1"  />
          </VectorParam>
          <VectorParam id="2770"  name="geometryCrop">
           <InterpolatingParam id="2771" interp="linr"  >
            <Keyframes>
            <Keyframe id="2772"  time="-9999999/1" value="0" leadInLength="0/1"  />
            <Keyframe id="2773"  time="108/1" value="0" leadInLength="53/1"  interpolater="leadin-linr"  />
            <Keyframe id="2774"  time="164/1" value="0" leadInLength="34/1"  interpolater="leadin-linr"  />
            </Keyframes>
           </InterpolatingParam>
           <InterpolatingParam id="2775" interp="linr"  >
            <Keyframes>
            <Keyframe id="2776"  time="-9999999/1" value="0" leadInLength="0/1"  />
            <Keyframe id="2777"  time="108/1" value="0" leadInLength="53/1"  interpolater="leadin-linr"  />
            <Keyframe id="2778"  time="164/1" value="0" leadInLength="34/1"  interpolater="leadin-linr"  />
            </Keyframes>
           </InterpolatingParam>
           <InterpolatingParam id="2779" interp="linr"  >
            <Keyframes>
            <Keyframe id="2780"  time="-9999999/1" value="0" leadInLength="0/1"  />
            <Keyframe id="2781"  time="108/1" value="0" leadInLength="53/1"  interpolater="leadin-linr"  />
            <Keyframe id="2782"  time="164/1" value="0" leadInLength="34/1"  interpolater="leadin-linr"  />
            </Keyframes>
           </InterpolatingParam>
           <InterpolatingParam id="2783" interp="linr"  >
            <Keyframes>
            <Keyframe id="2784"  time="-9999999/1" value="0" leadInLength="0/1"  />
            <Keyframe id="2785"  time="108/1" value="0" leadInLength="53/1"  interpolater="leadin-linr"  />
            <Keyframe id="2786"  time="164/1" value="0" leadInLength="34/1"  interpolater="leadin-linr"  />
            </Keyframes>
           </InterpolatingParam>
          </VectorParam>
          <InterpolatingParam id="2787" interp="linr"  name="opacity">
           <Keyframes>
           <Keyframe id="2788"  time="-9999999/1" value="1" leadInLength="0/1"  />
           <Keyframe id="2789"  time="108/1" value="1" leadInLength="53/1"  interpolater="leadin-linr"  />
           <Keyframe id="2790"  time="164/1" value="1" leadInLength="34/1"  interpolater="leadin-linr"  />
           </Keyframes>
          </InterpolatingParam>
         </Parameters>
         <Attributes>
          <Attribute id="2791" value="" name="ident"/>
         </Attributes>
         <MetaData>
          <entry key="WinSubProjectDisplayName" val=""/>
         </MetaData>
         <ExtraData>
          <Entry key="ZoomPanBin">
           <ZoomPanBin id="2792"  >
            <ZoomPanKeyframes>
             <ZoomPanKeyframe id="2793" timeRangeEnd="-9999999/1" timeRangeDuration="0/1" interpolaterName="linr"  />
             <ZoomPanKeyframe id="2794" timeRangeEnd="164/1" timeRangeDuration="34/1" interpolaterName="linr"  />
             <ZoomPanKeyframe id="2795" timeRangeEnd="108/1" timeRangeDuration="53/1" interpolaterName="linr"  />
            </ZoomPanKeyframes>
           </ZoomPanBin>
          </Entry>
         </ExtraData>
        </IMFile>
        <AMFile id="2796" start="3834" duration="905" scalar="1/1" mediaStart="0/1" mediaDuration="905/1" trackNumber="0" src="10" channelNumber="0,1" >
         <Parameters>
          <InterpolatingParam id="2797" interp="linr"  name="volume">
           <Keyframes>
           <Keyframe id="2798"  time="0/1" value="0.050676244378057969" leadInLength="0/1"  />
           <Keyframe id="2799"  time="468/1" value="0.094590999098050341" leadInLength="0/1"  />
           <Keyframe id="2800"  time="690/1" value="0.42961854539925881" leadInLength="0/1"  />
           </Keyframes>
          </InterpolatingParam>
          <Parameter id="2801"  name="captions"/>
         </Parameters>
         <Attributes>
          <Attribute id="2802" value="" name="ident"/>
          <Attribute id="2803" value="44100" name="sampleRate"/>
          <Attribute id="2804" value="0" name="bitDepth"/>
          <Attribute id="2805" value="1" name="gain"/>
          <Attribute id="2806" value="0" name="mixToMono"/>
         </Attributes>
         <MetaData>
          <entry key="WinSubProjectDisplayName" val=""/>
         </MetaData>
        </AMFile>
       </Medias>
      </GenericTrack>
      <GenericTrack id="2807"  >
       <Attributes>
        <Attribute id="2808" value="" name="ident"/>
        <Attribute id="2809" value="0" name="audioMuted"/>
        <Attribute id="2810" value="0" name="videoHidden"/>
       </Attributes>
       <MetaData>
        <entry key="IsLocked" val="False"/>
        <entry key="WinTrackHeight" val="70.439393939393938"/>
       </MetaData>
       <Medias>
        <AMFile id="2811" start="0" duration="435" scalar="1/1" mediaStart="0/1" mediaDuration="435/1" trackNumber="0" src="8" channelNumber="0,1" >
         <Parameters>
          <InterpolatingParam id="2812" interp="linr"  time="0/1" value="1" leadInLength="0/1"  name="volume"/>
          <Parameter id="2813"  name="captions"/>
         </Parameters>
         <Attributes>
          <Attribute id="2814" value="" name="ident"/>
          <Attribute id="2815" value="44100" name="sampleRate"/>
          <Attribute id="2816" value="0" name="bitDepth"/>
          <Attribute id="2817" value="1" name="gain"/>
          <Attribute id="2818" value="0" name="mixToMono"/>
         </Attributes>
         <MetaData>
          <entry key="WinSubProjectDisplayName" val=""/>
         </MetaData>
        </AMFile>
       </Medias>
      </GenericTrack>
      <GenericTrack id="2819"  >
       <Attributes>
        <Attribute id="2820" value="" name="ident"/>
        <Attribute id="2821" value="0" name="audioMuted"/>
        <Attribute id="2822" value="0" name="videoHidden"/>
       </Attributes>
       <MetaData>
        <entry key="IsLocked" val="False"/>
        <entry key="WinTrackHeight" val="70.439393939393938"/>
       </MetaData>
       <Medias>
       </Medias>
      </GenericTrack>
      <GenericTrack id="2823"  >
       <Attributes>
        <Attribute id="2824" value="" name="ident"/>
        <Attribute id="2825" value="0" name="audioMuted"/>
        <Attribute id="2826" value="0" name="videoHidden"/>
       </Attributes>
       <MetaData>
        <entry key="IsLocked" val="False"/>
        <entry key="WinTrackHeight" val="70.439393939393938"/>
       </MetaData>
       <Medias>
       </Medias>
      </GenericTrack>
     </Tracks>
    </GenericMixer>
   <CaptionAttributes id="2827"  >
    <Attribute id="2828" value="1" name="captionsEnabled"/>
    <Attribute id="2829" value="Arial" name="captionsFontName"/>
    <Attribute id="2830" value="28" name="captionsFontSize"/>
    <Attribute id="2831" value="(0,0,0,255)" name="captionsBackgroundColor"/>
    <Attribute id="2832" value="(255,255,255,255)" name="captionsForegroundColor"/>
    <Attribute id="2833" value="en" name="lang"/>
    <Attribute id="2834" value="0" name="captionsAlignment"/>
    <Attribute id="2835" value="1" name="captionsDefaultFontSize"/>
    <Attribute id="2836" value="0.5" name="captionsOpacity"/>
    <Attribute id="2837" value="1" name="captionsBackgroundEnabled"/>
    <Attribute id="2838" value="1" name="captionsBackgroundOnlyAroundText"/>
   </CaptionAttributes>
   <Parameters>
    <VectorParam id="2839"  name="eyePosition">
     <InterpolatingParam id="2840" interp="linr"  time="0/1" value="0" leadInLength="0/1"  />
     <InterpolatingParam id="2841" interp="linr"  time="0/1" value="0" leadInLength="0/1"  />
     <InterpolatingParam id="2842" interp="linr"  time="0/1" value="3000" leadInLength="0/1"  />
    </VectorParam>
    <VectorParam id="2843"  name="eyeLookAtPosition">
     <InterpolatingParam id="2844" interp="linr"  time="0/1" value="0" leadInLength="0/1"  />
     <InterpolatingParam id="2845" interp="linr"  time="0/1" value="0" leadInLength="0/1"  />
     <InterpolatingParam id="2846" interp="linr"  time="0/1" value="0" leadInLength="0/1"  />
    </VectorParam>
    <VectorParam id="2847"  name="eyeUpVector">
     <InterpolatingParam id="2848" interp="linr"  time="0/1" value="0" leadInLength="0/1"  />
     <InterpolatingParam id="2849" interp="linr"  time="0/1" value="1" leadInLength="0/1"  />
     <InterpolatingParam id="2850" interp="linr"  time="0/1" value="0" leadInLength="0/1"  />
    </VectorParam>
    <InterpolatingParam id="2851" interp="linr"  time="0/1" value="0.23885785" leadInLength="0/1"  name="fov"/>
    <InterpolatingParam id="2852" interp="linr"  time="0/1" value="1.5" leadInLength="0/1"  name="nearClipDistance"/>
    <InterpolatingParam id="2853" interp="linr"  time="0/1" value="6000" leadInLength="0/1"  name="farClipDistance"/>
    <Parameter id="2854"  name="toc">
     <Keyframes>
     <Keyframe id="2855"  time="302/1" value="start-lesson" leadInLength="0/1"  >
      <MetaData>
       <entry key="Checked" val="True"/>
       <entry key="IndentLevel" val="0"/>
      </MetaData>
     </Keyframe>
     </Keyframes>
    </Parameter>
   </Parameters>
  </Timeline>
 </Project>
</GoProject>
</CSMLData>

</Project_Data>
